<?xml version="1.0" encoding="UTF-8" standalone="no"?>
<!-- Generator: Adobe Illustrator 27.1.1, SVG Export Plug-In . SVG Version: 6.00 Build 0)  -->

<svg
   version="1.1"
   id="Livello_1"
   x="0px"
   y="0px"
   viewBox="0 0 478.7 121"
   style="enable-background:new 0 0 478.7 121;"
   xml:space="preserve"
   sodipodi:docname="logo_orizzontale_WHITE.svg"
   inkscape:version="1.4.2 (f4327f4, 2025-05-13)"
   xmlns:inkscape="http://www.inkscape.org/namespaces/inkscape"
   xmlns:sodipodi="http://sodipodi.sourceforge.net/DTD/sodipodi-0.dtd"
   xmlns="http://www.w3.org/2000/svg"
   xmlns:svg="http://www.w3.org/2000/svg"><defs
   id="defs25" /><sodipodi:namedview
   id="namedview25"
   pagecolor="#505050"
   bordercolor="#ffffff"
   borderopacity="1"
   inkscape:showpageshadow="0"
   inkscape:pageopacity="0"
   inkscape:pagecheckerboard="1"
   inkscape:deskcolor="#505050"
   inkscape:zoom="3.7998746"
   inkscape:cx="182.50602"
   inkscape:cy="60.396731"
   inkscape:window-width="1920"
   inkscape:window-height="1111"
   inkscape:window-x="-9"
   inkscape:window-y="-9"
   inkscape:window-maximized="1"
   inkscape:current-layer="Livello_1" />
<style
   type="text/css"
   id="style1">
	.st0{fill:#FFFFFF;}
	.st1{fill:none;}
	.st2{fill:#E3E3E3;}
</style>
<g
   id="Layer_2"
   style="fill:#d9d9d6;fill-opacity:1">
	<path
   class="st0"
   d="M167.4,10.2c0-1.1-0.1-1.4-1.1-1.4l-4.5-0.5V3.7h19.1v4.6L176,8.8c-1.1,0.1-1.1,0.3-1.1,1.4v27.6   c0,12.9-7.2,18.8-19.6,18.8c-13.6,0-19.2-6.3-19.2-19V10.2c0-1.1-0.1-1.4-1.1-1.4l-4.5-0.5V3.7h19.9v4.6l-4.8,0.6   c-1.1,0.1-1.1,0.3-1.1,1.4v26.1c0,9.1,3.1,13.2,11.3,13.2s11.6-3.4,11.6-13V10.2z"
   id="path1"
   style="fill:#d9d9d6;fill-opacity:1" />
	<path
   class="st0"
   d="M207.2,55.7v-4.5l3.6-0.4c1-0.1,1.1-0.6,1.1-1.4V32.6c0-4.3-0.5-7.9-5.1-7.9c-3.6,0-7.4,2-9.8,3.7v20.7   c0,1.2,0.1,1.3,1.1,1.4l3.8,0.5v4.6h-17.7V51l3.4-0.4c1-0.1,1.1-0.4,1.1-1.4V26c0-0.8-0.2-1.3-0.9-1.5l-3.9-1.4l0.7-4.6h10.6l0.6,4   l0.3,0.1c4-2.7,8.2-4.8,13.3-4.8c7.7,0,10.6,4.9,10.6,13.1v18.2c0,1.2,0.1,1.3,1.1,1.4l3.9,0.5v4.6H207.2z"
   id="path2"
   style="fill:#d9d9d6;fill-opacity:1" />
	<path
   class="st0"
   d="M228.2,55.7v-4.5l4.3-0.6c1-0.1,1.1-0.4,1.1-1.4V26c0-0.8-0.2-1.3-0.9-1.5l-3.9-1.4l0.7-4.6h12.4v30.6   c0,1.2,0.1,1.3,1.1,1.4l4.2,0.5v4.6L228.2,55.7z M236.9,11.5c-3.4,0-5.4-1.9-5.4-5.4s1.9-5.2,5.4-5.2s5.4,1.9,5.4,5.2   S240.2,11.5,236.9,11.5z"
   id="path3"
   style="fill:#d9d9d6;fill-opacity:1" />
	<path
   class="st0"
   d="M263.6,55.7l-11.8-30.5c-0.3-0.9-0.6-1-1.5-1.2l-3-0.6l0.9-4.7h16.8v4.7l-4.8,0.6l8.8,23.9h0.3l8.9-23.9   l-4.7-0.6l0.8-4.7h14.7v4.7l-2.4,0.4c-0.9,0.1-1.4,0.3-1.8,1.2l-11.7,30.7H263.6z"
   id="path4"
   style="fill:#d9d9d6;fill-opacity:1" />
	<path
   class="st0"
   d="M321.7,53.2c-4.2,2.2-8.9,3.4-13.7,3.4c-13.3,0-17.6-8.5-17.6-19.6c0-13,7.5-19.1,16.8-19.1   c9,0,15.1,4.8,15.1,17.3c0,0.9-0.1,2.8-0.2,4.2h-23c0.4,6.7,2.9,10.6,9.9,10.6c3.5,0,6.2-0.7,10.5-2.5L321.7,53.2z M314.2,33.3   c0-7-3.2-9.3-7.1-9.3c-4.1,0-7.6,2.7-7.9,9.3H314.2z"
   id="path5"
   style="fill:#d9d9d6;fill-opacity:1" />
	<path
   class="st0"
   d="M327.4,55.7V51l3.4-0.4c1-0.1,1.1-0.4,1.1-1.4V26c0.1-0.7-0.3-1.3-0.9-1.5l-3.9-1.4l0.7-4.6h10.6l0.8,5.2   l0.2,0.1c2.4-3.1,5.7-6,10.5-6c1.9,0,3.7,0.2,5.6,0.6v11.7l-6.4-0.2l-0.9-4.5c-0.1-0.6-0.2-0.8-0.9-0.8c-2.7,0-5.8,2.4-7.2,3.7   v20.6c0,1.2,0.1,1.4,1.2,1.4l6.7,0.6v4.6H327.4z"
   id="path6"
   style="fill:#d9d9d6;fill-opacity:1" />
	<path
   class="st0"
   d="M380.6,29.2l-0.8-4.2c0-0.5-0.3-0.9-0.8-1c-1.7-0.5-3.4-0.7-5.1-0.7c-4.6,0-6.8,1.6-6.8,4.5   c0,3.8,4,4.7,8.5,5.8c5.6,1.4,12,3.1,12,11.3c0,8.5-7,11.6-15.1,11.6c-6.1,0-12.1-1.7-13.4-2.5v-9.8l5.9,0.4l0.7,4.4   c0.1,0.6,0.2,0.8,0.9,1c2.1,0.7,4.3,1,6.5,1c4.4,0,7.1-1.3,7.1-5c0-4-4.6-4.7-9.4-5.8c-5.4-1.2-11.1-3-11.1-10.6   c0-8.7,7.2-11.9,14.9-11.9c4.1,0,8.1,0.7,12,2.1v9.7L380.6,29.2z"
   id="path7"
   style="fill:#d9d9d6;fill-opacity:1" />
	<path
   class="st0"
   d="M391.6,55.7v-4.5l4.3-0.6c1-0.1,1.1-0.4,1.1-1.4V26c0-0.8-0.2-1.3-0.9-1.5l-3.9-1.4l0.7-4.6h12.4v30.6   c0,1.2,0.1,1.3,1.1,1.4l4.2,0.5v4.6L391.6,55.7z M400.2,11.5c-3.4,0-5.4-1.9-5.4-5.4s1.9-5.2,5.4-5.2s5.4,1.9,5.4,5.2   S403.6,11.5,400.2,11.5z"
   id="path8"
   style="fill:#d9d9d6;fill-opacity:1" />
	<path
   class="st0"
   d="M440.1,54c-3.3,1.6-6.9,2.4-10.6,2.5c-7.5,0-10.6-3.3-10.6-10.4v-21c0-0.4,0-0.7-0.6-0.7h-5.1v-5.1   c5.6-0.7,7.8-4.5,8.7-10.8h5.2v9.3c0,0.5,0,0.7,0.6,0.7H438v5.9h-10.9V44c0,4.5,1.1,6.1,5.1,6.1c2.1-0.1,4.2-0.5,6.2-1.2L440.1,54z   "
   id="path9"
   style="fill:#d9d9d6;fill-opacity:1" />
	<path
   class="st0"
   d="M467.5,55.7l-0.7-4.2l-0.2-0.1c-3.3,3.4-7.9,5.3-12.6,5.2c-9,0-10.2-6.2-10.2-10.2c0-7.2,4.4-10.6,13.1-11.4   l9.1-0.7v-3.7c0-4.5-0.8-7-6.3-7c-3.9,0-6.6,0.3-6.6,5.2l-7.7-0.7c0-9.2,8.4-10.4,14.4-10.4c10.3,0,14.2,3,14.2,12.9v18.5   c0,1.2,0.1,1.3,1.1,1.4l3.5,0.5v4.6H467.5z M463.5,15.2L450.9,4.8l4.9-4.8l11,12.1L463.5,15.2z M466,39.5l-6.8,0.6   c-5.4,0.5-7,2-7,5.5s1.6,4.6,4.6,4.6c3.5,0,7.1-2.2,9.2-4.3L466,39.5z"
   id="path10"
   style="fill:#d9d9d6;fill-opacity:1" />
	<path
   class="st0"
   d="M158.7,120.2l-0.7-4.2l-0.4-0.1c-3.3,3.4-7.9,5.3-12.7,5.1c-8.6,0-14.2-5.3-14.2-18.6c0-14.2,7-19.8,15.6-19.8   c3.9-0.1,7.8,1,11,3.2V73.6c0.1-0.7-0.3-1.3-1-1.4l-4.2-1.4l0.7-4.6h12.9v47.4c0,1.1,0.1,1.3,1.2,1.4l3.6,0.5v4.6L158.7,120.2z    M157.1,92.5c-2.4-2-5.5-3.3-8.6-3.4c-6.4,0-8.9,5.4-8.9,13.1c0,8.8,2.8,12.1,7.8,12.1c3.6,0,7.2-2.1,9.8-4.8V92.5z"
   id="path11"
   style="fill:#d9d9d6;fill-opacity:1" />
	<path
   class="st0"
   d="M174.1,120.2v-4.5l4.5-0.6c1-0.2,1.2-0.4,1.2-1.4v-23c0-0.8-0.2-1.3-1-1.5l-4.1-1.4l0.8-4.6h12.9v30.4   c0,1.1,0.1,1.3,1.2,1.4l4.4,0.5v4.6L174.1,120.2z M183.1,76.2c-3.6,0-5.6-1.9-5.6-5.4s2-5.2,5.6-5.2s5.6,1.9,5.6,5.2   S186.6,76.2,183.1,76.2L183.1,76.2z"
   id="path12"
   style="fill:#d9d9d6;fill-opacity:1" />
	<path
   class="st0"
   d="M261.9,101.2c-0.9,0.1-1.2,0.3-1.2,1v15.3c-5.7,2.6-13.1,3.4-19.3,3.4c-20.3,0-27.3-11.5-27.3-26.8   s9.2-26.6,27.9-26.6c5.4,0,12.3,1.3,16.8,4.1v13.5l-8.3-0.6l-1.1-6.4c-0.2-1-0.5-1.3-1.2-1.4c-2.2-0.6-4.5-0.9-6.9-0.9   c-9.6,0-15.3,7-15.3,18.2c0,11.8,5.2,18.8,15.9,18.8c2.1,0,4.1-0.2,6.2-0.5c0.8-0.1,1.2-0.3,1.2-1.3v-9.3H241l1-6.4h23v5.7   L261.9,101.2z"
   id="path13"
   style="fill:#d9d9d6;fill-opacity:1" />
	<path
   class="st0"
   d="M302.2,117.4c-4.8,2.3-10,3.6-15.3,3.6c-14.4,0-19.3-8.6-19.3-19.7c0-12.9,8.3-19.1,18.5-19.1   c9.8,0,16.4,4.9,16.4,17.3c0,0.9-0.1,3.4-0.1,4.8h-22.8c0.4,5.1,2.7,8.4,8.8,8.4c2.9,0,6-0.6,11.1-2.4L302.2,117.4z M291.5,97.5   c-0.1-6-2.5-7.6-5.6-7.6s-5.8,1.7-6.2,7.6H291.5z"
   id="path14"
   style="fill:#d9d9d6;fill-opacity:1" />
	<path
   class="st0"
   d="M334.1,120.2V97.1c0-3.4-0.2-6.3-4-6.3c-2.8,0.2-5.4,1.1-7.7,2.6v19.1c0,1.1,0.1,1.3,1.2,1.4l3.6,0.5v5.6   h-20.6v-5.7l3.3-0.4c1-0.2,1.2-0.4,1.2-1.4v-21c0-0.8-0.2-1.3-1-1.5l-4-1.4l0.9-5.8h13l0.6,3.7l0.3,0.2c3.8-2.9,8.4-4.5,13.1-4.6   c8.1,0,11.2,4.3,11.2,12.1v18.2c0,1.1,0.1,1.3,1.2,1.4l3.7,0.5v5.6L334.1,120.2z"
   id="path15"
   style="fill:#d9d9d6;fill-opacity:1" />
	<path
   class="st0"
   d="M353.2,101.8c0-11.8,6.5-19.6,20.1-19.6s19.1,7.8,19.1,18.8c0,12.1-6.4,20-20.1,20S353.2,113,353.2,101.8z    M380.7,101.4c0-8.4-2.7-11.4-7.5-11.4s-8.2,2.9-8.2,11.5s2.9,12.1,7.9,12.1C377.7,113.5,380.7,110.3,380.7,101.4z"
   id="path16"
   style="fill:#d9d9d6;fill-opacity:1" />
	<path
   class="st0"
   d="M409.7,120.2l-11.8-29.6c-0.4-0.9-0.7-1-1.6-1.2l-3.1-0.7l1.2-5.7h20.2v5.8l-4.8,0.6l7.6,20.3h0.5l7.9-20.3   l-4.8-0.6l1-5.7h17.2v5.8l-2.7,0.4c-1,0.2-1.5,0.4-1.9,1.2l-11.9,29.8L409.7,120.2z"
   id="path17"
   style="fill:#d9d9d6;fill-opacity:1" />
	<path
   class="st0"
   d="M464.8,120.2l-0.8-3.9l-0.4-0.1c-3.4,3.2-7.9,4.9-12.5,4.8c-9.4,0-10.9-6.1-10.9-10.6c0-7.1,4.6-10.4,13.9-11   l8.6-0.6v-3.9c0-3.3-0.4-5.6-5-5.6c-3.6,0-5.4,0.5-5.4,4.8l-10.5-0.9c0-9.6,9.2-11,16-11c11.3,0,15.9,2.9,15.9,12.9v17.3   c0,1.1,0.1,1.3,1.2,1.4l3.6,0.6v5.6L464.8,120.2z M462.8,104.8l-5.1,0.3c-4.4,0.3-6,1.4-6,4.2s1.8,3.9,4.2,3.9   c2.5-0.2,4.8-1.1,6.8-2.6L462.8,104.8z"
   id="path18"
   style="fill:#d9d9d6;fill-opacity:1" />
	<rect
   x="0.80000001"
   y="3.7"
   class="st1"
   width="93.400002"
   height="30.1"
   id="rect18"
   style="display:inline;fill:#d9d9d6;fill-opacity:0" />
	<rect
   x="52.7"
   y="4.2"
   class="st0"
   width="41.5"
   height="9.3"
   id="rect19"
   style="fill:#d9d9d6;fill-opacity:1" />
	<polygon
   class="st0"
   points="0.8,33.8 42.2,33.8 42.2,24 0.8,24 0.8,13.5 42.2,13.5 42.2,4.2 0.8,4.2  "
   id="polygon19"
   style="fill:#d9d9d6;fill-opacity:1" />
	<polygon
   class="st0"
   points="52.7,24 52.7,33.8 94.2,33.8 94.2,13.5 94.2,24  "
   id="polygon20"
   style="fill:#d9d9d6;fill-opacity:1" />
	<rect
   x="42.2"
   y="3.7"
   class="st2"
   width="10.5"
   height="0.5"
   id="rect20"
   style="fill:#d9d9d6;fill-opacity:1" />
	<path
   class="st1"
   d="M 94.2,34.5 V 33.8 H 0.8 v 0.7 1.9 2.9 3.6 L 0.9,47 1,51.4 1.2,55.8 1.6,60 2,63.8 l 0.5,3.4 0.6,3 0.9,2.8 0.8,2.5 0.9,2.4 0.9,2.2 1,2.2 1,2.1 1.1,2.1 1.2,2.1 1.3,2.2 1.4,2.2 1.6,2.2 1.8,2.2 2,2.3 2.1,2.3 2.5,2.4 2.8,2.4 3.2,2.4 3.7,2.4 4.2,2.4 4.7,2.4 5.3,2.4 5.3,-2.4 4.7,-2.4 4.2,-2.4 3.7,-2.4 3.2,-2.4 2.8,-2.4 2.5,-2.4 2.2,-2.3 2,-2.3 1.8,-2.2 1.5,-2.2 1.4,-2.2 1.3,-2.2 1.2,-2.1 1.1,-2.1 1,-2.1 1,-2.2 1,-2.2 0.9,-2.4 0.7,-2.5 0.7,-2.8 0.7,-3 L 93,63.8 93.4,60 93.7,55.8 93.9,51.4 94,47 94.1,42.9 V 39.3 Z M 47.5,108.2 C 28,108.2 12.1,92.4 12.1,72.8 c 0,-19.6 15.8,-35.4 35.4,-35.4 19.5,0 35.4,15.8 35.4,35.4 0,0 0,0 0,0 -0.1,19.6 -15.9,35.4 -35.4,35.4 z"
   id="path20"
   style="display:inline;fill:#d9d9d6;fill-opacity:0" />
	<path
   class="st0"
   d="m 47.2,120.1 -5.6,-2.5 -4.8,-2.4 -4.2,-2.5 -3.7,-2.5 -3.2,-2.5 -2.8,-2.4 -2.5,-2.4 -2.2,-2.4 -2,-2.3 L 14.4,95.9 12.8,93.7 11.4,91.5 10.1,89.3 9,87.2 7.8,85 5.8,80.7 4.8,78.5 4,76.1 3.2,73.5 2.4,70.7 1.7,67.6 1.1,64.2 0.6,60.4 0.3,56.2 0.1,51.8 0,47.4 -0.1,39.7 V 36.8 3.3 L 94.6,3.1 v 33.6 6.5 l -0.1,4.1 -0.1,4.4 -0.2,4.4 -0.3,4.2 -0.4,3.8 -0.6,3.4 -0.7,3.1 -0.8,2.8 -0.8,2.6 -0.9,2.4 -1,2.3 -1,2.2 -1,2.2 -1.1,2.2 -1.2,2.2 -1.3,2.2 -1.4,2.2 -1.6,2.2 -1.8,2.3 -2,2.3 -2.2,2.4 -2.5,2.4 -2.8,2.4 -3.2,2.5 -3.7,2.5 -4.2,2.5 -4.7,2.5 z M 1.6,5.1 v 31.7 6.5 l 0.1,4.1 0.1,4.4 0.2,4.4 0.3,4.2 0.6,3.6 0.5,3.3 0.6,3 0.8,2.7 0.8,2.5 0.9,2.3 0.9,2.2 2,4.2 1.1,2.1 1.2,2.1 1.3,2.1 1.4,2.1 1.6,2.2 1.7,2.2 1.9,2.2 2.2,2.3 2.4,2.4 2.8,2.4 3.2,2.4 3.6,2.4 4.1,2.4 4.7,2.4 4.8,2.2 4.9,-2.2 4.7,-2.4 4.1,-2.4 3.6,-2.4 3.2,-2.4 2.8,-2.4 2.4,-2.3 2.2,-2.3 1.9,-2.3 1.7,-2.2 1.6,-2.2 1.4,-2.1 1.3,-2.1 1.1,-2.1 1.1,-2.1 2,-4.2 0.9,-2.2 0.9,-2.3 0.8,-2.5 0.7,-2.7 0.6,-3 0.6,-3.3 0.4,-3.7 0.3,-4.1 0.2,-4.4 0.1,-4.4 0.1,-7.7 V 4.9 Z"
   id="path21"
   style="display:inline;fill:#d9d9d6;fill-opacity:1" />
	<polygon
   class="st0"
   points="51.5,71.2 55.3,72.2 54.1,76.4 53.6,76.3 52.8,76.3 52.4,76.4 52.2,76.4 52,76.3 51.8,76.3 51.6,76.3    51.5,76.2 51.4,76.2 51.2,76.2 51.1,76.4 51.1,76.6 51.2,76.8 51.2,76.8 51.3,76.9 51.4,77 51.5,77.1 51.9,77.3 51.9,77.3    51.9,77.3 51.6,77.4 51.2,77.4 50.8,77.4 50.4,77.5 50,77.5 49.6,77.4  "
   id="polygon21"
   style="fill:#d9d9d6;fill-opacity:1" />
	<polygon
   class="st0"
   points="49.5,78.2 49.5,78.1 49.6,78 49.7,77.9 49.8,77.8 50,77.7 50.3,77.7 50.5,77.7 50.8,77.6 51.2,77.6    51.6,77.6 51.9,77.6 52,77.5 52.1,77.5 52.2,77.5 52.2,77.4 52.2,77.4 52.2,77.3 52.2,77.3 52.1,77.2 52,77.2 51.7,76.9 51.5,76.9    51.5,76.8 51.4,76.7 51.4,76.7 51.3,76.6 51.3,76.5 51.4,76.4 51.4,76.4 51.5,76.4 51.6,76.5 51.8,76.5 51.9,76.6 52.1,76.6    52.4,76.6 52.8,76.5 53.6,76.5 53.8,76.6 53.9,76.6 54.1,78.7 54,78.9 53.8,79 53.6,79.1 53.3,79.2 53,79.3 52.8,79.4 52.4,79.6    52.1,79.7 51.7,79.8 51.3,79.8 51,79.8 50.6,79.8 50.2,79.7 49.9,79.5 49.8,79.3 49.6,79 49.6,78.8 49.5,78.5 49.5,78.3  "
   id="polygon22"
   style="fill:#d9d9d6;fill-opacity:1" />
	<polygon
   class="st1"
   points="44.3,54.6 44.6,54.9 44.9,55.1 45.3,55.2 45.3,55.4 45.3,55.5 45.3,55.6 45.4,55.7 45.5,55.7    45.8,55.6 46.4,55.6 47.3,55.5 48.2,55.5 49.1,55.5 49.7,55.6 50.4,55.7 50.9,55.7 51,55.7 51.1,55.6 51.2,55.4 51.2,55.3    51.2,55.2 51.2,55.2 51.4,55.1 51.6,55.1 51.8,54.9 52,54.8 52.2,54.5 52.3,54.3 52.3,53.9 52.3,53.7 52.2,53.4 52.1,53.1    51.9,52.9 51.5,52.7 51.3,52.7 50.9,52.6 50.6,52.6 50.3,52.5 50.1,52.4 49.8,52.2 49.4,51.8 49.4,51.7 49.2,51.5 49,51.3    48.8,51.2 48.5,51.1 48.2,51 47.8,51.1 47.6,51.2 47.3,51.4 47.3,51.5 47.1,51.7 46.9,52 46.7,52.2 46.4,52.3 46.1,52.5 45.7,52.6    45.3,52.6 45,52.7 44.8,52.8 44.5,52.9 44.3,53.2 44.2,53.4 44.1,53.7 44.1,54.2  "
   id="polygon23"
   style="fill:#d9d9d6;fill-opacity:0" />
	<path
   class="st1"
   d="M 58,99.2 57.7,97.8 57.3,96 57,94.4 56.8,90.6 56.7,87.1 56.6,84.2 v -1.9 -0.7 l -0.2,0.2 -0.5,0.6 -0.5,0.4 -0.6,0.6 -0.6,-6.9 0.3,-0.8 0.7,6.7 0.7,-0.8 1,-1.2 0.6,-0.7 0.5,-0.7 0.3,-0.7 0.4,-1.2 0.3,-0.9 0.2,-0.8 v -0.7 l -0.2,-1.6 -0.5,-1.3 -0.9,-2.2 -0.9,-2 -0.2,-0.3 -1.3,-1.6 -1,-1.2 c 0.1,0 0.1,-0.1 0.1,-0.2 0.1,-0.1 0.1,-0.3 0,-0.4 l -0.4,-0.7 -0.8,-1.1 -0.3,-0.3 -0.2,-0.1 -0.2,-0.1 h -0.5 v 0 L 51.7,61.4 51.6,61.2 51.5,61 51.4,60.7 V 60.3 60.1 59.9 59.7 59.2 58.9 L 51.3,58.4 51.1,57.4 51,56.2 V 55.9 L 50.2,55.8 49,55.7 h -1.1 -0.5 -0.6 l -0.7,0.1 -0.7,0.1 -0.2,0.5 -0.2,0.7 -0.1,0.7 v 0.7 0.5 l -0.1,0.8 -0.2,0.9 -0.2,0.7 -0.3,0.6 -0.2,0.3 -0.3,0.5 -0.6,0.1 -0.6,0.5 -2.1,2.6 c -0.1,0.2 -0.1,0.4 0,0.6 v 0 l -0.2,0.2 -0.2,0.4 -0.2,0.3 -0.2,0.5 -0.2,0.6 -0.4,1.2 -0.3,1.2 -0.5,1.4 -0.3,0.5 -0.5,0.8 -0.6,0.9 -0.5,0.7 -0.4,0.7 -0.3,0.5 -0.3,0.7 -0.1,0.3 v 0.3 0.1 L 34.6,77.8 34.2,77.7 H 34 33.8 33.7 l -0.2,0.1 -0.1,0.2 v 0.2 0 l -0.3,0.1 -0.4,0.2 -0.4,0.3 -0.2,0.3 -0.1,0.2 v 0.1 0.2 0.2 l 0.1,0.2 v 0.2 l 0.1,0.2 0.3,0.4 0.4,0.3 0.2,0.2 0.2,0.1 0.3,0.1 h 0.2 0.2 l 0.9,-0.4 0.6,-0.2 h 0.5 0.3 v 0.1 0.3 l 0.1,0.5 v 0.4 l 0.1,0.4 0.1,0.5 v 0.1 l 0.1,0.2 0.1,0.1 0.1,0.1 h 0.1 0.2 0.1 l 0.2,-0.1 0.1,-0.1 0.1,-0.1 0.1,-0.1 0.2,-0.2 0.2,-0.3 0.2,-0.4 0.3,-0.5 0.2,-0.4 0.5,-1.1 0.3,-1 0.4,-1.2 0.2,-1.7 0.3,-2.3 0.2,-1.4 0.4,-2.6 0.4,0.2 -0.4,2.9 -0.4,3.2 -0.4,3.4 -0.3,3.4 -0.5,5 -0.5,3.8 -0.4,2.2 -0.5,2.1 -0.6,2.2 -0.3,1.6 -0.3,2 -0.2,1.4 -0.2,1.4 23,0.2 -1,-4.1 z M 35.5,80.6 35,80.7 34.1,81.1 H 33.9 33.7 L 33.5,81 H 33.4 L 33,80.7 32.7,80.3 32.5,79.9 v -0.2 -0.1 l 0.3,-0.4 0.3,-0.3 0.5,-0.2 0.5,-0.1 L 34,78.3 V 78.1 78 l 0.2,-0.1 0.8,0.1 0.2,0.5 0.4,1 0.2,0.5 0.1,0.4 z m 10.3,-23 v -0.3 l 0.1,-0.2 0.1,-0.2 0.1,-0.1 0.1,-0.1 0.1,-0.1 0.1,-0.1 0.1,-0.1 0.1,-0.1 h 0.1 0.1 0.2 0.4 0.4 0.7 0.3 0.5 0.2 0.2 l 0.2,0.1 0.1,0.1 0.1,0.1 0.1,0.2 0.1,0.3 0.1,0.3 v 0.4 0.5 l -0.2,0.7 -0.4,1.5 -0.2,0.5 -0.1,0.5 v 0.3 0.2 0.2 0.1 l -0.4,0.1 -1.9,0.2 h -1.1 l 0.2,-0.4 v -0.3 -0.5 -0.2 c 0,0 0,0.1 0,0.1 l 0.3,0.2 v 0 l 0.4,0.2 0.5,0.1 h 0.3 l 0.3,-0.1 0.2,-0.1 0.6,-0.3 0.3,-0.2 c 0.1,-0.1 0.1,-0.2 0.1,-0.3 -0.1,-0.1 -0.2,-0.1 -0.3,-0.1 0,0 0,0 0,0 l -0.2,0.3 -0.3,0.2 -0.2,0.1 -0.4,0.1 H 47.6 47.4 47.3 L 47,61.2 46.7,61 c -0.1,-0.1 -0.2,-0.1 -0.3,0 0,0 0,0.1 0,0.1 V 61 L 46.3,60.6 46.1,60.2 46,59.8 45.9,59.3 45.8,58.8 v -0.4 -0.5 z m 3.6,7.3 -2.4,0.4 h -1 l -2.7,-0.1 h -0.6 l -0.9,0.1 0.3,-0.4 0.9,-0.9 0.3,-0.2 2.6,-0.3 h 1.5 l 1.2,-0.1 1.3,-0.2 0.7,-0.2 1.3,-0.4 h 0.3 0.1 l 0.6,0.7 0.4,0.7 z"
   id="path23"
   style="display:inline;fill:#d9d9d6;fill-opacity:0" />
	<polygon
   class="st0"
   points="52.2,62.6 52.1,62.5 52.1,62.5 52,62.5 51.8,62.5 50.5,62.9 49.8,63.2 48.6,63.4 47.4,63.5 45.9,63.4    43.3,63.7 43,64 42.2,64.9 41.9,65.3 42.7,65.3 43.3,65.3 46.1,65.3 47,65.3 49.4,64.9 53.2,63.9 52.8,63.3  "
   id="polygon24"
   style="fill:#d9d9d6;fill-opacity:1" />
	<path
   class="st0"
   d="M45.8,58.8l0.1,0.5l0.1,0.5l0.1,0.3l0.2,0.4l0.1,0.4v0.2c0,0,0-0.1,0-0.1c0.1-0.1,0.2-0.1,0.3,0l0.3,0.2   l0.2,0.1h0.1h0.2h0.3l0.4-0.1l0.2-0.1l0.3-0.2l0.3-0.2c0.1-0.1,0.2,0,0.3,0.1c0,0,0,0,0,0c0.1,0.1,0,0.2-0.1,0.3l-0.3,0.2l-0.6,0.3   l-0.2,0.1l-0.3,0.1h-0.3l-0.5-0.1l-0.4-0.2h0l-0.3-0.2c0,0,0-0.1,0-0.1v0.2v0.5v0.3l-0.2,0.4h1.2l1.9-0.2l0.4-0.1v-0.1v-0.2v-0.3   v-0.3l0.1-0.5l0.2-0.5l0.4-1.5l0.1-0.6v-0.5v-0.4l-0.1-0.3l-0.1-0.3L50,56.7l-0.1-0.1l-0.1-0.1l-0.2-0.1h-0.2h-0.2h-0.5h-0.3h-0.7   h-0.4h-0.4h-0.2h-0.1h-0.1l-0.1,0.1l-0.1,0.1l-0.1,0.1l-0.1,0.1L46,56.8l-0.1,0.1l-0.1,0.2l-0.1,0.2v0.3v0.2v0.5L45.8,58.8z"
   id="path24"
   style="fill:#d9d9d6;fill-opacity:1" />
	<path
   class="st0"
   d="m 47.5,39.5 c -19,0 -34.3,15.4 -34.3,34.3 0,19 15.4,34.3 34.3,34.3 18.9,0 34.3,-15.4 34.3,-34.3 0,0 0,0 0,0 0.1,-19 -15.3,-34.3 -34.3,-34.3 z m -3.3,14 0.1,-0.2 0.2,-0.2 0.2,-0.2 0.3,-0.1 h 0.2 0.4 l 0.4,-0.1 0.3,-0.2 0.3,-0.2 0.2,-0.2 0.2,-0.2 0.2,-0.3 0.1,-0.1 0.3,-0.2 0.2,-0.1 0.4,-0.1 h 0.3 l 0.3,0.1 0.2,0.2 0.2,0.2 0.1,0.2 v 0.1 l 0.4,0.4 0.3,0.2 0.2,0.1 0.2,0.1 0.3,0.1 h 0.4 l 0.2,0.1 0.4,0.2 0.2,0.2 0.2,0.3 0.1,0.2 v 0.2 0.3 l -0.1,0.3 -0.1,0.2 -0.2,0.2 -0.2,0.1 -0.2,0.1 h -0.2 v 0 0.1 0.1 0.2 l -0.1,0.1 H 51 50.4 l -0.7,-0.1 h -0.6 -1.9 l -0.8,0.1 h -0.7 l -0.3,0.1 h -0.1 v 0 -0.1 -0.1 -0.2 L 45,55.1 44.7,54.9 44.4,54.6 44.2,54.2 v -0.4 z m -7.7,51.4 0.2,-1.4 0.2,-1.4 0.3,-2 0.3,-1.6 0.6,-2.2 0.5,-2.1 0.4,-2.2 0.5,-3.2 0.5,-5 0.3,-3.4 0.4,-3.4 0.4,-3.2 0.4,-2.9 -0.4,-0.2 -0.4,2.6 -0.2,1.4 -0.3,2.3 -0.2,1.7 -0.4,1.2 -0.3,1 -0.5,1 -0.2,0.4 -0.3,0.5 -0.2,0.4 -0.2,0.3 -0.2,0.2 -0.1,0.1 -0.1,0.1 -0.1,0.1 -0.2,0.1 H 37.1 36.9 37 L 36.9,84 36.8,83.9 36.7,83.7 V 83.6 L 36.6,83.1 36.5,82.7 V 82.3 L 36.4,81.8 V 81.5 81 H 36.1 35.6 L 35,81.2 34.1,81.6 H 33.9 33.7 L 33.4,81.5 33.2,81.4 33,81.2 32.6,80.9 32.3,80.5 32.2,80.3 v -0.2 l -0.1,-0.2 v -0.2 -0.2 -0.1 l 0.1,-0.2 0.2,-0.3 0.4,-0.3 0.4,-0.2 0.3,-0.1 v 0 -0.3 l 0.1,-0.2 0.2,-0.1 h 0.1 0.2 0.2 l 0.4,0.1 0.5,0.1 v -0.1 -0.3 l 0.1,-0.3 0.3,-0.7 0.3,-0.5 0.4,-0.7 0.5,-0.7 0.6,-0.9 0.5,-0.8 0.3,-0.5 0.5,-1.5 0.4,-1.1 0.4,-1.2 0.2,-0.6 0.2,-0.5 0.2,-0.3 0.2,-0.4 0.2,-0.2 v 0 c -0.1,-0.2 -0.1,-0.4 0,-0.6 l 2.1,-2.7 0.6,-0.5 0.6,-0.2 0.3,-0.5 0.2,-0.3 0.3,-0.6 0.2,-0.7 0.2,-0.9 0.1,-0.8 v -0.5 -0.7 l 0.1,-0.7 0.3,-0.8 0.2,-0.5 0.7,-0.1 0.7,-0.1 h 0.6 0.3 1.1 l 1.1,0.1 0.8,0.1 v 0.3 l 0.2,1 0.2,1 0.1,0.5 v 0.3 0.5 0.2 0.2 0.2 0.4 l 0.1,0.3 0.1,0.2 0.1,0.2 0.2,0.2 v 0 l 0.5,0.1 0.2,0.1 0.2,0.1 0.3,0.3 0.8,1.1 0.4,0.7 c 0.1,0.1 0.1,0.3 0,0.4 0,0.1 -0.1,0.1 -0.1,0.2 l 1,1.2 1.3,1.6 0.2,0.3 0.9,2 0.9,2.2 0.5,1.2 0.2,1.6 v 0.7 l -0.3,1.3 -0.3,0.9 -0.4,1.2 -0.3,0.6 -0.6,0.8 -0.6,0.7 -1,1.2 -0.7,0.8 -0.7,-6.7 -0.3,0.8 0.6,6.9 0.6,-0.6 0.5,-0.4 0.5,-0.6 0.2,-0.2 v 0.7 1.9 l 0.1,2.9 0.1,3.5 0.2,3.8 0.3,1.6 0.4,1.8 0.3,1.4 0.4,1.8 1,4.1 z"
   id="path25"
   style="display:inline;fill:#d9d9d6;fill-opacity:1" />
	<polygon
   class="st0"
   points="35.4,79.7 35,78.7 34.9,78.2 34.1,78 33.9,78.1 33.9,78.2 33.9,78.3 34,78.6 33.5,78.7 33,78.9    32.7,79.2 32.4,79.6 32.4,79.6 32.4,79.7 32.5,79.8 32.7,80.3 33,80.7 33.3,80.9 33.5,81 33.7,81.1 33.9,81.1 34.1,81.1 35,80.7    35.5,80.6 35.8,80.5 35.7,80.2  "
   id="polygon25"
   style="fill:#d9d9d6;fill-opacity:1" />
</g>
</svg>
