<svg xmlns="http://www.w3.org/2000/svg" viewBox="0 0 478.8 121"><title>logo_orizzontale_BLACK</title><g id="Layer_2" data-name="Layer 2"><path d="M167.47,10.2c0-1.08-.15-1.36-1.15-1.44l-4.49-.5V3.66h19v4.6l-4.78.58C175,9,175,9.12,175,10.2V37.78c0,12.93-7.21,18.75-19.55,18.75-13.63,0-19.2-6.32-19.2-19V10.2c0-1.08-.14-1.36-1.14-1.44l-4.5-.5V3.66h19.91v4.6l-4.78.58c-1.07.14-1.14.28-1.14,1.36V36.35c0,9.12,3.14,13.22,11.27,13.22s11.64-3.38,11.64-13Z"/><path d="M207.28,55.67V51.15l3.57-.44c1-.14,1.14-.57,1.14-1.43V32.61c0-4.31-.5-7.9-5.06-7.9-3.64,0-7.43,2-9.78,3.74V49.13c0,1.15.07,1.3,1.14,1.44l3.78.5v4.6H184.38V51l3.42-.43c1-.14,1.14-.36,1.14-1.44V26c0-.79-.21-1.29-.92-1.5l-3.93-1.37.71-4.6h10.57l.57,3.95.28.08c4-2.73,8.21-4.75,13.35-4.75,7.7,0,10.63,4.89,10.63,13.15V49.13c0,1.15.07,1.3,1.14,1.44l3.92.5v4.6Z"/><path d="M228.33,55.67V51.15l4.28-.58c1-.14,1.15-.36,1.15-1.44V26c0-.79-.22-1.29-.93-1.5l-3.93-1.37.72-4.6H242v30.6c0,1.15.07,1.3,1.14,1.44l4.21.5v4.6ZM237,11.49c-3.43,0-5.36-1.94-5.36-5.38S233.54.86,237,.86s5.35,1.87,5.35,5.25S240.32,11.49,237,11.49Z"/><path d="M263.73,55.67,252,25.14c-.28-.86-.64-1-1.5-1.22l-3-.65.92-4.74h16.85v4.74l-4.79.58,8.78,23.92h.29l8.84-23.92-4.7-.58.78-4.74h14.7v4.74l-2.43.44c-.92.14-1.42.28-1.78,1.22l-11.7,30.74Z"/><path d="M321.81,53.16a29.73,29.73,0,0,1-13.7,3.37c-13.27,0-17.62-8.55-17.62-19.61,0-13,7.49-19.11,16.84-19.11,9,0,15.12,4.82,15.12,17.32,0,.93-.07,2.8-.21,4.16H299.19c.36,6.68,2.93,10.63,9.85,10.63,3.5,0,6.21-.71,10.49-2.51Zm-7.56-19.83c0-7-3.21-9.27-7.07-9.27-4.06,0-7.56,2.73-7.92,9.27Z"/><path d="M327.45,55.67V51l3.42-.43c1-.14,1.15-.36,1.15-1.44V26a1.35,1.35,0,0,0-.93-1.5l-3.93-1.37.72-4.6h10.63l.78,5.25.22.07c2.35-3.09,5.71-6,10.49-6a26.18,26.18,0,0,1,5.56.65V30.24L349.14,30l-.85-4.45c-.08-.65-.22-.79-.86-.79-2.71,0-5.78,2.37-7.21,3.74V49.06c0,1.15.14,1.37,1.22,1.44l6.7.57v4.6Z"/><path d="M380.68,29.24l-.78-4.17a1.07,1.07,0,0,0-.79-1,19.23,19.23,0,0,0-5.14-.71c-4.56,0-6.78,1.65-6.78,4.52,0,3.81,4,4.67,8.5,5.75,5.63,1.36,12,3.09,12,11.28,0,8.47-7,11.63-15.12,11.63-6.14,0-12.13-1.65-13.42-2.51V44.25l5.92.36.72,4.38c.14.58.21.79.85,1a21.12,21.12,0,0,0,6.43,1c4.42,0,7.13-1.29,7.13-5,0-4-4.56-4.67-9.35-5.75-5.42-1.22-11.13-2.95-11.13-10.56,0-8.69,7.21-11.93,14.92-11.93a35.9,35.9,0,0,1,12,2.09v9.7Z"/><path d="M391.67,55.67V51.15l4.28-.58c1-.14,1.14-.36,1.14-1.44V26c0-.79-.21-1.29-.92-1.5l-3.93-1.37.71-4.6H405.3v30.6c0,1.15.07,1.3,1.14,1.44l4.21.5v4.6Zm8.63-44.18c-3.42,0-5.35-1.94-5.35-5.38S396.88.86,400.3.86s5.36,1.87,5.36,5.25S403.66,11.49,400.3,11.49Z"/><path d="M440.19,54a26.05,26.05,0,0,1-10.56,2.51c-7.49,0-10.63-3.3-10.63-10.41v-21c0-.43,0-.72-.57-.72h-5.14v-5.1c5.57-.72,7.78-4.52,8.71-10.84h5.21v9.33c0,.51,0,.72.57.72h10.34v5.89H427.21V44c0,4.46,1.14,6.11,5.13,6.11a19.64,19.64,0,0,0,6.21-1.22Z"/><path d="M467.59,55.67l-.71-4.24-.21-.07a17.2,17.2,0,0,1-12.56,5.17c-9,0-10.21-6.17-10.21-10.2,0-7.18,4.43-10.63,13.13-11.35l9.07-.72V30.6c0-4.52-.79-7-6.28-7-3.93,0-6.57.29-6.57,5.25l-7.71-.72c0-9.2,8.35-10.35,14.42-10.35,10.35,0,14.2,3,14.2,12.86V49.13c0,1.15.07,1.3,1.14,1.44l3.5.5v4.6Zm-4-40.51L451,4.81,455.89,0l11,12.07Zm2.5,24.35-6.78.57c-5.36.51-7,2-7,5.46s1.64,4.6,4.57,4.6c3.5,0,7.07-2.16,9.21-4.31Z"/><path d="M158.78,120.15l-.67-4.22-.44-.07A17,17,0,0,1,145,121c-8.57,0-14.23-5.28-14.23-18.63,0-14.21,7-19.85,15.64-19.85a18.9,18.9,0,0,1,11,3.21V73.6a1.27,1.27,0,0,0-1-1.43l-4.24-1.36.74-4.57h12.81v47.41c0,1.14.08,1.28,1.2,1.43l3.64.5v4.57Zm-1.56-27.63a14.68,14.68,0,0,0-8.64-3.43c-6.4,0-8.94,5.43-8.94,13.07,0,8.78,2.76,12.13,7.75,12.13,3.65,0,7.22-2.14,9.83-4.78Z"/><path d="M174.2,120.15v-4.5l4.47-.57c1-.15,1.19-.36,1.19-1.43v-23c0-.79-.22-1.28-1-1.5L174.8,87.8l.74-4.56h12.88v30.41c0,1.14.08,1.28,1.19,1.43l4.4.5v4.57Zm9-43.91c-3.57,0-5.58-1.93-5.58-5.36s2-5.21,5.58-5.21,5.59,1.86,5.59,5.21S186.71,76.24,183.21,76.24Z"/><path d="M262,101.23c-.89.07-1.19.28-1.19,1v15.35c-5.66,2.57-13.11,3.42-19.29,3.42-20.33,0-27.33-11.49-27.33-26.84s9.16-26.63,27.93-26.63c5.36,0,12.29,1.28,16.83,4.14V85.16l-8.27-.57-1.11-6.42c-.23-1-.53-1.29-1.2-1.43a28.71,28.71,0,0,0-6.85-.93c-9.6,0-15.34,7-15.34,18.21,0,11.78,5.21,18.77,15.86,18.77a41.17,41.17,0,0,0,6.19-.5c.81-.14,1.19-.35,1.19-1.28v-9.35h-8.27l1-6.43H265v5.71Z"/><path d="M302.27,117.36A36,36,0,0,1,287,121c-14.38,0-19.29-8.56-19.29-19.7,0-12.92,8.26-19.06,18.47-19.06,9.83,0,16.38,4.92,16.38,17.27,0,.86-.07,3.36-.15,4.79H279.63c.38,5.07,2.68,8.42,8.79,8.42,2.91,0,6-.64,11.1-2.43ZM291.55,97.51C291.47,91.52,289,90,286,90s-5.81,1.71-6.25,7.56Z"/><path d="M334.22,120.15V97.09c0-3.43-.22-6.29-4-6.29a15.44,15.44,0,0,0-7.74,2.64v19.14c0,1.14.07,1.28,1.19,1.43l3.58.5v5.64H306.74v-5.71l3.35-.43c1.05-.15,1.19-.36,1.19-1.43v-21c0-.79-.22-1.29-1-1.5l-4-1.36.9-5.78h13l.6,3.71.29.15a22.4,22.4,0,0,1,13.11-4.57c8.12,0,11.25,4.28,11.25,12.13v18.21c0,1.14.07,1.28,1.19,1.43l3.72.5v5.64Z"/><path d="M353.29,101.8c0-11.85,6.48-19.56,20.11-19.56s19.13,7.85,19.13,18.77c0,12.14-6.4,20-20.1,20S353.29,113,353.29,101.8Zm27.48-.43c0-8.43-2.68-11.42-7.52-11.42s-8.2,2.92-8.2,11.49,2.91,12.07,7.9,12.07S380.77,110.29,380.77,101.37Z"/><path d="M409.81,120.15,398,90.59c-.37-.86-.67-1-1.56-1.21l-3.13-.65L394.47,83h20.18v5.78l-4.76.57,7.59,20.35H418L425.9,89.3l-4.84-.57L422,83h17.2v5.78l-2.68.43c-1,.22-1.49.36-1.86,1.21l-11.84,29.78Z"/><path d="M464.85,120.15l-.75-3.86-.37-.07A17.17,17.17,0,0,1,451.22,121c-9.38,0-10.87-6.14-10.87-10.56,0-7.14,4.62-10.43,13.92-11l8.57-.57V94.94c0-3.35-.37-5.64-5-5.64-3.58,0-5.44.5-5.44,4.79l-10.5-.86c0-9.64,9.16-11,16-11,11.32,0,15.87,2.92,15.87,12.92v17.35c0,1.14.07,1.28,1.19,1.43l3.57.57v5.64Zm-2-15.35-5.07.35c-4.39.29-5.95,1.36-5.95,4.22s1.78,3.92,4.24,3.92a12.5,12.5,0,0,0,6.78-2.57Z"/><rect x="1.09" y="4.4" width="92.86" height="30.73" style="fill:none"/><path d="M47.73,112.32A38.22,38.22,0,1,1,85.94,74.11,38.26,38.26,0,0,1,47.73,112.32Zm0-74.24a36,36,0,1,0,36,36A36.07,36.07,0,0,0,47.73,38.08Z" style="fill:#333"/><g id="LWPOLYLINE"><path d="M47.58,63.29H46.47a.16.16,0,0,1-.16-.16.16.16,0,0,1,.16-.15h1.1l1.11-.06.77-.11.26-.06a.16.16,0,0,1,.19.12.15.15,0,0,1-.12.19l-.27.06-.8.11-.37,0Z"/></g><g id="LWPOLYLINE-2" data-name="LWPOLYLINE"><path d="M34.06,81.87l-.25,0-.3-.1-.2-.1-.22-.14-.36-.35-.32-.45-.09-.16-.11-.35,0-.22,0-.2.16-.3.21-.25L33,78.9l.44-.24.27-.1h0l0-.25.1-.17L34,78l.14,0,.15,0h.15l.39.06.65.12.08.41.12.36.38.93.23.5.38,1-.44,0-.48,0-.6.16-.91.38Zm.08-3.45,0,.07,0,.2.05.22-.49.1-.36.17-.26.19-.18.16-.29.42h0v0l0,.18.21.43.2.27.3.28.32.19.22.07h.16l.23,0,.87-.39.52-.12.34,0-.14-.37L35.65,80l-.39-1-.16-.53-.8-.12Z"/></g><g id="LWPOLYLINE-3" data-name="LWPOLYLINE"><polygon points="52.44 62.29 52.19 62.28 51.94 62.33 51.65 62.37 51.27 62.45 50.96 62.54 50.61 62.68 50.39 62.77 50.24 62.84 50.13 62.88 50.05 62.88 49.98 62.85 49.91 62.79 49.87 62.7 49.81 62.53 49.78 62.28 49.78 62 49.82 61.66 49.91 61.21 50.06 60.71 50.48 59.27 50.58 58.63 50.59 58.18 50.55 57.78 50.49 57.51 50.35 57.2 50.23 57.04 50.09 56.91 49.94 56.82 49.75 56.73 49.59 56.69 49.39 56.66 49.2 56.66 48.92 56.68 48.62 56.71 48.39 56.71 48.16 56.72 47.93 56.72 47.57 56.7 47.36 56.69 47.14 56.7 46.9 56.73 46.8 56.76 46.67 56.81 46.55 56.87 46.47 56.93 46.37 57 46.3 57.08 46.21 57.19 46.15 57.3 46.05 57.5 45.99 57.71 45.95 57.97 45.94 58.19 45.95 58.69 46.01 59.08 46.11 59.58 46.25 60.1 46.35 60.43 46.51 60.87 46.62 61.25 46.69 61.67 46.68 62.16 46.65 62.51 46.38 62.95 46.17 63.11 45.92 63.11 45.66 63.1 45.37 63.1 45.12 63.12 44.6 63.14 44.31 63.18 43.91 63.26 43.46 63.38 43.74 63.1 44.13 62.6 44.31 62.24 44.59 61.61 44.8 60.96 44.99 60.07 45.06 59.31 45.05 58.81 45.07 58.13 45.2 57.44 45.47 56.64 45.67 56.18 46.32 56.11 46.99 56.04 47.64 56.01 48.14 56 49.24 56.01 50.37 56.1 51.15 56.18 51.21 56.49 51.43 57.54 51.66 58.58 51.73 59.11 51.76 59.43 51.77 59.97 51.76 60.17 51.73 60.41 51.71 60.62 51.69 60.81 51.7 61.06 51.75 61.35 51.85 61.61 51.98 61.83 52.18 62.03 52.44 62.29"/></g><g id="LWPOLYLINE-4" data-name="LWPOLYLINE"><path d="M46.47,63.29a.14.14,0,0,1-.12-.06.16.16,0,0,1,0-.22l0,0,.27-.45,0-.37v-.5l-.07-.43-.11-.38-.27-.76-.13-.52-.11-.49,0-.39,0-.49L46,58l0-.25.06-.2.15-.31.15-.17.17-.13.24-.11.09,0,.24,0h.21l.59,0,.68,0,.57,0h.19l.34.07.19.08.13.08.14.13.11.14.15.3.06.26,0,.4v.45l-.09.63-.58,2-.09.46,0,.35v.29l0,.26.06.18.06.09a.17.17,0,0,1-.07.22.16.16,0,0,1-.21-.07l-.07-.12-.07-.24,0-.3V62l0-.37.1-.49.16-.52.41-1.43.09-.59v-.41l0-.35-.06-.22L50,57.37l-.08-.1-.1-.08-.09-.06L49.51,57l-.31,0-1.27.06-.59,0h-.17l-.27.06-.23.11-.11.11-.1.14-.07.17,0,.15-.05.42,0,.45,0,.37.1.47.23.82.16.44.12.41.07.46v.55l0,.41a.14.14,0,0,1,0,.07l-.31.5,0,.05-.07,0A.14.14,0,0,1,46.47,63.29Z"/></g><g id="LWPOLYLINE-5" data-name="LWPOLYLINE"><path d="M47.88,62.08,47.42,62,47,61.81l-.29-.23a.22.22,0,1,1,.29-.33l.31.23.24.11.13,0,.21,0h.26l.43-.12.21-.09.31-.17.31-.21a.22.22,0,0,1,.24.36l-.32.22-.59.3-.26.08-.27.06Z" style="fill:#333"/></g><g id="LWPOLYLINE-6" data-name="LWPOLYLINE"><polygon points="45.47 55.51 45.07 55.4 44.77 55.22 44.51 54.92 44.34 54.5 44.32 54.07 44.41 53.75 44.54 53.51 44.76 53.27 44.97 53.12 45.26 53 45.5 52.96 45.91 52.94 46.29 52.82 46.6 52.67 46.89 52.49 47.12 52.29 47.29 52.07 47.49 51.78 47.55 51.72 47.82 51.53 47.98 51.45 48.37 51.37 48.65 51.39 49 51.51 49.25 51.67 49.42 51.85 49.57 52.07 49.59 52.14 50 52.51 50.33 52.72 50.55 52.82 50.79 52.9 51.11 52.96 51.5 52.98 51.73 53.05 52.08 53.26 52.28 53.47 52.45 53.76 52.52 54.01 52.54 54.26 52.48 54.62 52.36 54.88 52.19 55.11 52.01 55.27 51.79 55.4 51.57 55.47 51.4 55.5 51.38 55.52 51.37 55.62 51.36 55.74 51.31 55.91 51.26 56.02 51.14 56.05 50.58 55.99 49.87 55.9 49.29 55.85 48.36 55.85 47.48 55.84 46.63 55.93 45.97 55.97 45.68 56.03 45.59 56 45.55 55.95 45.52 55.86 45.49 55.74 45.47 55.51"/></g><polygon points="42.42 14.81 0.98 14.81 0.98 25.32 42.42 25.32 42.42 35.14 52.93 35.14 52.93 25.32 94.37 25.32 94.39 14.81 52.93 14.81 52.93 5 42.42 5 42.42 14.81"/><path d="M94.38,34.82v-.68H1V39.6l0,3.61.08,4.12.15,4.38.23,4.4.33,4.19.44,3.79.55,3.39.66,3,.74,2.77L5,75.83l.89,2.35,1,2.23,1,2.16,1,2.13,1.1,2.14L11.12,89l1.3,2.15,1.42,2.17,1.58,2.2,1.76,2.23,2,2.29,2.19,2.34,2.48,2.38,2.81,2.42,3.21,2.44L33.48,112l4.16,2.45,4.71,2.43,5.33,2.41L53,116.92l4.71-2.43L61.87,112l3.65-2.45,3.21-2.44,2.81-2.42L74,102.35,76.21,100l2-2.29,1.76-2.23,1.58-2.2,1.43-2.17L84.23,89l1.18-2.13,1.1-2.14,1-2.13,1-2.16.94-2.23.89-2.35.82-2.53.74-2.77.65-3,.55-3.39.45-3.79.33-4.19.23-4.4.14-4.38.08-4.12,0-3.61V34.82Zm-46.7,73.72A35.38,35.38,0,1,1,83.05,73.17,35.37,35.37,0,0,1,47.68,108.54Z"/><path d="M47.46,120.42l-5.59-2.53-4.74-2.45L32.94,113l-3.68-2.47L26,108l-2.85-2.44-2.5-2.41-2.22-2.36-2-2.31-1.78-2.26L13.09,94l-1.44-2.19-1.3-2.17-1.2-2.16L8,85.37,6,81.05l-1-2.25-.9-2.37-.82-2.56-.76-2.8L1.91,68l-.55-3.42L.91,60.75.57,56.53.34,52.11.19,47.72.08,40V37.08L.22,3.53l94.59,0,0,33.57,0,6.5-.08,4.12-.15,4.39-.23,4.41L94,60.71l-.45,3.81L93,67.94,92.35,71l-.75,2.8-.82,2.56-.9,2.38-1,2.26-2,4.33-1.1,2.14-1.19,2.15-1.31,2.17L81.85,94l-1.6,2.22-1.77,2.26-2,2.31-2.22,2.36-2.49,2.41L69,108l-3.24,2.46L62,112.94l-4.19,2.47-4.75,2.45ZM2,5.28,1.83,40l.11,7.71L2.09,52l.23,4.39.33,4.16.44,3.74.55,3.35.64,3L5,73.37l.81,2.48.87,2.3.92,2.19,2,4.25,1.08,2.11,1.17,2.1,1.27,2.11,1.4,2.14,1.56,2.16,1.73,2.2,1.93,2.25,2.16,2.3,2.44,2.34,2.77,2.38,3.15,2.4,3.6,2.41L38,113.9l4.66,2.41,4.83,2.18,4.87-2.2L57,113.87l4.1-2.42,3.6-2.41,3.16-2.4,2.76-2.38L73,101.92l2.15-2.3,1.94-2.25,1.72-2.2L80.4,93l1.4-2.13,1.27-2.11,1.16-2.1,1.09-2.11,2-4.25.94-2.2.86-2.31.81-2.48.72-2.71.64-3,.54-3.33.44-3.74.33-4.15L92.82,52,93,47.66,93.08,40V37.08l0-31.82Z"/><g id="LWPOLYLINE-7" data-name="LWPOLYLINE"><path d="M40.86,67.08a.44.44,0,0,1-.31-.13.43.43,0,0,1,0-.58l2.38-3,.68-.3,1-.16.39,0h2.67l1.87-.17L52.21,62l.45.06.17.08.15.11.27.26.82,1.12.43.71a.45.45,0,0,1,0,.39.46.46,0,0,1-.3.26l-4.48,1.09-2.41.47-1.08,0-2.74-.08-1.33.07-.68.17-.2.11-.19.15A.37.37,0,0,1,40.86,67.08Zm5.22-3.31-2.6.28-.3.24-.83,1-.29.41.87-.08h.6l2.74.08h1l2.31-.46,3.88-.94L53,63.59l-.58-.69-.21,0H52l-1.26.39L50,63.5l-1.26.22-1.17.06Z"/></g><polyline points="56.68 71.83 50.87 70.26 45.97 82.6 54.89 84.22 54.27 76.85 56.68 71.83" style="fill:none"/><path d="M41.05,77.22l-.36,3.42-.31,3.46-.55,5-.53,3.22-.43,2.15-.51,2.13-.6,2.15-.33,1.63-.35,2-.23,1.43-.2,1.39,23,.19-1-4.14-.42-1.77-.32-1.41-.37-1.82-.23-1.52L57,91l-.1-3.52-.06-2.88,0-1.88v-.66l-.21.18-.53.58-.47.43-.6.61-.64-6.93.32-.78.68,6.74.7-.78,1-1.25.58-.72.63-.85.3-.68L59,77.43l.26-.89.17-.8,0-.74-.18-1.56-.45-1.28L57.85,70l-.92-2-.2-.31L55.46,66.1l-1.31-1.5-.25.07-4.26,1L48,66.08l-.77.12-1,0-1.5-.08-1.06-.05h-.76l-.81.08-.43.1-.37.13-.22.12-.26.19-.18.2-.21.26-.22.36-.18.33-.25.53-.25.63-.41,1.18-.35,1.11-.49,1.38-.26.51-.52.8-.61.85-.49.69-.42.65-.32.55-.27.64-.08.31,0,.26v.14l0,.13,0,.15.06.22.11.31.13.34.09.2.12.28.17.36.18.4.16.36.08.22.07.32v.3l.11.47.06.37.07.4.14.5.05.13.1.18.08.1.11.1.12,0,.16,0,.12,0,.17,0,.12-.07.12-.08.1-.08.17-.17.23-.29.24-.36.26-.46.18-.37L39.7,81l.34-1,.39-1.25.19-1.64.29-2.28.2-1.37L41.53,71l.39.16L41.48,74Zm10.62-5.73,3.82,1-1.21,4.19-.5,0H53l-.41,0h-.26l-.19,0-.15,0-.17,0-.1,0h-.12l-.17,0-.11.17V77l0,.13.06.1.06.07.11.1.14.1.36.22h0l-.29,0-.36,0-.43,0-.38,0-.41.07-.43-.11Zm-1.94,7,0-.1.05-.09.07-.08.1-.07.21-.08.31,0,.2,0L51,78l.42,0,.37,0,.31,0,.14,0,.08,0,0,0,0,0,0,0v-.06l0,0-.07-.06-.11-.07-.36-.21-.12-.08-.08-.08,0,0,0-.07,0-.07v-.1l0,0h.13l.08,0,.17,0,.16,0,.22,0h.28l.41,0h.74l.19,0,.18,0,.19,2.13-.16.13-.19.13-.17.09-.32.15-.26.11-.26.1-.35.12-.34.1-.43.1-.32,0-.36,0-.37,0L50.41,80l-.26-.18L50,79.64l-.16-.31-.06-.2,0-.27v-.25Z"/></g></svg>