<?xml version="1.0" encoding="UTF-8"?>
<svg id="Layer_2" data-name="Layer 2" xmlns="http://www.w3.org/2000/svg" viewBox="0 0 785.43 833.28">
  <defs>
    <style>
      .cls-1, .cls-2 {
        fill: #25282a;
      }

      .cls-3 {
        opacity: .8;
      }

      .cls-2 {
        fill-rule: evenodd;
      }
    </style>
  </defs>
  <g id="Layer_1-2" data-name="Layer 1">
    <g class="cls-3">
      <g id="GazaStrip_MunicipalBoundaries" data-name="GazaStrip MunicipalBoundaries">
        <path class="cls-1" d="M99.87,768.5l4.01-3.55.66-.59,3.64-3.22,1.38-1.27,1.5-1.6.82-.89,2.9-2.91,1.18-1.17,2.07-1.96,2.63-2.22,2.74-2.24,1.24-.85.99-.66,4.07-2.68,2.81-1.86,1.69-1.12,3.34-1.56,3.1-1.47,1.15-.46,1.58-.63,3.48-1.4,4.19-1.66,5.62-2.22,4.4-1.74,1.02-.41,3.95-1.61,2.42-.98,2.48-.99,1.54-.61,3.73-1.48.79-.31,1.12,2.44.65,1.35,1.66,3.33,1.31,2.58.33.67,1.32,2.67,1.94,3.84.74-.36,1.56,2.38.66,1.01,1.45,2.18.85,1.27,3.1-1.23.75-.29,1,3.5.72,2.51.77,2.82.26.89.41.89.23.45-4.09,1.44-1.3.39-1.44.38-3.66,1.01-5.44,1.66-1.73.53,1.18,2.34.35.69,2.38,4.69.42.88.04.09-6.42,1.36-3.48.75-2.69.51-2.7.36-2.03.15-1.63,1.16-2.06-2.76-.33-.89-12.49,5.26-1.17-1.4-.94-.98-.87-.94-.84-.98-.79-.99-1.03-1.2-1.45-1.77-.88,3.36-2.66,10.17-4.81-9.42,2.45-7.9-2.75-3.2-.02-2.12-4.29-.98-1.25,1.82-4.23,1.6-3.07,9.88-.78,2.09-2.19,7.04-.31.97-1.57,5.08-.69,2.21-.31.97-2.83,9.12-1.21,3.9-.24.75-.24.77-3.58-6.2-1.3-2.12-1.36-1.99-1.31-1.98-.75-1.02-.23-.33-1.06-1.4-.29-.45-.85-1.42-.7-1.09-.48-.75-.69-1.07-.49-.7-.15-.19-.47-.62-.46-.59-.38-.56,3.68-1.79,3.36-1.62,2.73-1.33-2.98-3.14-.62-.61-3.49-3.43Z"/>
        <path class="cls-1" d="M216.75,674.41l-.13.59-.19.88-.3,1.31-.64,2.93-.22,1.25-.29,1.29-.3,1.11-.3.88-.47,1.35-.48,1.41-.83,2.4-.34,1-.25.73-.17.5-.57,1.32-.43.82-.74,1.48-1.15,2.16-.98,1.87-.68,1.22-.38.57-2.09,2.88-.27.33-1.56,1.69-1.6,1.51-.7.66-2.32,1.88-1.36,1.05-3.04,2-1.75,1.02-2.84,1.48-3.8,1.64-5.61,2.16-3.63-6.04-2.06-3.43-1.02-1.14-.17-.19-.18-.19-.18-.18-.2-.18-.19-.16-.21-.17-.21-.16-.22-.15-.22-.14-.23-.14-.24-.13-1.54-.82-2.76-1.32-1.43,1.55-.21-.17-2.72-2.11-.76-.77-4.46-4.48-.77,1.03-.49.63-2.06,1.64-1.27.66-1.65.87-.71.63-2.17-2.69-.1-.1-.1-.1-.09-.11-.09-.11-.08-.11-.08-.11-.08-.12-.07-.12-.06-.12-.06-.12-.06-.13-.05-.12-.5-1.37-.73-1.8-.5-1.35-.6-1.84-.43-1.11-1.09-1.66-.54-1.01-.96-1.49.52-.52,1.99-1.94,1.29-1.53,1.33-1.93,1.12-2.4,1.03-2.17,1.33-2.97.15-.03,1-2.54.44-2.2.16-2.03-.27-2.78.29-.99,5.63,3.54,6.2,3.85,5.6,3.49,2.46,1.09,1.52.52,1.62.32,2.07.17,1.69.04,3.08.1,2.83.13,6.23.21,2.58.05h1.43s2.87-.27,2.87-.27l3.63-.71,3.66-.78,4.28-.92,7.17-1.5Z"/>
        <path class="cls-1" d="M239.2,655.59l.14.14,1.38,1.6.87.97,1.44,1.65,1.83,2.1,1.04-.48.91-.61.47-.37,1.87,3.67,3.59-1.77,2.27-1.06.84-.48,1.51-1.15.83-.61.54.54.68.67,2.95,2.9,2.1,2.19,1.12,1.21,1.83,2.08.26.29.58.65,2.3,2.49,1.24,1.46,1.06,1.34.89,1.18,3.16,4.63.89,1.21.9,1.09,2.27,2.59.64.81-.93.31-2.3.79-2.89,1.25-2.3.99-1.36.7-2.46,1.26-1.16.61-2.52,1.32-.55.27-.83.39-5.18,1.86-.35.09-2.73.72-.84.24-.28.09-1.35.44-1.21.44-2.18.79-1.52.59-.89.36-1.02.4-1.22.48-4.57,1.84-2.99,1.04-2.04.7-2.71.93-3.14,1.07-3.15,1.07-2.45.84-2.14.73-1.53.52-.39-1.9-.41-2.33-.48-2.55-.35-2.19-.72-3.9-.44-2.44-.27-.78-.54-.83-.68-.77-.87-.65-.73-.35-1.27-.41,1.78-5.15.77-2.51.44-2.24.71-3.27.02-.08.58-2.6.13-.57.16-1.04.31-4,.16-2.28.11-.9.71-3.92.52-2.72.42-3.8,3.31-1.45,4.5-2.68,2.06,2.5,1.53,1.87,1.4,1.88.72.99.51-.38,2.76-1.55,1.95-1.08Z"/>
        <path class="cls-1" d="M330.64,622.01l4.83,4.17.74.92,4.6,4.43-2.19,1.75-1.36,1.04-1.29.95,2.03,2.25,3.4,3.78-2.05,1.27,4.92,5.06-5.87,3.98,1.87,1.69-11,7.63-7.22,5.05-2.43,1.6-2.34,1.39-4.35,3.86-3.53,2.12-1.61,1.02-.78-.68-1.14-.93-.55-.37-.48-.35-2.32-1.39-1.89-1.12-1.74-1.02-2.12-1.33-1.56-1.15-1.52-1.32,5.95-3.92,2.79-1.56,2.61-1.56,1.88-1.13.28-.19,1.92-1.31,1.43-1.14,1.36-1.02-1.13-1.81-1.94-3-1.53-2.66-1.61-2.73,1.98-1.15,1.79-1.11,1.67-1.18,1.65-1.27-1.05-1.17,1.03-.84,2.07-1.6,2.81-2.23,2.64-2.24,3.08-2.76,4.34-3.99,2.96-2.72Z"/>
        <path class="cls-1" d="M256.43,603.57l.1.11.73.81,1.1,1.26,1.56,1.95-2.37,1.6-.57.46,2.57,3.13-2.56,1.25,1.07,3.66.52,1.08.7,1.48.3.67.95-.47,1.04-.62.61-.44,1.4-1.07,1.78-1.38,1.84-1.5,2.69,2.65.94.93,1.32,1.3,1.04,1.07,1.24,1.3.6.59,1.54,1.43.38.33,3.47,2.99-2.33,1.64-4.59,3.04.5.58-3.01,2.68-1.99,1.53-3.3,2.53-1.86,2.81-1.9,2.81-.94,1-3.37,3.29-1.61,1.58-2.3,1.93-.48-.59-.74-.98-.87-1.58-1.31-2.13-.64-1.07,2.41-2.44,1.89-1.97,3.25-3.6,2.88-3.43-3.59-2.98-2.03-1.92-1.54-1.52-2.03-1.7-2.33-1.96-1.87-1.34-2.31-1.9-3.2-3.03-3.12-3.04-2.07-2.03-2.59-2.57-.9-.86.79-.62,1.27-.94,1.23-.92,1.34-1.05.54-.47.89-.96.72-.87.78-.95.79-1.12.65-.8.33-.42.94-1.06.94-1.08.66-.71.21.57.33,1.26.31,1.27.2.78.14.63.2.79.31,1.97.17,1.45,1.22-.51,2.43-1.01,1.94-.83,1.12-.48,1.9-1.01,1.18-.64.35.4Z"/>
        <path class="cls-1" d="M307.35,583.9l-1.64,3.26-.02.04,1.25.1,1.16.08,1.6.08,3.1.13,3.31.18,3.66.08.33.02-.61,2.13,3.69,1.09-2.24,2.33,4.13,2.09,3.22,1.65,2.6,1.21-.63.65-1.68,1.57-1.28,1.29-2.19,2.04-.44-.31-1.9-1.63-2.26-2-1.83,1.36-2.19,1.57-5.64,3.84.61.23,1.16.3.13.06,1.59,1.01,3.56,2.17,4.69,2.63-4.48,4.64-.08.06-5.29,4.26-1.03.84-.94.89,3.7,3.3,1.42,1.25-2.47,1.99-1.48,1.34-2.43-1.96-6.25-4.86-1.27-.89-1.56-.94-6.92,5.74.7.63.07.09-.55.51,1.05,1.09,1.23,1.1-.14.11-2.07,1.7-2.41,2.02,1.73,1.65-4.9,3.7-2.81,2.14,2.04,1.88-1.26.94-1.73,1.3-1.81,1.26-1.27.91,2.32,2.42.45.48-8.36,7.46-1.93-1.76-1.46-1.16-2.42-1.75-1.33-.83-2.75,1.85-4.23,2.51-2.28,1.36-.68-.67-.54-.54-.83.61-1.51,1.15-.84.48-2.27,1.06-3.59,1.77-1.87-3.67-.47.37-.91.61-1.04.48-1.83-2.1-1.44-1.65-.87-.97-1.38-1.6-.14-.14,1.97-1.23,1.86-1.26,2.15-1.41,5.15-3.41,1.31,2.13.87,1.58.74.98.48.59,2.3-1.93,1.61-1.58,3.37-3.29.94-1,1.9-2.81,1.86-2.81,3.3-2.53,1.99-1.53,3.01-2.68-.5-.58,4.59-3.04,2.33-1.64-3.47-2.99-.38-.33-1.54-1.43-.6-.59-1.24-1.3-1.04-1.07-1.32-1.3-.94-.93-2.69-2.65-1.84,1.5-1.78,1.38-1.4,1.07-.61.44-1.04.62-.95.47-.3-.67-.7-1.48-.52-1.08-1.07-3.66,2.56-1.25-2.57-3.13.57-.46,2.37-1.6-1.56-1.95-1.1-1.26-.73-.81-.1-.11.29-.2,1.38-1.12.79-.64.51-.41.45-.4,1.02-.93.46-.42.67-.65-1.08-.69-1.03-.67-2.32-1.46-1.5-.89-1.11-.68-1.89-1.06-1.92-1.06,1.29-1.24.88-.86,1.04-1.03.78-.69,1.14-.97.88-.7.59-.47.64-.67.84-.77,1.03-1.01,1.4-1.37.74-.7.9-.84.68-.69,1.56,1.26,1.79,1.37.89.63,1.37.88,1.31.85.6.35.88.36.53-.96,1.68-2.63,1.1.22.31-.41.91.42.8.34.66.22,1.18.24,1.45.26,2.11.41,1.6.3,2.52.36,2.99.46.14-.39.04-.45-.33-.52-1.01-.77-1.6-1.14-.62-.41,1.99-2.46,1.59.79.72-.97,2.06,1.14.94-1.19,4.95,2.24,2.55.82,3.21,1.14,2.54.88Z"/>
        <path class="cls-1" d="M139.86,642.92l-8.48-5.62-10.52-6.82-.53-.3-.13-.07-.13-.07-.13-.06-.13-.05-.14-.06-.14-.05-.14-.04-.14-.04-.15-.04-.14-.03-.15-.02-.15-.03-.15-.02h-.15s-.15-.02-.15-.02h-.15l-6.13,6.49-14.61,1.98-16.38,3.59-1.01-1.46-1.88-2.68-4.47-6.37-3.91-6.61-3.12-5.29-.51-.78-.37-.48-1.27-1.55-1.09-1.62-2.35-4.41-.55-.9-2.17-3.18-.78-.99-.87-.98-.67-.76-5.84-6.61-.9-1.18-.89-1.37.72-.78,2.38-4.05,9.22-6.59,3.67-1.91,2.74-2.45-1.17-1.69-2.98-4.29,16.45,8.82,4.43,2.38,6.04,3.24,13.29,7.14,15.86,8.53,2.09,1.09,5.21,2.8,1.73.6,1.49.54,1.01,1.19.36.37,1.16,1.3.97.83,1.74,1.83,1.42,1.67,1.26,1.64,2.45,2.58,1.44,1.61.11.12.11.12.12.12.12.11.13.1.13.11.13.09.14.1.15.09.14.09.15.08.16.08.15.07.16.07.16.06,1.45.55,2.6,1.04,1.55.56-.92,3.82-.67,2.19-1.97,4.7-2.16,4.43-3.36,3.4Z"/>
        <path class="cls-2" d="M87.02,779.96l1.56-1.39,4.08-3.66,2.85-2.54,3.89-3.44.47-.42,3.49,3.43.62.61,2.98,3.14-2.73,1.33-3.36,1.62-3.68,1.79.38.56.46.59.47.62.15.19.49.7.69,1.07.48.75.7,1.09.85,1.42.29.45,1.06,1.4.23.33.75,1.02,1.31,1.98,1.36,1.99,1.3,2.12,3.58,6.2.24-.77.24-.75,1.21-3.9,2.83-9.12.31-.97.69-2.21,1.57-5.08.31-.97,2.19-7.04.78-2.09,3.07-9.88,4.23-1.6,1.25-1.82,4.29.98.02,2.12,2.75,3.2-2.45,7.9,4.81,9.42,2.66-10.17.88-3.36,1.45,1.77,1.03,1.2.79.99.84.98.87.94.94.98,1.17,1.4,12.49-5.26.33.89,2.06,2.76,1.63-1.16,2.03-.15,2.7-.36,2.69-.51,3.48-.75,6.42-1.36-.04-.09-.42-.88-2.38-4.69-.35-.69-1.18-2.34,1.73-.53,5.44-1.66,3.66-1.01,1.44-.38,1.3-.39,4.09-1.44-.23-.45-.41-.89-.26-.89-.77-2.82-.72-2.51-1-3.5-.75.29-3.1,1.23-.85-1.27-1.45-2.18-.66-1.01-1.56-2.38-.74.36-1.94-3.84-1.32-2.67-.33-.67-1.31-2.58-1.66-3.33-.65-1.35-1.12-2.44.25-.09.62-.25,2.7-1.08-.16-.28-.41-.69,5.61-2.16,3.8-1.64,2.84-1.48,1.75-1.02,3.04-2,1.36-1.05,2.32-1.88.7-.66,1.6-1.51,1.56-1.69.27-.33,2.09-2.88.38-.57.68-1.22.98-1.87,1.15-2.16.74-1.48.43-.82.57-1.32.17-.5.25-.73.34-1,.83-2.4.48-1.41.47-1.35.3-.88.3-1.11.29-1.29.22-1.25.64-2.93.3-1.31.19-.88.13-.59,1.35-.28-.13.57-.58,2.6-.02.08-.71,3.27-.44,2.24-.77,2.51-1.78,5.15,1.27.41.73.35.87.65.68.77.54.83.27.78.44,2.44.72,3.9.35,2.19.48,2.55.41,2.33.39,1.9,1.53-.52,2.14-.73,2.45-.84,3.15-1.07,3.14-1.07,2.71-.93,2.04-.7,2.99-1.04,4.57-1.84,1.22-.48,1.02-.4.89-.36,1.52-.59,2.18-.79,1.21-.44,1.35-.44.28-.09.84-.24,2.73-.72.35-.09,5.18-1.86.83-.39.55-.27,2.52-1.32,1.16-.61,2.46-1.26,1.36-.7,2.3-.99,2.89-1.25,2.3-.79.93-.31-.64-.81-2.27-2.59-.9-1.09-.89-1.21-3.16-4.63-.89-1.18-1.06-1.34-1.24-1.46-2.3-2.49-.58-.65-.26-.29-1.83-2.08-1.12-1.21-2.1-2.19-2.95-2.9,2.28-1.36,4.23-2.51,2.75-1.85,1.33.83,2.42,1.75,1.46,1.16,1.93,1.76,8.36-7.46-.45-.48-2.32-2.42,1.27-.91,1.81-1.26,1.73-1.3,1.26-.94-2.04-1.88,2.81-2.14,4.9-3.7-1.73-1.65,2.41-2.02,2.07-1.7.14-.11-1.23-1.1-1.05-1.09.55-.51-.07-.09-.7-.63,6.92-5.74,1.56.94,1.27.89,6.25,4.86,2.43,1.96,1.48-1.34,2.47-1.99-1.42-1.25-3.7-3.3.94-.89,1.03-.84,5.29-4.26.08-.06,4.48-4.64-4.69-2.63-3.56-2.17-1.59-1.01-.13-.06-1.16-.3-.61-.23,5.64-3.84,2.19-1.57,1.83-1.36,2.26,2,1.9,1.63.44.31,2.19-2.04,1.28-1.29,1.68-1.57.63-.65-2.6-1.21-3.22-1.65-4.13-2.09,2.24-2.33-3.69-1.09.61-2.13-.33-.02-3.66-.08-3.31-.18-3.1-.13-1.6-.08-1.16-.08-1.25-.1.02-.04,1.64-3.26,1.76-3.48.85-1.59,1.81.31,1.32.18,1.04.12,1.29.13.95.04,1.23.08,1.84.2.79.17,2.16.3-.51,1.79,7.95,1.21-1.99,5.01-.18.45,1.18.55,3.51,1.7,3.03,1.48,1.17.51,2.7,1.28-.19-1.23-.02-1.46-.3-1.72-.4-2.26-.27-1.56-.55-2.41-.34-2.18-.38-2.43-.52-2.76.93-1.03.44,2.77.74,4.1,1.3,6.71,1.39,7.7,1.39,8.47.34,3.4.75,5.9,1.45,6.04.67,5.31.65,3.79.75,6.94.65,3.78,1.07,6.65.19,3.3-.69,2.29-.76,2.28-1.14,2.14-.84,2.32-.7,1.43-.37,1.6-1.6,2.68-.9,2.91-1.13,3.6-3.13,6.96-3.75,5.96-1.19,1.38-4.14,2.05-5.78,2.22-4.22,2.41-2.32,1.33-2.47,1.22-5.02,2.49-3.54,1.61-14.18,7.15-6.63,3.37-4.93,2.19-.68,1.58-.85,1.97-1.21,2.71-.86,1.42-1.59,2.14-1.59,2.37-1.87,2.86-2.62,4.25-1.69,2.71-1.32,2.23-1.7,1.73-1.98,2.38-2.25,2.29-1.56,1.92-.7.88-1.8,1.89-2.08,2.22-1.48,1.2-.51.54-2.74,2.14-1.98,1.64-1.99,1.65-3.03,2.31-2.75,1.65-2.54,1.89-2.23,1.62-2.74,2.07-4.36,3.06-3.9,2-2.1.92-3.03,1.16-4.16,1.58-4.27,1.74-4.86,1.33-3.44,1.4-4.06,2.36-4.08,2.38-10.65,4.68-7.42,3.25-7.16,3.03-2.81,2.02-1.58,1.39-3.93,3.97-3.07,3.75-4.3,4.41-2.47,2.7-4.2,3.35-3.55,3.11-2.74,2.81-1.47.55-5.08,1.96-4.09,1.53-6.08,1.64-4.69,1.32-6.67,2.07-4.6,1.8-.6-1.4-1.41-3.83-2.18-6.28-3.31-8.61-2.94-8.09-3.45-10.64-2.04-4.68-1.92-5.22-.9-2.97-.62-1.6ZM330.64,622.01l-2.96,2.72-4.34,3.99-3.08,2.76-2.64,2.24-2.81,2.23-2.07,1.6-1.03.84,1.05,1.17-1.65,1.27-1.67,1.18-1.79,1.11-1.98,1.15,1.61,2.73,1.53,2.66,1.94,3,1.13,1.81-1.36,1.02-1.43,1.14-1.92,1.31-.28.19-1.88,1.13-2.61,1.56-2.79,1.56-5.95,3.92,1.52,1.32,1.56,1.15,2.12,1.33,1.74,1.02,1.89,1.12,2.32,1.39.48.35.55.37,1.14.93.78.68,1.61-1.02,3.53-2.12,4.35-3.86,2.34-1.39,2.43-1.6,7.22-5.05,11-7.63-1.87-1.69,5.87-3.98-4.92-5.06,2.05-1.27-3.4-3.78-2.03-2.25,1.29-.95,1.36-1.04,2.19-1.75-4.6-4.43-.74-.92-4.83-4.17Z"/>
        <path class="cls-1" d="M337.21,575.27l-.05-.3-.05-.25.32.29-.23.26Z"/>
        <path class="cls-1" d="M62.91,572.68l2.98,4.29,1.17,1.69-2.74,2.45-3.67,1.91-9.22,6.59-2.38,4.05-.72.78.89,1.37.9,1.18,5.84,6.61.67.76.87.98.78.99,2.17,3.18.55.9,2.35,4.41,1.09,1.62,1.27,1.55.37.48.51.78,3.12,5.29,3.91,6.61,4.47,6.37,1.88,2.68,1.01,1.46,16.38-3.59,14.61-1.98,6.13-6.49h.3s.15.02.15.02l.15.02.15.03.15.02.14.03.15.04.14.04.14.04.14.05.14.06.13.05.13.06.13.07.13.07.53.3,10.52,6.82,8.48,5.62-.07.07-1.49,1.24-2.2,3.11-2.52,3.58-1.26,2.26-.62.87,3.86,3.31.66-.45,1.46,1.69,2.03,2.19.63.63,3.77,5.62,6.32,8.58-1.33,2.97-1.03,2.17-1.12,2.4-1.33,1.93-1.29,1.53-1.99,1.94-.52.52.96,1.49.54,1.01,1.09,1.66.43,1.11.6,1.84.5,1.35.73,1.8.5,1.37.05.12.06.13.06.12.06.12.07.12.08.12.08.11.08.11.09.11.09.11.1.1.1.1,2.17,2.69.71-.63,1.65-.87,1.27-.66,2.06-1.64.49-.63.77-1.03,4.46,4.48.76.77,2.72,2.11.21.17,1.43-1.55,2.76,1.32,1.54.82.24.13.23.14.22.14.22.15.21.16.21.17.19.16.2.18.18.18.18.19.17.19,1.02,1.14,2.06,3.43,3.63,6.04.41.69.16.28-2.7,1.08-.62.25-.25.09-.79.31-3.73,1.48-1.54.61-2.48.99-2.42.98-3.95,1.61-1.02.41-4.4,1.74-5.62,2.22-4.19,1.66-3.48,1.4-1.58.63-1.15.46-3.1,1.47-3.34,1.56-1.69,1.12-2.81,1.86-4.07,2.68-.99.66-1.24.85-2.74,2.24-2.63,2.22-2.07,1.96-1.18,1.17-2.9,2.91-.82.89-1.5,1.6-1.38,1.27-3.64,3.22-.66.59-4.01,3.55-.47.42-3.89,3.44-2.85,2.54-4.08,3.66-1.56,1.39-5.02-13.05-1.92-5.75-3.07-8.94-5.37-14.99-7.68-21.88-.39-1.91-4.85-12.87-4.98-13.08-3.19-7.97-1.16-4.05-1.15-2.87-1-.95-.74-.21-2.74-.08-5.11-.5-.88-.63-4.69-8.15-1.53-2.86-7.46-12.53-5.94-9.12-6.33-10.84-6.56-9.55-5.26-7.36,1.29-.94.95-.66.58-.28,2.44-1.96,2.38-2.08,2.45-1.96,2.85-2.2,2.04-1.72.83-.47.82-.42.75-.65.61-.71.81-.78,1.37-.89,1.63-1.31,1.56-1.13,1.5-1.13,1.15-1.18.75-.89,1.7-1.31,2.65-2.37,2.07-1.94,1.91-1.59,1.69-1.43,1.36-1.13,1.44-.9,1.56-1.12.94-1.01,1.44-1.24,1.97-1.66,2.11-1.78,2.79-2.5,2.31-1.96,1.56-1.24.78-.73.32.32,1.33,1.3.9.88,1.51,1.46,2.4,2.91,1.42,1.27Z"/>
        <path class="cls-1" d="M337.12,574.73l.05.25.05.3-.93,1.03.52,2.76.38,2.43.34,2.18.55,2.41.27,1.56.4,2.26.3,1.72.02,1.46.19,1.23-2.7-1.28-1.17-.51-3.03-1.48-3.51-1.7-1.18-.55.18-.45,1.99-5.01-7.95-1.21.51-1.79-2.16-.3-.79-.17-1.84-.2-1.23-.08-.95-.04-1.29-.13-1.04-.12-1.32-.18-1.81-.31-.85,1.59-1.76,3.48-2.54-.88-3.21-1.14-2.55-.82-4.95-2.24-.94,1.19-2.06-1.14-.72.97-1.59-.79-1.99,2.46.62.41,1.6,1.14,1.01.77.33.52-.04.45-.14.39-2.99-.46-2.52-.36-1.6-.3-2.11-.41-1.45-.26-1.18-.24-.66-.22-.8-.34-.91-.42-.31.41-1.1-.22-1.68,2.63-.53.96-.88-.36-.6-.35-1.31-.85-1.37-.88-.89-.63-1.79-1.37-1.56-1.26.29-.3,1.2-1.21.7-.77.75-.81.91-1.06.87-1,.83-.94.87-1,1.74-2.03.4-.62.94-1.65.57-1.13.5-.91.7-1.36,1.07-1.93.37-.72.07-.13.08-.13.08-.13.09-.13.1-.12.09-.12.11-.12.11-.11.11-.11.68-.72,1.77-1.77,1.14-1.21,1.05-1.08.6-.66.52-.81.18-.32.87-.11,2.2-.26,1.91-.16,1.66-.1,1.84-.11,1.48-.09,1.54-.12.91-.1,1.89-.08h1.68s1.78.03,1.78.03l1.72.07,1.56.06,1.72.12,1.46.13.53.02,1.64.02,1.99-.03,1.24-.03,2.5-.03.9.02-1.36.94,7.95,7.19,1.64,1.44,1.09.8,1.51,1.22.87.69,1.91,1.61,2.4,2.17,3.73,3.38.93.86Z"/>
        <path class="cls-1" d="M283.43,555.19l-.18.32-.52.81-.6.66-1.05,1.08-1.14,1.21-1.77,1.77-.68.72-.11.11-.11.11-.11.12-.09.12-.1.12-.09.13-.08.13-.08.13-.07.13-.37.72-1.07,1.93-.7,1.36-.5.91-.57,1.13-.94,1.65-.4.62-1.74,2.03-.87,1-.83.94-.87,1-.91,1.06-.75.81-.7.77-1.2,1.21-.29.3-.68.69-.9.84-.74.7-1.4,1.37-1.03,1.01-.84.77-.64.67-.59.47-.88.7-1.14.97-.78.69-1.04,1.03-.88.86-1.29,1.24,1.92,1.06,1.89,1.06,1.11.68,1.5.89,2.32,1.46,1.03.67,1.08.69-.67.65-.46.42-1.02.93-.45.4-.51.41-.79.64-1.38,1.12-.29.2-.35-.4-1.18.64-1.9,1.01-1.12.48-1.94.83-2.43,1.01-1.22.51-.17-1.45-.31-1.97-.2-.79-.14-.63-.2-.78-.31-1.27-.33-1.26-.21-.57-.66.71-.94,1.08-.94,1.06-.33.42-.65.8-.79,1.12-.78.95-.72.87-.89.96-.54.47-1.34,1.05-1.23.92-1.27.94-.79.62-.62-.65-.97-.98-.49-.61.18-1.01.16-.94.18-1.48.13-1.05.14-.93.18-1.25.17-.9.06-.29.15-.69.14-.57.45-1.66.31-1.52.21-1.09.26-1.38.05-.42v-.47s.02-.51.02-.51l.1-.81.05-.68v-.87s-.05-.59-.05-.59l.02-.27.08-1.01.1-.78-.04-.02-1.7-.96-.08-.04-.8-.47-4.32-2.72.3-.24.21-.26-.82-.5-1.01-.62-1.46-.91-.57-.43-.86-.56.1-.07,1.46-1.49.86-.93-.21-.12-1.22-.67.41-.85.55-1.01.35-.22-.32-.7-.28-.79-.32-.94-.31-.66-.49-.94-.05-.87v-.57s.04-.52.04-.52l-.52-.19-2.28-1.41-1.26-.81-3.44-1.66-.05-.04.46-1.87.6-1.84.54-1.45.48-.95.5-.73.51-.49,1.04-.97,1.41-1.25,1.4-1.16,2.04-1.63,1-.69,2.09-1.49,2.43-1.68,2.16-1.57,2.52-1.84,1.99,1.8.77.68,1.01.97.35.3.29.18.14-.54.42-1.23.42-1.24.87-1.79.04-.05.04-.05.04-.05.04-.04.05-.05.05-.04.05-.05.05-.04.05-.04.05-.03.06-.04.06-.04.06-.03.06-.03.06-.03.06-.03.06-.02.07-.03.06-.02.07-.02h.06s1.19-.31,1.19-.31l1.34-.28.77-.17,1.46-.35.88-.13,1.37-.14.95-.02.1.14.21.24.41.41.84.76,1.03.91,1.55,1.36.69.64,2.03,2.25.55-.43,2.46,2.32,3.63,3.27,1.07-.8,1.23-.74,1.06-.64.49-.19.94-.35,1.28-.72.94-.51,1.41-.72.64-.37v.05s.53,2.48.53,2.48l.54.35.91,1.43.08.43.04.54.15.33.4.23.19.11.8.16.19.02.75.03.5.05.27.11.09.19.35.93.07.18,1.31-.34,1.2-.26.54-.13,1.48-.19.61-.08Z"/>
        <path class="cls-1" d="M323.09,495.87l-.34.56-.2.48-.33.98-.44.93-.4.67-.09.15-.22.38-.35.73-.7,1.41-.89,1.86-1.21,2.54-.34.71-.11.24-.25.45-.33.54-.31.61-.46,1.16-.55,1.75-.24.84-.32,1.15-.28,1.4-.03.1-.02.11-.03.1-.04.11-.04.1-.04.1-.05.1-.05.1-.05.1-.06.09-.07.1-.06.09-.56.73-.61,1.07-.5,1.22-.19.47-.16.4-.19.41-.44.76-.77,1.24-.26.38-.22.27-.35.41-.51.54-1.32,1.24-.48.52-1.35,1.46-.97,1.08-.4.4-1.51,1.34-1.62,1.49-.57.7-1.06,1.28-1.69,1.67-.72.55-.54.46-.45.38-.2.2-.48.52-.44.36-.38.26-1.22.64-1.4.6-1.98.73-1.46.35-1.2.14-3.07.41-1.2.06-1.03-.02-2.2-.36-1.63-.25-1.51-.2-.9-.03-1.77.05-2.74-.04-1.75-.03-1.8.44-1.63.48-2.94.99-2.07.64-1,.44-2.38-2.19-1.01-.89-.4-.36-1.94-1.72-1.34-.86-.49-.43-1.75-1.7-2.14-1.82.82-2.33.82-2.31.64-1.84.53-1.57.52-1.45.4-1.03.52-1.32.62-1.46.79-1.86.54-1.28.4-1,.35-.92.32-1.4v-.43s.19-2.11.19-2.11l.2-2.81.08-1.18.11-1.57-1.12-.3-.81,1.28h-1.05s-1.46-2.2-1.46-2.2l-.84-1.26-1.37-2.07-1.06.97-.07-.06-2.4-2.29.31-.28-3.71-2.93-2.7-2.14.61-.69v-.08l.03-1.26.31-.8.39-.16.06-.03.06-.04.06-.03.06-.04.05-.04.06-.04.05-.04.05-.04.05-.05.05-.04.04-.05.05-.05.04-.05.04-.05.04-.05.03-.06.03-.05.04-.06.02-.05.03-.06.03-.06.02-.06.02-.06.02-.06v-.06s.02-.06.02-.06v-.06s.02-.06.02-.06v-.06s0-.06,0-.06l.04-1.52.02-.1.03-.1.03-.1.03-.1.04-.1.04-.09.04-.1.05-.1.05-.09.06-.09.06-.09.06-.09.07-.09.07-.08.07-.08.08-.08.08-.08.08-.07.09-.08.09-.07.09-.06.09-.07.1-.06.1-.06.1-.05.1-.06.11-.05.11-.04.11-.05.11-.04.11-.03,3.78-1.15,1.08-.34,2.08-1.15.25-.23.45-.4.18-.18.34-.37.18-.3.09-.29.02-.29-.03-.29-.18-.43-.32-.49-.4-.61-.15-.33-.04-.16-.04-.19-.03-1.03v-.73s0-1.66,0-1.66l.03-.55.02-.31.09-.41.57-1.46.14-.34.21-.38.17-.23.19-.21.17-.16.67-.44.32-.15,1.15-.38.94-.3.39-.16.33-.17.32-.2.12-.09.18-.19.22-.23.16-.21.12-.2.11-.23.11-.27.12-.58.26-2.05.41-3.18.34.17.33.18.33.19.32.2.31.21.31.22.31.23.29.24.82.67,2.89,2.38,3.53,2.89,1.94,1.49,3.33,2.56,1.83,1.41.37.32.43.4.31-.32,1.58-1.66,1.13-1.25.41-.45,1.24-1.61.49-.67.59-.84,1.49-2.22.51-.77.89-1.36.7-1.02.77-1.14.47-.69,4.13,2.04,1.1.55,1.29.74.91.6,1.05.88,1.49,1.34,1.62,2.03,1.77,2.1,2.42,3.77,2.07,3.06,2.49,3.59,1.8,2.56.65.94.98,1.26,1.29,1.4,1.56,1.37,1.64,1.25,1.96,1.25,2.8,2.07.76.55.77.42Z"/>
        <path class="cls-1" d="M260.26,462.38l-.41,3.18-.26,2.05-.12.58-.11.27-.11.23-.12.2-.16.21-.22.23-.18.19-.12.09-.32.2-.33.17-.39.16-.94.3-1.15.38-.32.15-.67.44-.17.16-.19.21-.17.23-.21.38-.14.34-.57,1.46-.09.41-.02.31-.03.55v1.66s0,.73,0,.73l.03,1.03.04.19-.54-.42-14.27-15.79,6.89-.72,4.74-.53,3.87-.44,1.45-.07.4.03.41.04.4.05.4.06.4.07.39.09.39.09.39.11.35.11.35.12.35.13.34.13.34.15.33.16Z"/>
        <path class="cls-1" d="M323.09,495.87l-.77-.42-.76-.55-2.8-2.07-1.96-1.25-1.64-1.25-1.56-1.37-1.29-1.4-.98-1.26-.65-.94-1.8-2.56-2.49-3.59-2.07-3.06-2.42-3.77-1.77-2.1-1.62-2.03-1.49-1.34-1.05-.88-.91-.6-1.29-.74-1.1-.55-4.13-2.04.48-.69.26-.33.94-1.4.87-1.2,2.26-3.27.79-1.13,2.16-3.24,2.03-3.11,2.1-3.12.54-.8.68-1.01.63-.94.15-.26.39-.82.4-1,.35-.94.91.31.27.08,2.1.68,1.03.47.74.31,2.32.2.45.02,1.55-.06.03-.09.37-.16.19-.1.29-.17.63-.14.39.02.75.14.28.02h.16s.14-.02.14-.02l.15-.06.12-.06.13-.1.05-.07.06-.08.16-.1h.12s.27.08.27.08l.9.25,1.04.06,1.36-.22.16-.06.28-.16.08-.11.12-.19.14-.09.3-.22.33-.61.24-.12.82.24.47.16.73.31.29.12,1.91.44h.02s.02,0,.02,0h.02s.02,0,.02,0h.2s.02,0,.02,0h.04s.02-.02.02-.02h.05s.02-.02.02-.02h.04s0-.02,0-.02h.02s.02-.02.02-.02h.02s.02-.03.02-.03h0s.02-.02.02-.02h.02s0-.03,0-.03h.02s0-.02,0-.02v-.02s.03,0,.03,0v-.02s.02,0,.02,0v-.02s.02-.02.02-.02h0s0-.03,0-.03v-.02s.17-.32.17-.32l.2-.13h.24s1.11.06,1.11.06l.79-.3.5-1.51.35-.52.62-.22.98-.07.96.22,2.02.56.56.15.94.32.95.57.42.33.51.36.7.26.94.31.31.11.45.29.51.56,1.28,1.12,1.01.64.58.21.05.81-.2.95-.71,1.34-1.14,1.75-1.23,2.07-.74,1.07-.34.47-.78,1-.95,1.03,2.44,2.13,2.77,2.41,1.36,1.06,3.56,2.13-2.57,2.93-.41.54-5.85,8.81-2.02,2.94-2.46,2.72-1.74,1.74-.11.11-.1.11-.09.11-.09.12-.09.12-.08.12-.08.12-.07.12-.06.13-.06.13-.06.13-.05.13-.05.14-.04.13-.03.14-.19.79-.29,1.18-.41,1.14-.07.17-.08.16-.08.15-.09.16-.1.15-.1.15-.1.14-.12.15-.11.14-1.64,1.87-.11.13-.12.12-.13.12-.13.12-.13.12-.14.11-.14.1-.14.11-2.79,1.92-.07.04-.06.05-.05.05-.06.05-.06.05-.05.05-.05.06-.05.05-.04.06-.05.06-.04.06-.04.06-.04.06-.03.06-.03.06-.03.07-.03.07-.02.06-.02.07-.02.07-.02.06-.38,1.74-.68,1.55Z"/>
        <path class="cls-1" d="M238.01,462.82l14.27,15.79.54.42.04.16.15.33.4.61.32.49.18.43.03.29-.02.29-.09.29-.18.3-.34.37-.18.18-.45.4-.25.23-2.08,1.15-1.08.34-3.78,1.15-.11.03-.11.04-.11.05-.11.04-.11.05-.1.06-.1.05-.1.06-.1.06-.09.07-.09.06-.09.07-.09.08-.08.07-.08.08-.08.08-.07.08-.07.08-.07.09-.06.09-.06.09-.06.09-.05.09-.05.1-.04.1-.04.09-.04.1-.03.1-.03.1-.03.1-.02.1-.04,1.52v.12s-.02.06-.02.06v.06s-.02.06-.02.06v.06s-.03.06-.03.06l-.02.06-.02.06-.03.06-.03.06-.02.05-.04.06-.03.05-.03.06-.04.05-.04.05-.04.05-.05.05-.04.05-.05.04-.05.05-.05.04-.05.04-.06.04-.05.04-.06.04-.06.03-.06.04-.06.03-.39.16-.31.8-.03,1.26v.08l-.61.69,2.7,2.14,3.71,2.93-.31.28,2.4,2.29.07.06,1.06-.97,1.37,2.07.84,1.26,1.46,2.21h1.05s.81-1.29.81-1.29l1.12.3-.11,1.57-.08,1.18-.2,2.81-.18,2.11v.43s-.33,1.4-.33,1.4l-.35.92-.4,1-.54,1.28-.79,1.86-.62,1.46-.52,1.32-.4,1.03-.52,1.45-.53,1.57-.64,1.84-.82,2.31-.82,2.33,2.14,1.82,1.75,1.7.49.43,1.34.86,1.94,1.72.4.36-.08.04-1.38.51-2.21.68-.79.24-.88-.02-.94-.04-.84-.05h-.31l-.95.02-1.37.14-.88.13-1.46.35-.77.17-1.34.28-1.19.31h-.06s-.07.03-.07.03l-.06.02-.07.03-.06.02-.06.03-.06.03-.06.03-.06.03-.06.04-.06.04-.05.03-.05.04-.05.04-.05.05-.05.04-.05.05-.04.04-.04.05-.04.05-.04.05-.87,1.79-.42,1.24-.42,1.23-.14.54-.29-.18-.35-.3-1.01-.97-.77-.68-1.99-1.8-2.52,1.84-2.16,1.57-2.43,1.68-2.09,1.49-1,.69-2.04,1.63-1.4,1.16-1.41,1.25-1.04.97-.51.49-.5.73-.48.95-.54,1.45-.6,1.84-.46,1.87.05.04,3.44,1.66,1.26.81,2.28,1.41.52.19-.03.52v.57s.04.87.04.87l.49.94.31.66.32.94.28.79.32.7-.35.22-.55,1.01-.41.85,1.22.67.21.12-.86.93-1.46,1.49-.1.07.86.56.57.43,1.46.91,1.01.62.82.5-.21.26-.3.24,4.32,2.72.8.47.08.04,1.7.96.04.02-.1.78-.08,1.01-.02.27.04.59v.87s-.04.68-.04.68l-.1.81v.51s-.02.47-.02.47l-.05.42-.26,1.38-.21,1.09-.31,1.52-.45,1.66-.14.57-.15.69-.06.29-.17.9-.18,1.25-.14.93-.13,1.05-.18,1.48-.16.94-.18,1.01.49.61.97.98.62.65.9.86,2.59,2.57,2.07,2.03,3.12,3.04,3.2,3.03,2.31,1.9,1.87,1.34,2.33,1.96,2.03,1.7,1.54,1.52,2.03,1.92,3.59,2.98-2.88,3.43-3.25,3.6-1.89,1.97-2.41,2.44.64,1.07-5.15,3.41-2.15,1.41-1.86,1.26-1.97,1.23-1.95,1.08-2.76,1.55-.51.38-.72-.99-1.4-1.88-1.53-1.87-2.06-2.5-4.5,2.68-3.31,1.45-.42,3.8-.52,2.72-.71,3.92-.11.9-.16,2.28-.31,4-.16,1.04-1.35.28-7.17,1.5-4.28.92-3.66.78-3.63.71-2.87.28h-1.43s-2.58-.06-2.58-.06l-6.23-.21-2.83-.13-3.08-.1-1.69-.04-2.07-.17-1.62-.32-1.52-.52-2.46-1.09-5.6-3.49-6.2-3.85-5.63-3.54-.29.99.27,2.78-.16,2.03-.44,2.2-1,2.54-.15.03-6.32-8.58-3.77-5.62-.63-.63-2.03-2.19-1.46-1.69-.66.45-3.86-3.31.62-.87,1.26-2.26,2.52-3.58,2.2-3.11,1.49-1.24.07-.07,3.36-3.4,2.16-4.43,1.97-4.7.67-2.19.92-3.82-1.55-.56-2.6-1.04-1.45-.55-.16-.06-.16-.07-.15-.07-.16-.08-.15-.08-.14-.09-.15-.09-.14-.1-.13-.09-.13-.11-.13-.1-.12-.11-.12-.12-.11-.12-.11-.12-1.44-1.61-2.45-2.58-1.26-1.64-1.42-1.67-1.74-1.83-.97-.83-1.16-1.3-.36-.37-1.01-1.19-1.49-.54-1.73-.6-5.21-2.8-2.09-1.09-15.86-8.53-13.29-7.14-6.04-3.24-4.43-2.38-16.45-8.82-1.42-1.27-2.4-2.91-1.51-1.46-.9-.88-1.33-1.3-.32-.32,1.06-.99,1.08-.9,1.02-1.06,2.51-1.84,1-.89.56-.48,1.5-1.31,1.02-1,.16-.11.94-.67,2.79-1.84,2.61-2.35,3.74-3.21,4.56-3.8,4.69-4.68,5.04-4.28,3.88-3.08,2.51-2.55,3.81-3.39,2.65-2.55,1.09-.78,1.16-.89,1.08-.66,1.3-.77,1.43-1.01,1.87-1.51,1.15-1.18,1.22-1.01,2.24-2.02,1.02-1,1.23-.78,2.51-2.02,1.91-1.55,1.36-1.3,1.36-1.31,2.45-1.78,3.14-2.61,1.15-1.01,1.92-2.65,3.13-3.49,2.23-2.31,2.31-2.31,2.72-2.55,4.48-5.15,1.91-1.84,1.15-1.36,1.29-1.55,1.02-.83,1.43-.78,1.7-1.31,1.98-1.37,1.53-1.1,1.91-1.49.61-.89.95-.94,1.63-1.25,1.97-1.84,2.11-2.07,1.16-.95.61-.77.75-.83,1.9-1.43,1.44-1.25,1.36-1.12.82-.9.89-.65.89-.77.28-.31.53-.59.2-.22.41-.61.61-.77,1.16-1,1.16-.78,1.56-1.01,2.19-1.49,1.84-1.36,1.43-1.01.82-.54,1.09-.65,1.3-.9,1.91-1.07,1.74-.93,1.44-.95,1.29-1.12,2.52-2.08,1.43-1.37,1.84-1.6,1.56-1.36.41.26,5.53,3.47,8.32,5.59.45.33,2.93,1.7,1.39.85,1.4.73,3.64,2.47,2.54,2.84-1.52,5.02,5.98,6.61Z"/>
        <path class="cls-1" d="M413.95,404.57l.35,1.44,1.37.41-.36,1.44-1.77-.52h-1.37s-.16,2.09-.16,2.09l-2.3.27-2.13.17.34,2.88-1.77,4.29-2.49,1.41-1.71,1.48,1.6.67-1.67,3.1-1.98-1.09-1.22-.41-2.13,1.71-.18-.08-2.08-.76-1.51-.44-2.22-.43-1.59-.27-2.07-.45-1.62-.35.25,1.32.1.67.06,1.09-1.81.45-.16.25-.46.57-1.35,1.93-.58.72-2.53,2.62-.97.8-4.25,2.79-.5.37-.16-.14-3.42-2.74-2.57-1.95-4.51-3.1-4.77-2.6-2.88-1.38-3.07-1.53-2.3-1.22-4.19-2.22-.46-.13-5.73-2.51-3.63-1.61-3.26-1.67-1.44-.9-.28-.16,5.68-5.17.6-.6.86-.87,2.56-2.6,1.92-1.95.55-.56.57-.62,3.49-4.16,2.83-3.38.65-.7,4.12-4.08,2.38,1.68,1.43-.51,2.12,1.11,1.46.81.32.29.74,1.72.26,1.58.8.66,1.45.67.94.39.38.26,1.05,1.06.78,1.1.33.23,1.21.25,1.78.11.94.57.33.25.53-.39.48-.2,1.47.51,1.06.36,1.01.18.79.36,1.26.83.31.25-.52.82h0v.04s-.02,0-.02,0h0s0,.03,0,.03h0s0,.03,0,.03h0v.03h0v.04h0v.03h0v.03h0s0,.03,0,.03h0v.03h0v.04s0,0,0,0v.02s.02,0,.02,0h0s0,.03,0,.03h0s0,.02,0,.02h0s0,.03,0,.03h0s0,.02,0,.02h0s.02.02.02.02h0s0,.02,0,.02h0s.02.02.02.02h0s.02.02.02.02h.02s.02.02.02.02h.03s.02.02.02.02h.03s.02,0,.02,0h.03s.02,0,.02,0h.18s.02,0,.02,0l.82-.18,1.12-.33.65.15.69.09.85-.12.9.22.29.47.48.51-.18.45.13.52.34.48.43.48,1.39.75,2.72-2.98,1.39-1.55,1.61-1.96,3.05,1.55,1.75-.24,2.28.73,2.52,1.27.2.13,5.39,2.31,1.65.45,3.6-.32Z"/>
        <path class="cls-1" d="M335.13,404.97l-.31.28-5.4,4.9.32.2.59.43.07.05.28.16,1.44.9,3.26,1.67,3.63,1.61,5.73,2.51.46.13,4.19,2.22,2.3,1.22,3.07,1.53,2.88,1.38,4.77,2.6,4.51,3.1,2.57,1.95,3.42,2.74.16.14-.63.55-1.49,1.37-.29.26-.28.24-.29.23-.3.23-.3.21-.31.21-.32.19-3.57,2.16-2.2,1.21-2.24,1.24-.53.28-1.31.55-3.57,1.28-.76.31-1.87.8-2.81.99-.21-.36-1.71-3.34-1.74-.82-1.05-.23-1.07-.13-.58-.16-.23-.13-.86-.75-.92-.82-.33-.46-.48-.38-1.42-.54-.55-.05-.18-.12-.92-.69-.6-.46-.48-.17-.98-.34-.55-.14-1.11-.31-1.24-.34-.75-.08-1.09-.05-.15.17-.62.17-.21.31-.29.42-.15.27-.04.11-.06.36-.11.61-.57.24-.5-.03-.58-.03-.38.08-.31-.03-.2.41-.09.2-.02.19-1.01-.23-1.09-.26-1.03-.43-.48-.16-.71-.24-.61-.07-.2.37-.44.74-.17-.04-.1.05-.18.28-.08.13-.04.04-.08.02-1.41.23-.88-.05-1.68-.46-.35.67-1.27-.22-.81-.04-.23.08-.21.06-.53.33-.16.44-.03.09-1.55.06-.45-.02-2.32-.2-.74-.31-1.03-.47-2.1-.68-.27-.08-.91-.31-.35.94-.4,1-.39.82-.15.26-.63.94-.68,1.01-.54.8-2.1,3.12-2.03,3.11-2.16,3.24-.79,1.13-2.26,3.27-.87,1.2-.94,1.4-.26.33-.48.69-.47.69-.77,1.14-.7,1.02-.89,1.36-.51.77-1.49,2.22-.59.84-.49.67-1.24,1.61-.41.45-1.13,1.25-1.58,1.66-.31.32-.43-.4-.37-.32-1.83-1.41-3.33-2.56-1.94-1.49-3.53-2.89-2.89-2.38-.82-.67-.29-.24-.31-.23-.31-.22-.31-.21-.32-.2-.33-.19-.33-.18-.34-.17-.33-.16-.34-.15-.34-.13-.35-.13-.35-.12-.35-.11-.39-.11-.39-.09-.39-.09-.4-.07-.4-.06-.4-.05-.41-.04-.4-.03-1.45.07-3.87.44-4.74.53-6.89.72-5.98-6.61,1.52-5.02-2.54-2.84-3.64-2.47-1.4-.73-1.39-.85-2.93-1.7-.45-.33-8.32-5.59-5.53-3.47-.41-.26.4-.35,2.25-2.08,3.46-3.15,3.53-3.44,3.06-2.9,3-2.49,5.19-3.51,3.4-2.96,2.76-2.11,2.99-2.62,2.86-2.61,3.47-2.96,2.79-2.31,1.44-1.31,1.5-1.06,1.56-1.07,1.64-1.25,1.76-1.89,1.98-1.84,2.11-2.02,4.15-3.73,2.55-2.07,2.38-2.25.82-.83.74-1.12.68-.65,1.16-.84,1.43-1.36,2.73-2.55,2.85-2.73,2.51-2.29.45.31,3.08,2.06,3.15-.68,2.83-.96,4.19.71,1.14.93.67,1.05,1.17,1.1,1.39.81.97,1.2-.65.24,5.26,3.99,2.22,1.54,2.49,1.86,1.58,1.2,2.03-2.64,1.4-1.67,1.86-1.84.13.1,3.79,3.2-3.09,3.34,4.89,3.79,1.54-.73,5.18,3.68-5.05,4.83,4.36,3.19,8.05,5.8Z"/>
        <path class="cls-1" d="M423.84,400.49l-1.66,1.98-.6.09-2.32,1.01-2.89,2.36-2.22-1.39-.19.02-3.6.32-1.65-.45-5.39-2.31-.2-.13-2.52-1.27-2.28-.73-1.75.24-3.05-1.55-1.61,1.96-1.39,1.55-2.72,2.98-1.39-.75-.43-.48-.34-.48-.13-.52.18-.45-.48-.51-.29-.47-.9-.22-.85.12-.69-.09-.65-.15-1.12.33-.82.18h-.03s-.02,0-.02,0h-.19s0,0,0,0h-.04s0,0,0,0h-.02s0-.02,0-.02h-.04s0-.02,0-.02h-.03s0-.02,0-.02h-.02s0-.02,0-.02h0s0-.02,0-.02h-.02s0-.02,0-.02h0s0-.02,0-.02v-.02s-.02,0-.02,0h0s0-.02,0-.02v-.02s0,0,0,0h0s0-.03,0-.03h0s0-.03,0-.03h0s0-.02,0-.02v-.02h0s0-.03,0-.03h0v-.03h0v-.03h0v-.03h0s0-.02,0-.02v-.02h0s0-.03,0-.03h0s0-.03,0-.03h0s0-.02,0-.02v-.02s0,0,0,0h0s.52-.83.52-.83l-.31-.25-1.26-.83-.79-.36-1.01-.18-1.06-.36-1.47-.51-.48.2-.53.39-.33-.25-.94-.57-1.78-.11-1.21-.25-.33-.23-.78-1.1-1.05-1.06-.38-.26-.94-.39-1.45-.67-.8-.66-.26-1.58-.74-1.72-.32-.29-1.46-.81-2.12-1.11-1.43.51-2.38-1.68,1.12-1.1,3.99-3.9.69-.68,3.33-3.28,7.38-7.27.68-.67,5.67-5.6.6-.55,3.55,2.63,6.05,4.18,3.31,2.75.98.83.56.44.51.48.19.19.24.12.29.12.14.18v.13s.42.16.42.16l.85.27.94.22.72.16,1.05.31.58.08.78.12.75.35.87.43.09.34.64.45,1.26.92,1.64,1.24,3.02,2.12-.78.95-.39.42-.65.83-.42.76-.39.69-.26.44-.29.43-.6.82,3.45,2.15,1.41.74.2.11.2.11.2.13.19.12.19.14.18.14.31.29.2.17.21.17.21.16.21.15.23.15.23.14,2.1,1.13.88.65,2.02,1.43,7.91,4.81Z"/>
        <path class="cls-1" d="M376.62,362.46l-.34.35-5.85,5.77-6,5.92-.75.74-6.14,6.05-4.38,4.28-.68.67-3.35,3.32-.65.71-.63.74-1.64,1.97-1.53,1.81-1.16,1.38-1.38,1.64-.56.62-3.57,3.62-.73.74-1.89,1.91-.27.28-8.05-5.8-4.36-3.19,5.05-4.83-5.18-3.68-1.54.73-4.89-3.79,3.09-3.34-3.79-3.2-.13-.1-1.86,1.84-1.4,1.67-2.03,2.64-1.58-1.2-2.49-1.86-2.22-1.54-5.26-3.99.65-.24-.97-1.2-1.39-.81-1.17-1.1-.67-1.05-1.14-.93-4.19-.71-2.83.96-3.15.68-3.08-2.06-.45-.31.29-.26,1.91-1.9,1.69-1.83,2.12-2.19,2.04-1.89,2.18-2.19,1.09-1.42,1.9-1.9,2.31-2.37,2.59-2.24,1.5-1.43.61-1.18,3.3-3.6,1.91-1.83,2.18-2.19,3.2-3.14,5.1-5.5,2.52-2.54.53.33,8.87,5.74,7.13,2,.38-.38,3.24,1.46,2.74,1.44,1.85,1.3-.69.85-.13.1,3.15,2.99,1.81,1.08,3.43,2.07,3.37,2.03,3.79,2.1.66-.36.98-.28,1.86-.03,3.62-1.3,4.35,3.61-2.19,2.33,9.37,6.42Z"/>
        <path class="cls-1" d="M423.84,400.49l-7.91-4.81-2.02-1.43-.88-.65-2.1-1.13-.23-.14-.23-.15-.21-.15-.21-.16-.21-.17-.2-.17-.31-.29-.18-.14-.19-.14-.19-.12-.2-.13-.2-.11-.2-.11-1.41-.74-3.45-2.15.6-.82.29-.43.26-.44.39-.69.42-.76.65-.83.39-.42.78-.95-3.02-2.12-1.64-1.24-1.26-.92-.64-.45-.09-.34-.87-.43-.75-.35-.78-.12-.58-.08-1.05-.31-.72-.16-.94-.22-.85-.27-.41-.16v-.13s-.15-.18-.15-.18l-.29-.12-.24-.12-.19-.19-.51-.48-.56-.44-.98-.83-3.31-2.75-6.05-4.18-3.55-2.63.44-.35,4.1-3.16,1.02-.78,3.8-2.92,2.78-2.2,3.34-2.59,1.22-.94.87-.67,1.01-.89,3.33-3.27,2.03-1.83,2.88-2.42.76-.63,2.76-2.3.77-.58.92-.59,5.47-3.46,4.13-2.82.62-.46,1.98-1.56,1.27-.98.38-.31.79-.62,6.13,4.93,2.13,1.72.34.32,1.88,1.76,1.83,1.79.99,1.1,3.54,4.51.88,1.32.88,1.59-1.37,4.53,1.73,1.72-2.19,6.08-1.41,5.18-.05.16-.05.16-.06.16-.06.16-.07.15-.08.15-.08.15-.09.15-.09.14-.1.14-.11.14-3.32,4.24-.17.28-.15.28-.15.29-.13.29-.12.29-.12.29-.1.3-.07.36-.04.17-.04.17-.05.17-.06.17-.06.17-.07.16-.08.16-.08.16-.09.16-.09.15-.1.15-.11.15-.11.14-.12.14-2.96,4-1.84,2.53-.42.71-.79,1.56-.45.65-.49.61-.55.69-1.49,2.41-.29.42-.11.13-.47.51-.46.43,4.16,2.8,1.68,1.11,1.45,1.03-6.63,7.17Z"/>
        <path class="cls-1" d="M376.62,362.46l-9.37-6.42,2.19-2.33-4.35-3.61-3.62,1.3-1.86.03-.98.28-.66.36-3.79-2.1-3.37-2.03-3.43-2.07-1.81-1.08-3.15-2.99.13-.1.69-.85-1.85-1.3-2.74-1.44-3.24-1.46-.38.38-7.13-2-8.87-5.74-.53-.33,1.36-1.37,2.52-2.31,1.91-1.66.54-1,.89-.89,1.43-1.37.95-1.24,1.43-1.36,1.29-1.31,2.54-2.82,1.7-2.19,2.58-2.96,2.05-2.08,1.5-1.59,1.02-1,1.29-1.01,1.16-.77,1.08-.9.42.17.88.34,2.2-.32,2.22-.34.43-.19,1.88-.83,1.79-.06,1.16-.05,1.81-.75.45-.06.42-.06,1.23-.66,1.3-.68,7.33-3.99,1.57-.86,6.15-1.48.22-.06,5.27.42,1.6.18,1.74-.08,1.77-.09.66-.03,1.23.27,1,.21,2.91-.65,3.66-.24,3.49,1.08.89-.29,1.13.56.6.46.38.6,1.03,3.8.44,1.33-.16.24-.74.28.05.18.42-.07.07.27-.23,1.32,3.78,4.46,4.51,2.73,2.75-.15,3.12-.16,2.4.4,2.12.31,1.1.04.79.02h.78s1.15,0,1.15,0l.98.35,4.46,1.07,1.14.55.24.06,3.44,1.9,1.38,1.32-2.27,2.59-2.67,1.72-1.74.99-2.57,2.12-2.73,2.16-.83.65-5.29,4.14-2.35,1.8-2.56,1.74-1.16.8-1.79,1.13-3.66,2.31-.54.34-1.22.89-2.45,2.04-2.34,1.95-.98.82-2.76,2.48-2.83,2.79-.46.44-1.01.89-1.5,1.15-2.25,1.73-.82.64-3.21,2.55-3.98,3.06-5.99,4.61Z"/>
        <path class="cls-1" d="M448.82,343.41l-.86-.58-.99-1.18-.14-1.25-.97-1.3-1.74-.75-.82-1.29.29-1.07.13-.78-.06-1.19-2.13-1.32.87-3.49,1.02-1.78,1.51-3.81,1.31-3.28,1.33.86.26-.67-.29-.23.78-3.35-1.55.16-1.61-.91-2.1-.36-2.23-1.28-.35-.94,2.96-2.95.71-.73,3.4-3.44,4.25-3.76,3.25-2.55,4.67-3.32,1.91-1.33,2.46-1.82.96-.9.18-.17.02-.02.02-.02.03-.02.02-.02.03-.02h.02s.03-.03.03-.03h.03s.03-.03.03-.03h.03s.03-.03.03-.03h.02s.04-.02.04-.02h.03s.03-.02.03-.02h.03s.03,0,.03,0h.03s.04-.02.04-.02h.09s.04,0,.04,0h.13s.03,0,.03,0h.07s.03,0,.03,0h.03s.03.02.03.02h.03s.03.02.03.02h.03s.03.02.03.02h.03s.03.03.03.03h.03s.03.02.03.02l.03.02.02.02h.03s.02.03.02.03l.03.02.24.2.08.06.09.06.08.06.09.05.09.05.09.05.1.05.09.04.1.04.1.04.1.04.1.03.11.03.1.03.11.02.1.02.11.02h.11s.1.02.1.02h.11s.11.02.11.02h.32s.11-.02.11-.02h.1s.11-.02.11-.02l.11-.02.1-.02.11-.02.1-.03.11-.03,7.9-2.4,9.34-2.81,8.62-2.71,1.61-.51-.64,1.52-.32,2.14.04.39v.55s-.08.69-.08.69l-.38,1.66-.65,2.79-.05.2h0s0,0,0,0h0v.02h0v.02h0v.02h0v.02h0s0,.02,0,.02h0s0,.02,0,.02h0s0,.02,0,.02h0s2.19,1.69,2.19,1.69l13.25,9.77,1.66.54,1.36.77.51.34-5.17,5.73-5.76,6.4-3.13,3.46-5.71,6.08-13.93,15.1-6.63,6.9h0s0,0,0,0h0s0,0,0,0h0s0,0,0,0h0s0,0,0,0h0s0,0,0,0h-.02s0,0,0,0h-.11s0,0,0,0h-.02s0,0,0,0h0s0,0,0,0h0s-7.76-5.99-7.76-5.99l-10.41,6.87-6.81-9.31Z"/>
        <path class="cls-1" d="M434.85,268.92l2.9-2.12.65.42,1.06.81,3.04,2.75,2.63,2.31,1.52,1.51,3.42,3.05,1.66,1.49,1.11,1,.39.35,3.65,3.15,3.3,2.85,1.84,1.62.59.53,2.08,1.87.02.02.02.02.02.03.02.02v.02s.03.03.03.03l.02.03v.02s.02.03.02.03v.02s.02.03.02.03v.03s.02.03.02.03v.03s.02.02.02.02v.09s0,.03,0,.03v.11s0,.03,0,.03v.03s0,.03,0,.03v.03s-.02.02-.02.02v.03s-.02.03-.02.03v.02s-.03.03-.03.03v.03s-.03.02-.03.02v.03s-.03.02-.03.02l-.02.03-.02.02-.02.02-.02.02-.02.03-1.48,1.38-2.39,1.76-1.9,1.32-5.17,3.68-2.82,2.25-4.35,3.84-2.69,2.74-4.27,4.29-.85-.45-1.03-1.51-1.78-1.24-1.73-.77-.8-.19-.83-.22-.75-.1-.3.06-5.14-1.31-3.1-.28-2.19-.45-6.5-.36-3.15-.82-1.39-2.44-.62-1.04-1.25-1.87-1.79-1.75.72-3.8-.07-1.3-.19-1.02-.75-1.51-.94-1.36-1.62-1.05.04-3.41,2.06-.91,3.51-1.56.38-.26,2.14,1.93,1.33-.71,4.97-3.01,4.63-2.86,4.65-3.15,3.93-2.66,3.67-2.56Z"/>
        <path class="cls-1" d="M418.72,271.45l-9.15,9.26-1.95,2.18-3.17-.75-1.06.65-.46.33-3.16-1.26-2.69-1.83,8.64-8.04,5.82-5.74,7.19,5.2Z"/>
        <path class="cls-2" d="M554.31,301.04l-1.48,1.09-3.25,2.72-4.41,3.54-4.18,3.63-5.82,5.07-2.55,2.25-4.24,2.78-1,.97-.64,1.11-.61,1.25-.84,1.17-1.94,1.83-3.25,3.39-3.46,3.64-3.25,3.11-1.28,1.21-.66.41-.81.26-1,.29-.89.2-1.39.39-1.89.44-2.65.53-1.3.38-1.3.61-2.21,1.38-2,1.15-3.35,1.72-1.01.84-.7.8-.96,1.26-.49,1.18-.57.94-.78.73-1.54,1.75-1.86,2.19-1.15,1.43-.86,1.27-.54,1.08-.87,2.13-.32,1.05-.33.79-.46.71-.8.64-1.32,1-1.58,1.52-1.81,1.86-1.4,1.42-.82,1-1.21,1.24-.94,1.24-1.05,1.01-.78.78-.6.52-.92.17-.29.03-1.2.12-1.35.33-1.35.51-.78.5-1.17,1.25-.54.94-.44.73-.45.59-.82.82-.59.21-.67.33-.84.25-1.01.42-1.02.7-.86.65-1.27,1.45-1.47.89-1.99,1.15-2.2,1.39-2.05,1.11-1.57,1.04-2.15,1.67-1.72,1.31-.48.95-.05.96-.11,1.24-.6.35-.67.29-.68.37-.64.59-.59.66-.75.95-.83.28h-1.26s-1.24.11-1.24.11l-1.45.37-1.11.51-.67.54-.35.43-.21.6-.34.75-.48.48-.55.31-.69.24-.72.67-.46.62-.16.73-.7.71-1.01.22-.67.11-1.07-.25-1.12-.39-.84.43-1.27.67-1.49.87-2.33,1.11-1,.51-.42.49-.1.77-.23.89-.51.94-.74.79-1.15,1.15-1.43,1.53-1.81,1.81-1.25,1.53-.61.83-.83.72-.94.26-1.02.32-1.24.71-1.48,1-1.01.69-.68.96-.44.96-.27.98-.49,1.41-.89,1.68-.98,1.72-.94,1.49-.95,1.22-1.16,1.11-1.1,1-1,.87-.99.78-1.22.87-.94.63-.96.65-.74.83-.59.94-.68.97-.53.52-.92.45-1.23.58-1.13.38-.57.44-.7.71-.98.94-.94,1.1-.83.87-1.06.97-1.71,1.35-2.55,1.8-2.02,1.81-2.63,2.33-.67.85-.04.61.25.46.85,1.09.32.76-.38.79-.42.31-.54.38-.75.74-.34.43-.16.67-.16,1.1-.4,1.19-.71.33-.81.29-.78.54-.53.59-.76.99-.98,1.48-1.43,2.01-1.48,1.92-1.86,2.57-1.47,2.19-1.22,2.22-.36.5-.06.81.08,1.15.39,1.05-.19.73-1.12.77-.48.54-.13.8v1.01s.4,1.31.4,1.31l.33,1.56-.76.88-.77.94-1.16.94-.69.67-1.33,1.1-.11.09.19.47.88,1.8.18,1.13-.32,1.05-.31.7-.51.59-1.05.56-1.25.48-1.03.41-.93.08-.78-.14-1.13-.61-.96-.5-.92-.12-.85.19-.77.43-.82,1.09-.67,1.04-.36,1.17-.37,1.32-.22,1.29-.15.94-.31,1.16-.76,1.33-.59,2.7-.43,2.72-.15,1.66-.14,1.11.25,2.1.73,3.51.5,3.66.73,3.85.58,4.12.35,4.64.27,3.64,1.4,9.57.52,6.03.65,3.38,1.08,5.5-.93-.86-3.73-3.38-2.4-2.17-1.91-1.61-.87-.69-1.51-1.22-1.09-.8-1.64-1.44-7.95-7.19,1.36-.94-.9-.02-2.5.03-1.24.03-1.99.03-1.64-.02-.53-.02-1.46-.13-1.72-.12-1.56-.06-1.72-.07-1.78-.04h-1.68s-1.89.09-1.89.09l-.91.1-1.54.12-1.48.09-1.84.11-1.66.1-1.91.16-2.2.26-.87.11-.61.08-1.48.19-.54.13-1.2.26-1.31.34-.07-.18-.35-.93-.09-.19-.27-.11-.5-.05-.75-.03-.19-.02-.8-.16-.19-.11-.4-.23-.15-.33-.04-.54-.08-.43-.91-1.43-.54-.35-.52-2.48v-.05s-.65.37-.65.37l-1.41.72-.94.51-1.28.72-.94.35-.49.19-1.06.64-1.23.74-1.07.8-3.63-3.27-2.46-2.32-.55.43-2.03-2.25-.69-.64-1.55-1.36-1.03-.91-.84-.76-.41-.41-.21-.24-.1-.14h.31l.84.05.94.04.88.02.79-.24,2.21-.68,1.38-.51.08-.04,1.01.89,2.38,2.19,1-.44,2.07-.64,2.94-.99,1.63-.48,1.8-.44,1.75.03,2.74.04,1.77-.05.9.03,1.51.2,1.63.25,2.2.36,1.03.02,1.2-.06,3.07-.41,1.2-.14,1.46-.35,1.98-.73,1.4-.6,1.22-.64.38-.26.44-.36.48-.52.2-.2.45-.38.54-.46.72-.55,1.69-1.67,1.06-1.28.57-.7,1.62-1.49,1.51-1.34.4-.4.97-1.08,1.35-1.46.48-.52,1.32-1.24.51-.54.35-.41.22-.27.26-.38.77-1.24.44-.76.19-.41.16-.4.19-.47.5-1.22.61-1.07.56-.73.06-.09.07-.1.06-.09.05-.1.05-.1.05-.1.04-.1.04-.1.04-.11.03-.1.02-.11.03-.1.28-1.4.32-1.15.24-.84.55-1.75.46-1.16.31-.61.33-.54.25-.45.11-.24.34-.71,1.21-2.54.89-1.86.7-1.41.35-.73.22-.38.09-.15.4-.67.44-.93.33-.98.2-.48.34-.56.68-1.55.38-1.74.02-.06.02-.07.02-.07.02-.06.03-.07.03-.07.03-.06.03-.06.04-.06.04-.06.04-.06.05-.06.04-.06.05-.05.05-.06.05-.05.06-.05.06-.05.05-.05.06-.05.07-.04,2.79-1.92.14-.11.14-.1.14-.11.13-.12.13-.12.13-.12.12-.12.11-.13,1.64-1.87.11-.14.12-.15.1-.14.1-.15.1-.15.09-.16.08-.15.08-.16.07-.17.41-1.14.29-1.18.19-.79.03-.14.04-.13.05-.14.05-.13.06-.13.06-.13.06-.13.07-.12.08-.12.08-.12.09-.12.09-.12.09-.11.1-.11.11-.11,1.74-1.74,2.46-2.72,2.02-2.94,5.85-8.81.41-.54,2.57-2.93-3.56-2.13-1.36-1.06-2.77-2.41-2.44-2.13.95-1.03.78-1,.34-.47.74-1.07,1.23-2.07,1.14-1.75.71-1.34.2-.95-.05-.81-.58-.21-1.01-.64-1.28-1.12-.51-.56-.45-.29-.31-.11-.94-.31-.7-.26-.51-.36-.42-.33-.95-.57-.94-.32-.56-.15-2.02-.56-.96-.22-.98.07-.62.22-.35.52-.5,1.51-.79.3-1.11-.07h-.24s-.2.14-.2.14l-.16.32v.02s-.02.02-.02.02h0s0,.03,0,.03v.02s-.02,0-.02,0v.02s-.03,0-.03,0v.02s-.02,0-.02,0h-.02s0,.03,0,.03h-.02s-.02.02-.02.02h0s-.02.03-.02.03h-.02s-.02.02-.02.02h-.02s0,.02,0,.02h-.02s-.02,0-.02,0h-.02s-.02.02-.02.02h-.05s-.02.02-.02.02h-.06s-.02,0-.02,0h-.2s-.02,0-.02,0h-.02s-1.91-.45-1.91-.45l-.29-.12-.73-.31-.47-.16-.82-.24-.24.12-.33.61-.3.22-.14.09-.12.19-.08.11-.28.16-.16.06-1.36.22-1.04-.06-.9-.25-.27-.07h-.12s-.16.09-.16.09l-.06.08-.05.07-.13.1-.12.06-.15.06h-.14s-.16.02-.16.02l-.28-.02-.75-.14-.39-.02-.63.14-.29.17-.19.1-.37.16.16-.44.53-.33.21-.06.23-.08.81.04,1.27.22.35-.67,1.68.46.88.05,1.41-.23.08-.02.04-.04.08-.13.18-.28.1-.05.17.04.44-.74.2-.37.61.07.71.24.48.16,1.03.43,1.09.26,1.01.23.02-.19.09-.2.2-.41.31.03.38-.08.58.03.5.03.57-.24.11-.61.06-.36.04-.11.15-.27.29-.42.21-.31.62-.17.15-.17,1.09.05.75.08,1.24.34,1.11.31.55.14.98.34.48.17.6.46.92.69.18.12.55.05,1.42.54.48.38.33.46.92.82.86.75.23.13.58.16,1.07.13,1.05.23,1.74.82,1.71,3.34.21.36,2.81-.99,1.87-.8.76-.31,3.57-1.28,1.31-.55.53-.28,2.24-1.24,2.2-1.21,3.57-2.16.32-.19.31-.21.3-.21.3-.23.29-.23.28-.24.29-.26,1.49-1.37.63-.55.5-.37,4.25-2.79.97-.8,2.53-2.62.58-.72,1.35-1.93.46-.57.16-.25,1.81-.45-.06-1.09-.1-.67-.25-1.32,1.62.35,2.07.45,1.59.27,2.22.43,1.51.44,2.08.76.18.08,2.13-1.71,1.22.41,1.98,1.09,1.67-3.1-1.6-.67,1.71-1.48,2.49-1.41,1.77-4.29-.34-2.88,2.13-.17,2.3-.27.16-2.08h1.37s1.77.51,1.77.51l.36-1.44-1.37-.41-.35-1.44.19-.02,2.22,1.39,2.89-2.36,2.32-1.01.6-.09,1.66-1.98,6.63-7.17-1.45-1.03-1.68-1.11-4.16-2.8.46-.43.47-.51.11-.13.29-.42,1.49-2.41.55-.69.49-.61.45-.65.79-1.56.42-.71,1.84-2.53,2.96-4,.12-.14.11-.14.11-.15.1-.15.09-.15.09-.16.08-.16.08-.16.07-.16.06-.17.06-.17.05-.17.04-.17.04-.17.07-.36.1-.3.12-.29.12-.29.13-.29.15-.29.15-.28.17-.28,3.32-4.24.11-.14.1-.14.09-.14.09-.15.08-.15.08-.15.07-.15.06-.16.06-.16.05-.16.05-.16,1.41-5.18,2.19-6.08-1.73-1.72,1.37-4.53-.88-1.59-.88-1.32-3.54-4.51-.99-1.1-1.83-1.79-1.88-1.76-.34-.32-2.13-1.72-6.13-4.93-.79.62-.38.31-1.27.98-1.98,1.56-.62.46-4.13,2.82-5.47,3.46-.92.59-.77.58-2.76,2.3-.76.63-2.88,2.42-2.03,1.83-3.33,3.27-1.01.89-.87.67-1.22.94-3.34,2.59-2.78,2.2-3.8,2.92-1.02.78-4.1,3.16-.44.35-.6.55-5.67,5.6-.68.67-7.38,7.27-3.33,3.28-.69.68-3.99,3.9-1.12,1.1-4.12,4.08-.65.7-2.83,3.38-3.49,4.16-.57.62-.55.56-1.92,1.95-2.56,2.6-.86.87-.6.6-5.68,5.17-.07-.05-.59-.43-.32-.2,5.4-4.9.31-.28.27-.28,1.89-1.91.73-.74,3.57-3.62.56-.62,1.38-1.64,1.16-1.38,1.53-1.81,1.64-1.97.63-.74.65-.71,3.35-3.32.68-.67,4.38-4.28,6.14-6.05.75-.74,6-5.92,5.85-5.77.34-.35,5.99-4.61,3.98-3.06,3.21-2.55.82-.64,2.25-1.73,1.5-1.15,1.01-.89.46-.44,2.83-2.79,2.76-2.48.98-.82,2.34-1.95,2.45-2.04,1.22-.89.54-.34,3.66-2.31,1.79-1.13,1.16-.8,2.56-1.74,2.35-1.8,5.29-4.14.83-.65,2.73-2.16,2.57-2.12,1.74-.99,2.67-1.72,2.27-2.59-1.38-1.32-3.44-1.9-.24-.06-1.14-.55-4.46-1.07-.98-.35h-1.15s-.78,0-.78,0l-.79-.02-1.1-.04-2.12-.31-2.4-.4-3.12.16-2.75.15-4.51-2.73-3.78-4.46.23-1.32-.07-.27-.42.07-.05-.18.74-.28.16-.24-.44-1.33-1.03-3.8-.38-.6-.6-.46-1.13-.56-.89.29-3.49-1.08-3.66.24-2.91.65-1-.21-1.23-.27-.66.03-1.77.09-1.74.08-1.6-.18-5.27-.42-.22.06-6.15,1.48-1.57.86-7.33,3.99-1.3.68-1.23.66-.42.06-.45.06-1.81.75-1.16.05-1.79.06-1.88.83-.43.19-2.22.34-2.2.32-.88-.34-.42-.17.42-.35,1.63-1.59,2.38-2.43,2.65-2.73,2.25-1.9,1.04-1.27.4-.48.73-.91,1.69-2.01,2.05-2.02,2.8-2.84,3.06-3.26,2.66-2.48,4.44-4.62,2.32-2.24,1.08-1.43,1.36-1.77,3.13-2.96,2.52-2.83,2.05-2.14,1.7-1.54,3.53-3.55,2.52-2.96,3.13-3.02,2.59-2.78,2.86-2.84,4.22-4.38,3.15-3.48,2.38-2.43,3.21-3.14,2.8-2.61,1.15-1.12,2.32-1.9,2.86-2.31,2.73-2.78,1.63-1.72,1.77-1.65,1.91-2.37,1.56-1.65,1.32-1.22.42.34,5.06,4.08,2.53,1.83.95.62,2.78,1.74,8.2,12.81.82.8.79,1.13,2.57,2.93.69.56-6.29,10.71,4.63,3.35-4.93,6.25-.56.56.33.34,1.73,1.04,4.84,2.91,5.37,1.9,2.56-1.03,3.4,2.74,4.07,3.8,7.66,1.61,3.91-2.7.41-.25,1.34-1.14.36.52.36-.28h.49s1.23.49,1.23.49l1.2.85.68.3,2.18.64,2.1-2.29-.31-.31.96-.83.17-.16,2.78-2.16.7-.63,1.32.98-.13.67.33-.3.1.59.05.26-.34.44-.28.12-.52.5,3.44,2.11,4.85,2.97,1.33-1.48,1.96,1.05-3.43,4.54,5.57,4.42,5.56,4.32,7.82,6.34,3.24,2.79,4.93,4.28.34.3.31-.19.07-.03.06-.04.06-.05.06-.04.06-.04.05-.05.06-.05.05-.05.05-.05.04-.06.05-.05.04-.06.04-.05.04-.06.04-.06.03-.06.03-.06.03-.07.02-.06.03-.06.02-.07.02-.06v-.07s.02-.07.02-.07v-.06s.02-.07.02-.07v-.07s.47-3.08.47-3.08l.36-1.26.09-.23,14,9.88ZM448.82,343.41l6.81,9.31,10.41-6.87,7.76,5.98h0s0,0,0,0h0s0,0,0,0h.02s0,0,0,0h0s0,0,0,0h.12s0,0,0,0h.02s0,0,0,0h0s0,0,0,0h0s0,0,0,0h0s0,0,0,0h0s6.63-6.91,6.63-6.91l13.93-15.1,5.71-6.08,3.13-3.46,5.76-6.4,5.17-5.73-.51-.34-1.36-.77-1.66-.54-13.25-9.77-2.19-1.68h0s0-.02,0-.02h0s0-.02,0-.02h0s0-.02,0-.02h0s0,0,0,0h0v-.02h0s0-.02,0-.02h0v-.02h0v-.02h0s.05-.21.05-.21l.65-2.79.38-1.66.09-.69v-.55s-.05-.39-.05-.39l.32-2.14.64-1.52-1.61.51-8.62,2.71-9.34,2.81-7.9,2.4-.11.03-.1.03-.11.02-.1.02-.11.02h-.11s-.1.02-.1.02h-.11s-.11.02-.11.02h-.32s-.11-.02-.11-.02h-.1s-.11-.02-.11-.02l-.11-.02-.1-.02-.11-.02-.1-.03-.11-.03-.1-.03-.1-.04-.1-.04-.1-.04-.09-.04-.1-.05-.09-.05-.09-.05-.09-.05-.08-.06-.09-.06-.08-.06-.24-.2-.03-.02-.02-.02h-.03s-.02-.03-.02-.03l-.03-.02h-.03s-.03-.02-.03-.02l-.03-.02h-.03s-.03-.02-.03-.02h-.03s-.03-.02-.03-.02h-.03s-.03-.02-.03-.02h-.03s-.03,0-.03,0h-.04s-.03,0-.03,0h-.07s-.03,0-.03,0h-.13s-.03,0-.03,0h-.07s-.03.02-.03.02h-.06s-.03.02-.03.02h-.03s-.04.02-.04.02h-.02s-.03.03-.03.03h-.03s-.03.03-.03.03h-.03s-.03.03-.03.03h-.02s-.03.03-.03.03l-.02.02-.03.02-.02.02-.02.02-.18.17-.96.9-2.46,1.82-1.91,1.33-4.67,3.32-3.25,2.55-4.25,3.76-3.4,3.44-.71.73-2.96,2.95.35.94,2.23,1.28,2.1.36,1.61.91,1.55-.16-.78,3.35.29.23-.26.67-1.33-.86-1.31,3.28-1.51,3.81-1.02,1.78-.87,3.49,2.13,1.32.06,1.19-.13.78-.29,1.07.82,1.29,1.74.75.97,1.3.14,1.25.99,1.18.86.58ZM434.85,268.92l-3.67,2.56-3.93,2.66-4.65,3.15-4.63,2.86-4.97,3.01-1.33.71-2.14-1.93-.38.26-3.51,1.56-2.06.91-.04,3.41,1.62,1.05.94,1.36.75,1.51.19,1.02.07,1.3-.72,3.8,1.79,1.75,1.25,1.87.62,1.04,1.39,2.44,3.15.82,6.5.36,2.19.45,3.1.28,5.14,1.31.3-.06.75.1.83.22.8.19,1.73.77,1.78,1.24,1.03,1.51.85.45,4.27-4.29,2.69-2.74,4.35-3.84,2.82-2.25,5.17-3.68,1.9-1.32,2.39-1.76,1.48-1.38.02-.03.02-.02.02-.02.02-.02.02-.03.02-.02v-.03s.03-.02.03-.02v-.03s.03-.03.03-.03v-.02s.02-.03.02-.03v-.03s.02-.02.02-.02v-.03s0-.03,0-.03v-.03s0-.03,0-.03v-.03s0-.02,0-.02v-.12s0-.03,0-.03v-.05s-.02-.03-.02-.03v-.03s-.02-.03-.02-.03v-.03s-.02-.02-.02-.02v-.03s-.02-.02-.02-.02l-.02-.03-.02-.03v-.02s-.03-.02-.03-.02l-.02-.03-.02-.02-.02-.02-2.08-1.87-.59-.53-1.84-1.62-3.3-2.85-3.65-3.15-.39-.35-1.11-1-1.66-1.49-3.42-3.05-1.52-1.51-2.63-2.31-3.04-2.75-1.06-.81-.65-.42-2.9,2.12ZM418.72,271.45l-7.19-5.2-5.82,5.74-8.64,8.04,2.69,1.83,3.16,1.26.46-.33,1.06-.65,3.17.75,1.95-2.18,9.15-9.26Z"/>
        <path class="cls-1" d="M673.67,210.13l-2.62.37-3.98.79-2.74.43-1.96.47-1.82.76-2.51,1.3-.46.32-.27.18-1.04.73-1.84,1.31-2.13,1.43-2.09,1.45-5.07,4.11-3.76,2.82-5.13,3.74-6.67,4.74-4.08,3.25-7.06,5.22-3.35,2.9-2.34,2.32-2.37,2.69-2.56,1.79-5.46,4.26-2.07,1.41-1.74.64-3.42,1.51-.5.7-.37.75-.55,1.4-2.16,2.75-2.81,3.67-4.87,5.48-.92.53h-1.25s-1.49-.08-1.49-.08l-1.56.15-1.7.47-1.56,1.02-2.46,2.14-6.19,6.5-2.44,2.03-2.57,2-1.53,1.84-1.2,1.48-1.69,2.41-.76,1.51-.77,1.79-1.14,1.19-.35.26-14-9.88-.09.23-.36,1.26-.46,3.08v.07s-.02.07-.02.07v.06s-.02.07-.02.07v.07s-.03.06-.03.06l-.02.07-.03.06-.02.06-.03.07-.03.06-.03.06-.04.06-.04.06-.04.05-.04.06-.05.05-.04.06-.05.05-.05.05-.06.05-.05.05-.06.04-.06.04-.06.05-.06.04-.07.03-.31.19-.34-.3-4.93-4.28-3.24-2.79-7.82-6.34-5.56-4.32-5.57-4.42,3.43-4.54-1.96-1.05-1.33,1.48-4.85-2.97-3.44-2.11.52-.5.28-.12.34-.44-.05-.26-.1-.59-.33.3.13-.67-1.32-.98-.7.63-2.78,2.16-.17.16-.96.83.31.31-2.1,2.29-2.18-.64-.68-.3-1.2-.85-1.23-.48h-.49s-.36.27-.36.27l-.36-.52-1.34,1.14-.41.25-3.91,2.7-7.66-1.61-4.07-3.8-3.4-2.74-2.56,1.03-5.37-1.9-4.84-2.91-1.73-1.04-.33-.34.56-.56,4.93-6.25-4.63-3.35,6.29-10.71-.69-.56-2.57-2.93-.79-1.13-.82-.8-8.2-12.81-2.78-1.74-.95-.62-2.53-1.83-5.06-4.08-.42-.34,1.23-1.12,4.42-4.91,3.47-3.67,3.61-3.44,2.11-2.78,3-3.43,2.04-2.67,2.8-2.19.95-1.06.89-.77.55-.59.27-1.12,1.9-1.95,2.54-3.23,3-3.44,1.76-2.13,1.02-1.71,1.62-2.13,1.15-1.89.82-1,.68-1.18v-1.06s-.63-.76-.63-.76l-1.11-.88-.76-.94.47-.31,1.31-.53,1.24.7,1.45.7,1.58.17.89-.31.14-.89v-.64s.89-.25.89-.25l1.02-.47,1.23-.72,1.37-.65,1.38-1.87.82-.6,1.63-1.36,2.18-3.13,4.22-4.73,2.05-2.61,1.7-1.42,2.73-2.9,2.85-3.66,3.75-3.85,4.77-4.91,4.52-5.2,2.05-1.71,1.09-.95,1.44-1.36,2.38-2.95,1.08-1.24.68.35,6.02,3.21.69.37,14.59,8.11.55.35,6.99,5.26.34.24.12.27,2.06,1.46,2.6,1.85,2.44,1.73.29.21,2.75,1.95,1.97,1.41,4.26,3.05,1.34.95v.33l2.21,1.69.71.54.31.22,1.05.94.22.31.52.43.8.33,1.19.2,1.57.27.17.06.18-.46.7.6.53-.05.35.31.46.43.28.26.12.2-.7,1.11.41.34-.08.92.2.31-.25.47-1.15-.4-1.52.96.8.31.64.67-.28.19-1.12.88-1.47,1.15-.12.13.22.18-.38.54-1.13-.38-.56-.26-1.03.22-.46.07-.93-.04-2.31.85-3.28.77-2.11,1.25-2.95,1.98-.23.34,2.56,1.31.67.31.62-.74.22-.05,1.25.79.15.11,1.19.76.41.31.25.22.66.39.24.08.72.47,1.3.96.16.16.76.48.72.65.26-.25.77.57.3.23,2.13,1.79.37-.31.15.11.21.2-.32.26.13.12.53.42,1.12.89.13-.07.2.03.59.3.49.31.49-.68,1.69.66.83.31.32.05v.06l.43.09.59.25,1.13.34,1.15.46.91.34.57.17,1.07.37-1.43,2.57-.83,1.56-.53.8,1.81,1.61.43.39,2.32-1.04.59-.27.81-.35,1.18-.51.93-.23.72-.03,1.7-.37.65-.26,1.61,1.18.74.52,2.38-1.22.41-.21,2.18-1.1,2.04-1.15,1.55,1.56.71.57,1.1.79,2.03,1.4,1.34.65,1.49.77,1.44,1.42,1.53,2.2,3.71,2.39,4.53,4.15.85.72,3.66,3.19,1.3-1.56,1.73-2.37,2.41-3.3,2.3-3.03,2.52,1.84,4.54,3.19,3.03,2.09,5.12,3.66,4.44,2.95-1.02.22,1.33.92,3.29,1.5,6.9,3.19-1.19,1.37,2.15,2.32.51.55Z"/>
        <path class="cls-1" d="M674.47,146.56l1.2.74-.94.75-.95.73-.56.43-1.4,1.06-.93.89-.54.51-.94.9-.69.64,6.78,4.51.58.32,1.33.64.66.38,1.01.7.23.15,1.13.69.15.1,1.29.75.23.13,1.57.82,1.68,1.01.71.41.67.41,1.44.86.22.11,4.32,2.04.79.39.3.16.28.17,1.03.7.31.23.2.17,1.12,1,.49.51.92,1.16.5.76.26.45.64,1.35.65.95,1.3,1.44,1.51,1.72,2.81,3.34.94,1.1.43.6.29.5.64,1.12-.62.44-.51.36-.12.09-.46.33-1.05.77-.37.28-.23.19.2.12,6.53,3.12,7.15.9.45.05-2.21.83-3.48,1.9-2.14,1.07-4.74,1.74-2.66.94-1.01.53-1.97,1-1.63,1.06-2.38,1.59-1.98,1.54-1.99,1.55-1.59,1.08-1.74.79-1.68.55-3.24.55-3.99.73-4.06.55-2.86.41-.51-.55-2.15-2.32,1.19-1.37-6.9-3.19-3.29-1.5-1.33-.92,1.02-.22-4.44-2.95-5.12-3.66-3.03-2.09-4.54-3.19-2.52-1.84-2.3,3.03-2.41,3.3-1.73,2.37-1.3,1.56-3.66-3.19-.85-.72-4.53-4.15-3.71-2.39-1.53-2.2-1.44-1.42-1.49-.77-1.34-.65-2.03-1.4-1.1-.79-.71-.57-1.55-1.56-2.04,1.15-2.18,1.1-.41.21-2.38,1.22-.74-.52-1.61-1.18-.65.26-1.7.37-.72.03-.93.23-1.18.51-.81.35-.59.27-2.32,1.04-.43-.39-1.81-1.61.53-.8.83-1.56,1.43-2.57-1.07-.37-.57-.17-.91-.34-1.15-.46-1.13-.34-.59-.25-.43-.09v-.06l-.32-.05-.83-.31-1.69-.66-.49.68-.49-.31-.59-.3-.2-.03-.13.07-1.12-.89-.53-.42-.13-.12.32-.26-.21-.2-.15-.11-.37.31-2.13-1.79-.3-.23-.77-.57-.26.25-.72-.65-.76-.48-.16-.16-1.3-.96-.72-.47-.24-.08-.66-.39-.25-.22-.41-.31-1.19-.76-.15-.11-1.25-.79-.22.05-.62.74-.67-.31-2.56-1.31.23-.34,2.95-1.98,2.11-1.25,3.28-.77,2.31-.85.93.04.46-.07,1.03-.22.56.26,1.13.38.38-.54-.22-.18.12-.13,1.47-1.15,1.12-.88.28-.19-.64-.67-.8-.31,1.52-.96,1.15.4.25-.47-.2-.31.08-.92-.41-.34.7-1.11-.12-.2-.28-.26-.46-.43-.35-.31-.53.05-.7-.6-.18.46-.17-.06-1.57-.27-1.19-.2-.8-.33-.52-.43-.22-.31-1.05-.94-.31-.22-.71-.54-2.21-1.69v-.33l-1.34-.95-4.26-3.05-1.97-1.41-2.75-1.95-.29-.21-2.44-1.73-2.6-1.85-2.06-1.46-.12-.27-.34-.24-6.99-5.26-.55-.35-14.59-8.11-.69-.37-6.02-3.21-.68-.35,1.3-1.49.03-.05.78-1.16.55-.8,1.43-1.54,1.57-1.71,1.56-1.6,1.77-1.65,1.36-2.01,1.02-1.48,1.08-1.31,1.78-1.71,1.69-2.19,3.19-3.97.67.49,8.08,5.94,4.46,3.25,4.68,3.44,5.85,4.35,1.94,1.4,4.37,3.37,2,1.67,3.83,4.05,3.07-2.69,2.54-1.29.67-.33,1.63-1.24,4.13,3.38.7-1.03.22.36,2.6-.27,2.94-.3,2.85-1.23,3.34,3.25,1.72-.84,1.41,1.33.78.25.54-.6.89.43.5-.08.73-.47,1.12-.09.73-.64.63-.15.56-.31,1.79-.02,2.19,1.67.17-.27,2.82,1.48.87.68,1.2.98-1.29,2.33-1.03,1.88-1.57,3.07,2.57,1.57.85.81.43.67.37.98.53.54,3.98,2.93,2.32,1.6.25.19.59.94,3.03-2.73,3.19-2.87,5.18,5,3.78-3,.76-.61,3.14-.91,4.55,4.36.78.94,1.73,2.7.53,1.14.19.97.07.32.08.32.1.31.1.31.12.31.13.31,1.94,3.4.1.16.1.15.11.16.12.15.12.15.12.14.14.14.14.14.14.13,1.03.92,2.18,1.71.94.68,8.24-4.85Z"/>
        <path class="cls-1" d="M721.58,190.76l.4-.37,1.43-1.32,2.1-2.04,3.05-3.08,1.21-1.19.74-.77-2.43-1.14-2.31-.96,4.4-7.42.06-.1,3.49-5.99,18.32-11.68,9.09-12.84,1.05.42,1.63.64.11-.24,1.9-3.73.86-3.49.7-2.35.02-.18.11-1.55,1.57-5.62.08-.21-.14-2.8.06-.44,1.02-4.61-1.38-.54.04-.07-6.65-2.59-2.36-.65-1.7-.95-.49-.38-.8-.42-1.69-.98-.37.18-2.31-.31-.32,1-1.36.31-1.44-1.26-4.41-1.75-8.85-3.52-8.77-3.49-.38,2.15-2.28-1.5-2.6-1.6-1.41-.93-.92-.56,5.92-6.61.35-.4,2.56-2.92,6.14-6.15,1.05.67,2.22,1.99,3.65,2.85,6.28,4.08,1.55,1.19,1.14,1.26.97,1.64.66.78,1.29.81,2.63,1.93,2,1.28,1.13.73.78,1.06,1,.8,1.52,1.1,3.42,2.14,4.13,2.39,3.88,2.11,2.57,2,1.52,1.04,4.91,3.28,1.61,1.25.68,1.67.23,1.75-.34,1.4-.81,2.3-.81,2.82-.6,2.34-.19,1.56-.06,1.61-.62,1.8-1.24,2.28-1.66,1.73-2.13,2.14-.94.79-2.61,1.55-2.52,1.82-2.93,2.31-1.46,1.2-.38.94-.39,2.09v1.01s-.48,1.48-.48,1.48l-.99,1.11-1.87,1.38-2.19,1.49-2.64,1.76-1.19,1.43-.87,1.97-.31,1.64.54,1.65.64,1.6v1.23s-.93.89-.93.89l-.89.9-1.05.96-1.22.68-1.41.31-1.92.34h-.76l-1.35.23-.76.66-2.92,3.24-2.66,2.83-1.53,1.87-1.03.51-1.2.19-1.68.41-3.48,1.31-4.05,1.44-5.34,1.79-.6.22Z"/>
        <path class="cls-1" d="M734.62,83.72l-6.14,6.15-2.56,2.92-.35.4-5.92,6.61.92.56,1.41.93,2.6,1.6,2.28,1.5.38-2.15,8.77,3.49,8.85,3.52,4.41,1.75,1.44,1.26,1.36-.31.32-1,2.31.31.37-.18,1.69.98.8.42.49.38,1.7.95,2.36.65,6.65,2.59-.04.07,1.38.54-1.02,4.61-.06.44.14,2.8-.08.21-1.57,5.62-.11,1.55-.02.18-.7,2.35-.86,3.49-1.9,3.73-.11.24-1.63-.64-1.05-.42-9.09,12.84-18.32,11.68-3.49,5.99-.06.1-4.4,7.42,2.31.96,2.43,1.14-.74.77-1.21,1.19-3.05,3.08-2.1,2.04-1.43,1.32-.4.37-2.55.94-.45-.05-7.15-.9-6.53-3.12-.2-.12.23-.19.37-.28,1.05-.77.46-.33.12-.09.51-.36.62-.44-.64-1.12-.29-.5-.43-.6-.94-1.1-2.81-3.34-1.51-1.72-1.3-1.44-.65-.95-.64-1.35-.26-.45-.5-.76-.92-1.16-.49-.51-1.12-1-.2-.17-.31-.23-1.03-.7-.28-.17-.3-.16-.79-.39-4.32-2.04-.22-.11-1.44-.86-.67-.41-.71-.41-1.68-1.01-1.57-.82-.23-.13-1.29-.75-.15-.1-1.13-.69-.23-.15-1.01-.7-.66-.38-1.33-.64-.58-.32-6.78-4.51.69-.64.94-.9.54-.51.93-.89,1.4-1.06.56-.43.95-.73.94-.75-1.2-.74.17-.1,1.32-.82.25-.18.24-.18.24-.18.23-.2.22-.2.21-.2.21-.21.2-.22.19-.23.18-.22.17-.24.42-.6.18-.27.32-.54.21-.37.11-.26,1.48-3.71.69-1.87.5-1.48.98-2.63.06-.17.6-1.63.62-1.59.2-.56.33-.78.55-1.01-1.95-.93-1.6-.77-7.71-3.82.56-1.18.89-1.27.83-3.71-5.27-.85-1.07-.1.09-.1.29-.32.52-.7,1.18-1.79.34-.51.16-.24.18-.23.18-.23.19-.22.2-.22.21-.21.22-.21.22-.2.23-.19.24-.18.25-.18.25-.17.26-.17.27-.15.27-.15.28-.14.28-.14.29-.12.29-.12.3-.1.3-.1,1.6-.37,1.43-.21,1.3-.2,5.1-.75,2.32-.31,1.63-.22.89-.08,1.22.06,1.41.22,2.24.6.11-.19,1.16.41,2.6-4.52.31-.52.44-.78.26-.42.28-.41.29-.41.31-.4.32-.38.33-.38.35-.37.37-.35.38-.34.39-.34.41-.32.42-.31.43-.31,10.01-5.4,1.29-.7,2.87-1.57,2.56-1.03,9.18-3.86.14.07,2.1,1.2.55.34Z"/>
        <path class="cls-1" d="M662.87,90.96l1.19-2.51,1.09-2.34-2.58-.97,3.01-4.88-.98-.45,2.5-3.99-2.92-1.39-2.64-1.29,4.11-6.1,3.68,1.6,3.64,1.58,3.69,1.51,3.59,1.47-2.42,3.51-2.21,3.16.25.1,6.64,3.2-2.51,3.72,3.12,1.49-1.72,3.88-.67-.25-1.67,4.98-2.7-1-2.73-1-5.96-2.21-.24-.08-4.57-1.72Z"/>
        <path class="cls-1" d="M670.27,113.24l-.09.1,1.07.1,5.27.85-.83,3.71-.89,1.27-.56,1.18,7.71,3.82,1.6.77,1.95.93-.55,1.01-.33.78-.2.56-.62,1.59-.6,1.63-.06.17-.98,2.63-.5,1.48-.69,1.87-1.48,3.71-.11.26-.21.37-.32.54-.18.27-.42.6-.17.24-.18.22-.19.23-.2.22-.21.21-.21.2-.22.2-.23.2-.24.18-.24.18-.25.18-1.32.82-.17.1-8.24,4.85-.94-.68-2.18-1.71-1.03-.92-.14-.13-.14-.14-.14-.14-.12-.14-.12-.15-.12-.15-.11-.16-.1-.15-.1-.16-1.94-3.4-.13-.31-.12-.31-.1-.31-.1-.31-.08-.32-.07-.32-.19-.97-.53-1.14-1.73-2.7-.78-.94-4.55-4.36-3.14.91-.76.61-3.78,3-5.18-5-3.19,2.87-3.03,2.73-.59-.94-.25-.19-2.32-1.6-3.98-2.93-.53-.54-.37-.98-.43-.67-.85-.81-2.57-1.57,1.57-3.07,1.03-1.88,1.29-2.33-1.2-.98-.87-.68-2.82-1.48-.17.27-2.19-1.67-1.79.02-.56.31-.63.15-.73.64-1.12.09-.73.47-.5.08-.89-.43-.54.6-.78-.25-1.41-1.33-1.72.84-3.34-3.25-2.85,1.23-2.94.3-2.6.27-.22-.36-.7,1.03-4.13-3.38-1.63,1.24-.67.33-2.54,1.29-3.07,2.69-3.83-4.05-2-1.67-4.37-3.37-1.94-1.4-5.85-4.35-4.68-3.44-4.46-3.25-8.08-5.94-.67-.49.77-.94,3.42-4.48,1.56-1.89,1.91-2.19,2.25-2.79,4.28-5.14,3-4.03,6.33-8.15,4.76-6.09,4.37-5.95.75-1,1.16-1.54,2.85-3.9,2.59-3.25,1.21-1.42.78.27,1.16.4,6.65-2.32,2.81,2.56.35.34.47.6,1.28,1.89.61.91.26.34.25.31.21.26.99,1.22,1.17,1.42,1.23,1.5.61.67.26.28.15.17.59.65.69.64,2.04,1.57,2.58,2.01.64.48,1.83,1.37,1.52.99.92.58,2.36,1.38,1.56.81,2.41,1.15.59.31,2.88,1.52,1.02.47-.38,5.24-.42,3.24,1.5,1.4,2.8.24-.04.1-.11.19-1.12,1.57,4.34,1.74,3.33,1.34,1.37.57-.76,1.12,1.76,1.25,2.33,1.65,2.01,1.44,2.04-2.77,8.23,1.91,1.12-.02.28-.28,2.02,1.15,3.32,1.89-2.85,3.97-.66.92-.1.15-.1.15-.09.15-.08.15-.08.15-.07.16-.07.16-.06.16-.05.16-.05.16-.04.17-.34,1.51-.13.82-.02.18-.02.18v.18s0,.18,0,.18v.18l.02.18.02.18.03.18.03.18.04.18.05.17.12.36.02.07.03.07.02.07.03.06.04.07.03.06.04.07.04.06.05.06.04.06.05.06.05.06.06.05.05.06.06.05.06.05.06.05.07.04.06.05.07.04.07.04.07.04.07.03.07.04.08.03.07.03.08.03.08.02.08.03.08.02,5.77,1.37-1.6,4.65-2.35,6.79-1.1,3.5,5.98.13,1.04.02,5.27.11Z"/>
        <path class="cls-2" d="M731.83,82.11l-9.18,3.86-2.56,1.03-2.87,1.57-1.29.7-10.01,5.4-.43.31-.42.31-.41.32-.39.34-.38.34-.37.35-.35.37-.33.38-.32.38-.31.4-.29.41-.28.41-.26.42-.44.78-.31.52-2.6,4.52-1.16-.41-.11.19-2.24-.6-1.41-.22-1.22-.06-.89.08-1.63.22-2.32.31-5.1.75-1.3.2-1.43.21-1.6.37-.3.1-.3.1-.29.12-.29.12-.28.14-.28.14-.27.15-.27.15-.26.17-.25.17-.25.18-.24.18-.23.19-.22.2-.22.21-.21.21-.2.22-.19.22-.18.23-.18.23-.16.24-.34.51-1.18,1.79-.52.7-.29.32-5.27-.11-1.04-.02-5.98-.13,1.1-3.5,2.35-6.79,1.6-4.65-5.77-1.37-.08-.02-.08-.03-.08-.02-.08-.03-.07-.03-.08-.03-.07-.04-.07-.03-.07-.04-.07-.04-.07-.04-.06-.05-.07-.04-.06-.05-.06-.05-.06-.05-.05-.06-.06-.05-.05-.06-.05-.06-.04-.06-.05-.06-.04-.06-.04-.07-.03-.06-.04-.07-.03-.06-.02-.07-.03-.07-.02-.07-.12-.36-.05-.17-.04-.18-.03-.18-.03-.18-.02-.18-.02-.18v-.53s.03-.18.03-.18l.02-.18.13-.82.34-1.51.04-.17.05-.16.05-.16.06-.16.07-.16.07-.16.08-.15.08-.15.09-.15.1-.15.1-.15.66-.92,2.85-3.97-3.32-1.89-2.02-1.15-.28.28-1.12.02-8.23-1.91-2.04,2.77-2.01-1.44-2.33-1.65-1.76-1.25.76-1.12-1.37-.57-3.33-1.34-4.34-1.74,1.12-1.57.11-.19.04-.1-2.8-.24-1.5-1.4.42-3.24.38-5.24-1.02-.47-2.88-1.52-.59-.31-2.41-1.15-1.56-.81-2.36-1.38-.92-.58-1.52-.99-1.83-1.37-.64-.48-2.58-2.01-2.04-1.57-.69-.64-.59-.65-.15-.17-.26-.28-.61-.67-1.23-1.5-1.17-1.42-.99-1.22-.21-.26-.25-.31-.26-.34-.61-.91-1.28-1.89-.47-.6-.35-.34-2.81-2.56-6.65,2.32-1.16-.4-.78-.27,1.58-1.84,1.97-2.54,2.12-2.66,1.5-2.13,1.29-1.71,2.25-2.55,5.32-7.13,1.29-1.95,1.51-1.42,2.45-3.66,3.67-5.2,2.63-3.55,4.85,2.1,4.23,2.99,5.33,3.62,4.84,3.68,8.4,5.89,4.64,3.03,4.5,3.56,3.51,2.33,4.08,2.81,5.53,3.91,6.56,4.44,7.33,5.26,6.54,4.47,4.57,3.04,6.15,4.38,6.22,4.62,6.01,4.03,4.64,3.34,5.67,4.14,5.32,4.04,6.06,4.49,3.58,1.96ZM662.87,90.96l4.57,1.72.24.08,5.96,2.21,2.73,1,2.7,1,1.67-4.98.67.25,1.72-3.88-3.12-1.49,2.51-3.72-6.64-3.2-.25-.1,2.21-3.16,2.42-3.51-3.59-1.47-3.69-1.51-3.64-1.58-3.68-1.6-4.11,6.1,2.64,1.29,2.92,1.39-2.5,3.99.98.45-3.01,4.88,2.58.97-1.09,2.34-1.19,2.51Z"/>
      </g>
    </g>
  </g>
</svg>