<?xml version="1.0"?>
<svg xmlns="http://www.w3.org/2000/svg" version="1.2" baseProfile="tiny" width="800" height="849" viewBox="0 0 800 849" stroke-linecap="round" stroke-linejoin="round">
<g id="GazaStrip_MunicipalBoundaries">
<path d="M 102.47 781.8 106.54 778.19 107.21 777.59 110.91 774.32 112.31 773.03 113.83 771.4 114.66 770.5 117.61 767.54 118.81 766.35 120.91 764.36 123.58 762.1 126.36 759.82 127.62 758.96 128.63 758.29 132.77 755.57 135.62 753.68 137.34 752.54 140.73 750.96 143.88 749.47 145.05 749 146.66 748.36 150.2 746.94 154.46 745.25 160.17 742.99 164.64 741.22 165.68 740.8 169.69 739.16 172.15 738.16 174.67 737.15 176.23 736.53 180.02 735.03 180.82 734.71 181.96 737.19 182.62 738.56 184.31 741.94 185.64 744.56 185.98 745.24 187.32 747.95 189.29 751.85 190.04 751.48 191.62 753.9 192.29 754.93 193.76 757.14 194.62 758.43 197.77 757.18 198.53 756.89 199.55 760.45 200.28 763 201.06 765.87 201.32 766.77 201.74 767.67 201.97 768.13 197.81 769.59 196.49 769.99 195.03 770.38 191.31 771.41 185.78 773.1 184.02 773.64 185.22 776.02 185.58 776.72 188 781.49 188.43 782.38 188.47 782.47 181.95 783.85 178.41 784.61 175.68 785.13 172.94 785.5 170.88 785.65 169.22 786.83 167.13 784.03 166.79 783.13 154.1 788.47 152.91 787.05 151.96 786.05 151.08 785.09 150.23 784.09 149.43 783.08 148.38 781.86 146.91 780.06 146.02 783.47 143.32 793.8 138.43 784.23 140.92 776.2 138.13 772.95 138.11 770.8 133.75 769.8 132.48 771.65 128.18 773.28 125.06 783.32 124.27 785.44 122.05 792.59 121.74 793.58 120.14 798.74 119.44 800.99 119.13 801.98 116.25 811.25 115.02 815.21 114.78 815.97 114.54 816.75 110.9 810.45 109.58 808.3 108.2 806.28 106.87 804.27 106.11 803.23 105.88 802.89 104.8 801.47 104.51 801.01 103.65 799.57 102.94 798.46 102.45 797.7 101.75 796.61 101.25 795.9 101.1 795.71 100.62 795.08 100.15 794.48 99.76 793.91 103.5 792.09 106.91 790.44 109.68 789.09 106.65 785.9 106.02 785.28 102.47 781.8 Z"/>
<path d="M 221.22 686.2 221.09 686.8 220.9 687.69 220.6 689.02 219.95 692 219.73 693.27 219.44 694.58 219.14 695.71 218.84 696.6 218.36 697.97 217.87 699.4 217.03 701.84 216.68 702.86 216.43 703.6 216.26 704.11 215.68 705.45 215.24 706.28 214.49 707.78 213.32 709.97 212.32 711.87 211.63 713.11 211.24 713.69 209.12 716.62 208.85 716.96 207.26 718.68 205.63 720.21 204.92 720.88 202.56 722.79 201.18 723.86 198.09 725.89 196.31 726.93 193.42 728.43 189.56 730.1 183.86 732.29 180.17 726.15 178.08 722.67 177.04 721.51 176.87 721.32 176.69 721.13 176.51 720.95 176.31 720.77 176.12 720.61 175.91 720.44 175.7 720.28 175.48 720.13 175.26 719.99 175.03 719.85 174.79 719.72 173.23 718.89 170.43 717.55 168.98 719.12 168.77 718.95 166.01 716.81 165.24 716.03 160.71 711.48 159.93 712.53 159.43 713.17 157.34 714.84 156.05 715.51 154.37 716.39 153.65 717.03 151.45 714.3 151.35 714.2 151.25 714.1 151.16 713.99 151.07 713.88 150.99 713.77 150.91 713.66 150.83 713.54 150.76 713.42 150.7 713.3 150.64 713.18 150.58 713.05 150.53 712.93 150.02 711.54 149.28 709.71 148.77 708.34 148.16 706.47 147.72 705.34 146.61 703.65 146.06 702.62 145.08 701.11 145.61 700.58 147.63 698.61 148.94 697.06 150.29 695.1 151.43 692.66 152.48 690.46 153.83 687.44 153.98 687.41 155 684.83 155.45 682.59 155.61 680.53 155.34 677.71 155.63 676.7 161.35 680.3 167.65 684.21 173.34 687.76 175.84 688.87 177.38 689.4 179.03 689.73 181.13 689.9 182.85 689.94 185.98 690.04 188.86 690.17 195.19 690.38 197.81 690.43 199.26 690.44 202.18 690.16 205.87 689.44 209.59 688.65 213.94 687.72 221.22 686.2 Z"/>
<path d="M 244.03 667.08 244.17 667.22 245.57 668.85 246.45 669.84 247.91 671.52 249.77 673.65 250.83 673.16 251.75 672.54 252.23 672.16 254.13 675.89 257.78 674.09 260.09 673.01 260.94 672.52 262.47 671.35 263.31 670.73 263.86 671.28 264.55 671.96 267.55 674.91 269.68 677.14 270.82 678.37 272.68 680.48 272.94 680.77 273.53 681.43 275.87 683.96 277.13 685.44 278.21 686.8 279.11 688 282.32 692.7 283.22 693.93 284.13 695.04 286.44 697.67 287.09 698.49 286.15 698.81 283.81 699.61 280.87 700.88 278.53 701.89 277.15 702.6 274.65 703.88 273.47 704.5 270.91 705.84 270.35 706.11 269.51 706.51 264.25 708.4 263.89 708.49 261.12 709.22 260.27 709.46 259.99 709.55 258.62 710 257.39 710.45 255.18 711.25 253.64 711.85 252.74 712.22 251.7 712.63 250.46 713.12 245.82 714.99 242.78 716.05 240.71 716.76 237.96 717.7 234.77 718.79 231.57 719.88 229.08 720.73 226.91 721.47 225.36 722 224.96 720.07 224.54 717.7 224.05 715.11 223.69 712.89 222.96 708.93 222.51 706.45 222.24 705.66 221.69 704.82 221 704.04 220.12 703.38 219.38 703.02 218.09 702.6 219.9 697.37 220.68 694.82 221.13 692.54 221.85 689.22 221.87 689.14 222.46 686.5 222.59 685.92 222.75 684.86 223.06 680.8 223.22 678.48 223.33 677.57 224.05 673.59 224.58 670.83 225.01 666.97 228.37 665.5 232.94 662.78 235.03 665.32 236.58 667.22 238 669.13 238.73 670.14 239.25 669.75 242.05 668.18 244.03 667.08 Z"/>
<path d="M 336.93 632.96 341.84 637.2 342.59 638.13 347.26 642.63 345.03 644.41 343.65 645.47 342.34 646.44 344.4 648.73 347.85 652.57 345.77 653.86 350.77 659 344.81 663.04 346.71 664.76 335.53 672.51 328.19 677.64 325.72 679.27 323.34 680.68 318.92 684.6 315.33 686.75 313.69 687.79 312.9 687.1 311.74 686.15 311.18 685.77 310.69 685.41 308.33 684 306.41 682.86 304.64 681.82 302.49 680.47 300.9 679.3 299.36 677.96 305.41 673.98 308.24 672.39 310.89 670.81 312.8 669.66 313.08 669.47 315.03 668.14 316.48 666.98 317.86 665.94 316.71 664.1 314.74 661.05 313.19 658.35 311.55 655.58 313.56 654.41 315.38 653.28 317.08 652.08 318.76 650.79 317.69 649.6 318.74 648.75 320.84 647.12 323.7 644.85 326.38 642.57 329.51 639.77 333.92 635.72 336.93 632.96 Z"/>
<path d="M 261.53 614.23 261.63 614.34 262.37 615.16 263.49 616.44 265.08 618.42 262.67 620.05 262.09 620.52 264.7 623.7 262.1 624.97 263.19 628.69 263.72 629.79 264.43 631.29 264.73 631.97 265.7 631.49 266.76 630.86 267.38 630.41 268.8 629.32 270.61 627.92 272.48 626.4 275.21 629.09 276.16 630.03 277.5 631.35 278.56 632.44 279.82 633.76 280.43 634.36 281.99 635.81 282.38 636.15 285.91 639.19 283.54 640.86 278.88 643.95 279.39 644.54 276.33 647.26 274.31 648.81 270.96 651.38 269.07 654.24 267.14 657.1 266.18 658.12 262.76 661.46 261.12 663.07 258.78 665.03 258.29 664.43 257.54 663.43 256.66 661.82 255.33 659.66 254.68 658.57 257.13 656.09 259.05 654.09 262.35 650.43 265.28 646.95 261.63 643.92 259.57 641.97 258.01 640.43 255.95 638.7 253.58 636.71 251.68 635.35 249.33 633.42 246.08 630.34 242.91 627.25 240.81 625.19 238.18 622.58 237.27 621.71 238.07 621.08 239.36 620.12 240.61 619.19 241.97 618.12 242.52 617.64 243.42 616.66 244.15 615.78 244.94 614.81 245.74 613.67 246.4 612.86 246.74 612.43 247.7 611.35 248.66 610.25 249.33 609.53 249.54 610.11 249.88 611.39 250.19 612.68 250.39 613.47 250.53 614.11 250.73 614.91 251.05 616.91 251.22 618.38 252.46 617.86 254.93 616.83 256.9 615.99 258.04 615.5 259.97 614.47 261.17 613.82 261.53 614.23 Z"/>
<path d="M 313.27 594.24 311.6 597.55 311.58 597.59 312.85 597.69 314.03 597.77 315.66 597.85 318.81 597.98 322.17 598.16 325.89 598.24 326.23 598.26 325.61 600.42 329.36 601.53 327.08 603.9 331.28 606.02 334.55 607.7 337.19 608.93 336.55 609.59 334.84 611.19 333.54 612.5 331.31 614.57 330.86 614.26 328.93 612.6 326.63 610.57 324.77 611.95 322.55 613.55 316.82 617.45 317.44 617.68 318.62 617.98 318.75 618.04 320.37 619.07 323.99 621.27 328.76 623.94 324.21 628.65 324.13 628.71 318.76 633.04 317.71 633.89 316.75 634.79 320.51 638.14 321.95 639.41 319.44 641.43 317.94 642.79 315.47 640.8 309.12 635.86 307.83 634.96 306.24 634.01 299.21 639.84 299.92 640.48 299.99 640.57 299.43 641.09 300.5 642.2 301.75 643.32 301.61 643.43 299.51 645.16 297.06 647.21 298.82 648.89 293.84 652.65 290.98 654.82 293.05 656.73 291.77 657.69 290.01 659.01 288.17 660.29 286.88 661.21 289.24 663.67 289.7 664.16 281.21 671.74 279.25 669.95 277.77 668.77 275.31 666.99 273.96 666.15 271.17 668.03 266.87 670.58 264.55 671.96 263.86 671.28 263.31 670.73 262.47 671.35 260.94 672.52 260.09 673.01 257.78 674.09 254.13 675.89 252.23 672.16 251.75 672.54 250.83 673.16 249.77 673.65 247.91 671.52 246.45 669.84 245.57 668.85 244.17 667.22 244.03 667.08 246.03 665.83 247.92 664.55 250.1 663.12 255.33 659.66 256.66 661.82 257.54 663.43 258.29 664.43 258.78 665.03 261.12 663.07 262.76 661.46 266.18 658.12 267.14 657.1 269.07 654.24 270.96 651.38 274.31 648.81 276.33 647.26 279.39 644.54 278.88 643.95 283.54 640.86 285.91 639.19 282.38 636.15 281.99 635.81 280.43 634.36 279.82 633.76 278.56 632.44 277.5 631.35 276.16 630.03 275.21 629.09 272.48 626.4 270.61 627.92 268.8 629.32 267.38 630.41 266.76 630.86 265.7 631.49 264.73 631.97 264.43 631.29 263.72 629.79 263.19 628.69 262.1 624.97 264.7 623.7 262.09 620.52 262.67 620.05 265.08 618.42 263.49 616.44 262.37 615.16 261.63 614.34 261.53 614.23 261.82 614.03 263.22 612.89 264.02 612.24 264.54 611.82 265 611.41 266.04 610.47 266.51 610.04 267.19 609.38 266.09 608.68 265.04 608 262.68 606.52 261.16 605.62 260.03 604.93 258.11 603.85 256.16 602.77 257.47 601.51 258.36 600.64 259.42 599.59 260.21 598.89 261.37 597.9 262.26 597.19 262.86 596.71 263.51 596.03 264.36 595.25 265.41 594.22 266.83 592.83 267.58 592.12 268.49 591.27 269.18 590.57 270.77 591.85 272.59 593.24 273.49 593.88 274.88 594.77 276.21 595.63 276.82 595.99 277.71 596.36 278.25 595.38 279.96 592.71 281.08 592.93 281.4 592.51 282.32 592.94 283.13 593.29 283.8 593.51 285 593.75 286.47 594.01 288.61 594.43 290.24 594.73 292.8 595.1 295.84 595.57 295.98 595.17 296.02 594.71 295.68 594.18 294.65 593.4 293.02 592.24 292.39 591.82 294.41 589.32 296.03 590.12 296.76 589.13 298.85 590.29 299.81 589.08 304.84 591.36 307.43 592.19 310.69 593.35 313.27 594.24 Z"/>
<path d="M 143.1 654.21 134.48 648.5 123.79 641.57 123.25 641.27 123.12 641.2 122.99 641.13 122.86 641.07 122.73 641.02 122.59 640.96 122.45 640.91 122.31 640.87 122.17 640.83 122.02 640.79 121.88 640.76 121.73 640.74 121.58 640.71 121.43 640.69 121.28 640.68 121.13 640.67 120.98 640.67 114.75 647.26 99.91 649.27 83.27 652.92 82.24 651.44 80.33 648.72 75.79 642.25 71.82 635.53 68.65 630.16 68.13 629.37 67.75 628.88 66.46 627.31 65.35 625.66 62.96 621.18 62.4 620.27 60.2 617.04 59.41 616.03 58.53 615.03 57.85 614.26 51.92 607.54 51.01 606.34 50.11 604.95 50.84 604.16 53.26 600.05 62.63 593.35 66.36 591.41 69.14 588.92 67.95 587.2 64.92 582.84 81.63 591.8 86.13 594.22 92.27 597.51 105.77 604.76 121.88 613.43 124 614.54 129.29 617.38 131.05 617.99 132.56 618.54 133.59 619.75 133.96 620.13 135.14 621.45 136.13 622.29 137.9 624.15 139.34 625.85 140.62 627.52 143.11 630.14 144.57 631.78 144.68 631.9 144.79 632.02 144.91 632.14 145.03 632.25 145.16 632.35 145.29 632.46 145.42 632.55 145.56 632.65 145.71 632.74 145.85 632.83 146 632.91 146.16 632.99 146.31 633.06 146.47 633.13 146.63 633.19 148.1 633.75 150.74 634.81 152.31 635.38 151.38 639.26 150.7 641.48 148.7 646.26 146.51 650.76 143.1 654.21 Z"/>
<path d="M 89.41 793.44 90.99 792.03 95.14 788.31 98.04 785.73 101.99 782.23 102.47 781.8 106.02 785.28 106.65 785.9 109.68 789.09 106.91 790.44 103.5 792.09 99.76 793.91 100.15 794.48 100.62 795.08 101.1 795.71 101.25 795.9 101.75 796.61 102.45 797.7 102.94 798.46 103.65 799.57 104.51 801.01 104.8 801.47 105.88 802.89 106.11 803.23 106.87 804.27 108.2 806.28 109.58 808.3 110.9 810.45 114.54 816.75 114.78 815.97 115.02 815.21 116.25 811.25 119.13 801.98 119.44 800.99 120.14 798.74 121.74 793.58 122.05 792.59 124.27 785.44 125.06 783.32 128.18 773.28 132.48 771.65 133.75 769.8 138.11 770.8 138.13 772.95 140.92 776.2 138.43 784.23 143.32 793.8 146.02 783.47 146.91 780.06 148.38 781.86 149.43 783.08 150.23 784.09 151.08 785.09 151.96 786.05 152.91 787.05 154.1 788.47 166.79 783.13 167.13 784.03 169.22 786.83 170.88 785.65 172.94 785.5 175.68 785.13 178.41 784.61 181.95 783.85 188.47 782.47 188.43 782.38 188 781.49 185.58 776.72 185.22 776.02 184.02 773.64 185.78 773.1 191.31 771.41 195.03 770.38 196.49 769.99 197.81 769.59 201.97 768.13 201.74 767.67 201.32 766.77 201.06 765.87 200.28 763 199.55 760.45 198.53 756.89 197.77 757.18 194.62 758.43 193.76 757.14 192.29 754.93 191.62 753.9 190.04 751.48 189.29 751.85 187.32 747.95 185.98 745.24 185.64 744.56 184.31 741.94 182.62 738.56 181.96 737.19 180.82 734.71 181.07 734.62 181.7 734.37 184.44 733.27 184.28 732.99 183.86 732.29 189.56 730.1 193.42 728.43 196.31 726.93 198.09 725.89 201.18 723.86 202.56 722.79 204.92 720.88 205.63 720.21 207.26 718.68 208.85 716.96 209.12 716.62 211.24 713.69 211.63 713.11 212.32 711.87 213.32 709.97 214.49 707.78 215.24 706.28 215.68 705.45 216.26 704.11 216.43 703.6 216.68 702.86 217.03 701.84 217.87 699.4 218.36 697.97 218.84 696.6 219.14 695.71 219.44 694.58 219.73 693.27 219.95 692 220.6 689.02 220.9 687.69 221.09 686.8 221.22 686.2 222.59 685.92 222.46 686.5 221.87 689.14 221.85 689.22 221.13 692.54 220.68 694.82 219.9 697.37 218.09 702.6 219.38 703.02 220.12 703.38 221 704.04 221.69 704.82 222.24 705.66 222.51 706.45 222.96 708.93 223.69 712.89 224.05 715.11 224.54 717.7 224.96 720.07 225.36 722 226.91 721.47 229.08 720.73 231.57 719.88 234.77 718.79 237.96 717.7 240.71 716.76 242.78 716.05 245.82 714.99 250.46 713.12 251.7 712.63 252.74 712.22 253.64 711.85 255.18 711.25 257.39 710.45 258.62 710 259.99 709.55 260.27 709.46 261.12 709.22 263.89 708.49 264.25 708.4 269.51 706.51 270.35 706.11 270.91 705.84 273.47 704.5 274.65 703.88 277.15 702.6 278.53 701.89 280.87 700.88 283.81 699.61 286.15 698.81 287.09 698.49 286.44 697.67 284.13 695.04 283.22 693.93 282.32 692.7 279.11 688 278.21 686.8 277.13 685.44 275.87 683.96 273.53 681.43 272.94 680.77 272.68 680.48 270.82 678.37 269.68 677.14 267.55 674.91 264.55 671.96 266.87 670.58 271.17 668.03 273.96 666.15 275.31 666.99 277.77 668.77 279.25 669.95 281.21 671.74 289.7 664.16 289.24 663.67 286.88 661.21 288.17 660.29 290.01 659.01 291.77 657.69 293.05 656.73 290.98 654.82 293.84 652.65 298.82 648.89 297.06 647.21 299.51 645.16 301.61 643.43 301.75 643.32 300.5 642.2 299.43 641.09 299.99 640.57 299.92 640.48 299.21 639.84 306.24 634.01 307.83 634.96 309.12 635.86 315.47 640.8 317.94 642.79 319.44 641.43 321.95 639.41 320.51 638.14 316.75 634.79 317.71 633.89 318.76 633.04 324.13 628.71 324.21 628.65 328.76 623.94 323.99 621.27 320.37 619.07 318.75 618.04 318.62 617.98 317.44 617.68 316.82 617.45 322.55 613.55 324.77 611.95 326.63 610.57 328.93 612.6 330.86 614.26 331.31 614.57 333.54 612.5 334.84 611.19 336.55 609.59 337.19 608.93 334.55 607.7 331.28 606.02 327.08 603.9 329.36 601.53 325.61 600.42 326.23 598.26 325.89 598.24 322.17 598.16 318.81 597.98 315.66 597.85 314.03 597.77 312.85 597.69 311.58 597.59 311.6 597.55 313.27 594.24 315.06 590.7 315.92 589.08 317.76 589.39 319.1 589.57 320.16 589.69 321.47 589.82 322.44 589.86 323.69 589.94 325.56 590.14 326.36 590.31 328.55 590.61 328.03 592.43 336.11 593.66 334.09 598.75 333.91 599.21 335.11 599.77 338.68 601.5 341.76 603 342.95 603.52 345.69 604.82 345.5 603.57 345.48 602.09 345.18 600.34 344.77 598.04 344.5 596.46 343.94 594.01 343.59 591.8 343.2 589.33 342.67 586.53 343.61 585.48 344.06 588.29 344.81 592.46 346.13 599.28 347.54 607.1 348.95 615.71 349.3 619.16 350.06 625.15 351.53 631.29 352.21 636.69 352.87 640.54 353.63 647.59 354.29 651.43 355.38 658.19 355.57 661.54 354.87 663.87 354.1 666.19 352.94 668.36 352.09 670.72 351.38 672.17 351 673.8 349.37 676.52 348.46 679.48 347.31 683.14 344.13 690.21 340.32 696.27 339.11 697.67 334.9 699.75 329.03 702.01 324.74 704.46 322.38 705.81 319.87 707.05 314.77 709.58 311.17 711.22 296.76 718.48 290.02 721.9 285.01 724.13 284.32 725.74 283.46 727.74 282.23 730.49 281.36 731.93 279.74 734.1 278.12 736.51 276.22 739.42 273.56 743.74 271.84 746.49 270.5 748.76 268.77 750.52 266.76 752.94 264.47 755.27 262.89 757.22 262.18 758.11 260.35 760.03 258.24 762.29 256.74 763.51 256.22 764.06 253.44 766.23 251.43 767.9 249.41 769.58 246.33 771.93 243.54 773.61 240.96 775.53 238.69 777.18 235.91 779.28 231.48 782.39 227.52 784.42 225.39 785.35 222.31 786.53 218.08 788.14 213.74 789.91 208.8 791.26 205.31 792.68 201.18 795.08 197.03 797.5 186.21 802.25 178.67 805.55 171.4 808.63 168.55 810.68 166.94 812.09 162.95 816.12 159.83 819.93 155.46 824.41 152.95 827.15 148.68 830.55 145.07 833.71 142.29 836.57 140.8 837.13 135.64 839.12 131.48 840.67 125.3 842.34 120.53 843.68 113.75 845.78 109.08 847.61 108.47 846.19 107.04 842.3 104.83 835.92 101.47 827.17 98.48 818.95 94.97 808.14 92.9 803.39 90.95 798.09 90.04 795.07 89.41 793.44 Z M 336.93 632.96 333.92 635.72 329.51 639.77 326.38 642.57 323.7 644.85 320.84 647.12 318.74 648.75 317.69 649.6 318.76 650.79 317.08 652.08 315.38 653.28 313.56 654.41 311.55 655.58 313.19 658.35 314.74 661.05 316.71 664.1 317.86 665.94 316.48 666.98 315.03 668.14 313.08 669.47 312.8 669.66 310.89 670.81 308.24 672.39 305.41 673.98 299.36 677.96 300.9 679.3 302.49 680.47 304.64 681.82 306.41 682.86 308.33 684 310.69 685.41 311.18 685.77 311.74 686.15 312.9 687.1 313.69 687.79 315.33 686.75 318.92 684.6 323.34 680.68 325.72 679.27 328.19 677.64 335.53 672.51 346.71 664.76 344.81 663.04 350.77 659 345.77 653.86 347.85 652.57 344.4 648.73 342.34 646.44 343.65 645.47 345.03 644.41 347.26 642.63 342.59 638.13 341.84 637.2 336.93 632.96 Z" fill-rule="evenodd"/>
<path d="M 343.61 585.48 343.56 585.18 343.51 584.93 343.84 585.22 343.61 585.48 Z"/>
<path d="M 64.92 582.84 67.95 587.2 69.14 588.92 66.36 591.41 62.63 593.35 53.26 600.05 50.84 604.16 50.11 604.95 51.01 606.34 51.92 607.54 57.85 614.26 58.53 615.03 59.41 616.03 60.2 617.04 62.4 620.27 62.96 621.18 65.35 625.66 66.46 627.31 67.75 628.88 68.13 629.37 68.65 630.16 71.82 635.53 75.79 642.25 80.33 648.72 82.24 651.44 83.27 652.92 99.91 649.27 114.75 647.26 120.98 640.67 121.13 640.67 121.28 640.68 121.43 640.69 121.58 640.71 121.73 640.74 121.88 640.76 122.02 640.79 122.17 640.83 122.31 640.87 122.45 640.91 122.59 640.96 122.73 641.02 122.86 641.07 122.99 641.13 123.12 641.2 123.25 641.27 123.79 641.57 134.48 648.5 143.1 654.21 143.03 654.28 141.52 655.54 139.28 658.7 136.72 662.34 135.44 664.64 134.81 665.52 138.73 668.88 139.4 668.42 140.88 670.14 142.94 672.37 143.58 673.01 147.41 678.72 153.83 687.44 152.48 690.46 151.43 692.66 150.29 695.1 148.94 697.06 147.63 698.61 145.61 700.58 145.08 701.11 146.06 702.62 146.61 703.65 147.72 705.34 148.16 706.47 148.77 708.34 149.28 709.71 150.02 711.54 150.53 712.93 150.58 713.05 150.64 713.18 150.7 713.3 150.76 713.42 150.83 713.54 150.91 713.66 150.99 713.77 151.07 713.88 151.16 713.99 151.25 714.1 151.35 714.2 151.45 714.3 153.65 717.03 154.37 716.39 156.05 715.51 157.34 714.84 159.43 713.17 159.93 712.53 160.71 711.48 165.24 716.03 166.01 716.81 168.77 718.95 168.98 719.12 170.43 717.55 173.23 718.89 174.79 719.72 175.03 719.85 175.26 719.99 175.48 720.13 175.7 720.28 175.91 720.44 176.12 720.61 176.31 720.77 176.51 720.95 176.69 721.13 176.87 721.32 177.04 721.51 178.08 722.67 180.17 726.15 183.86 732.29 184.28 732.99 184.44 733.27 181.7 734.37 181.07 734.62 180.82 734.71 180.02 735.03 176.23 736.53 174.67 737.15 172.15 738.16 169.69 739.16 165.68 740.8 164.64 741.22 160.17 742.99 154.46 745.25 150.2 746.94 146.66 748.36 145.05 749 143.88 749.47 140.73 750.96 137.34 752.54 135.62 753.68 132.77 755.57 128.63 758.29 127.62 758.96 126.36 759.82 123.58 762.1 120.91 764.36 118.81 766.35 117.61 767.54 114.66 770.5 113.83 771.4 112.31 773.03 110.91 774.32 107.21 777.59 106.54 778.19 102.47 781.8 101.99 782.23 98.04 785.73 95.14 788.31 90.99 792.03 89.41 793.44 84.31 780.18 82.36 774.34 79.24 765.26 73.78 750.03 65.98 727.8 65.58 725.86 60.65 712.78 55.59 699.49 52.35 691.39 51.17 687.28 50 684.36 48.98 683.39 48.23 683.18 45.45 683.1 40.26 682.59 39.37 681.95 34.6 673.67 33.05 670.76 25.47 658.03 19.44 648.76 13.01 637.75 6.34 628.05 1 620.57 2.31 619.61 3.28 618.94 3.87 618.66 6.35 616.67 8.77 614.56 11.26 612.57 14.16 610.33 16.23 608.58 17.07 608.1 17.9 607.67 18.66 607.01 19.28 606.29 20.1 605.5 21.49 604.6 23.15 603.27 24.74 602.12 26.26 600.97 27.43 599.77 28.19 598.87 29.92 597.54 32.61 595.13 34.71 593.16 36.65 591.54 38.37 590.09 39.75 588.94 41.21 588.03 42.8 586.89 43.76 585.86 45.22 584.6 47.22 582.91 49.36 581.1 52.19 578.56 54.54 576.57 56.13 575.31 56.92 574.57 57.25 574.9 58.6 576.22 59.51 577.11 61.04 578.59 63.48 581.55 64.92 582.84 Z"/>
<path d="M 343.51 584.93 343.56 585.18 343.61 585.48 342.67 586.53 343.2 589.33 343.59 591.8 343.94 594.01 344.5 596.46 344.77 598.04 345.18 600.34 345.48 602.09 345.5 603.57 345.69 604.82 342.95 603.52 341.76 603 338.68 601.5 335.11 599.77 333.91 599.21 334.09 598.75 336.11 593.66 328.03 592.43 328.55 590.61 326.36 590.31 325.56 590.14 323.69 589.94 322.44 589.86 321.47 589.82 320.16 589.69 319.1 589.57 317.76 589.39 315.92 589.08 315.06 590.7 313.27 594.24 310.69 593.35 307.43 592.19 304.84 591.36 299.81 589.08 298.85 590.29 296.76 589.13 296.03 590.12 294.41 589.32 292.39 591.82 293.02 592.24 294.65 593.4 295.68 594.18 296.02 594.71 295.98 595.17 295.84 595.57 292.8 595.1 290.24 594.73 288.61 594.43 286.47 594.01 285 593.75 283.8 593.51 283.13 593.29 282.32 592.94 281.4 592.51 281.08 592.93 279.96 592.71 278.25 595.38 277.71 596.36 276.82 595.99 276.21 595.63 274.88 594.77 273.49 593.88 272.59 593.24 270.77 591.85 269.18 590.57 269.47 590.27 270.69 589.04 271.4 588.26 272.16 587.44 273.08 586.36 273.96 585.34 274.8 584.38 275.68 583.36 277.45 581.3 277.86 580.67 278.82 578.99 279.4 577.84 279.91 576.92 280.62 575.54 281.71 573.58 282.09 572.85 282.16 572.72 282.24 572.59 282.32 572.46 282.41 572.33 282.51 572.21 282.6 572.09 282.71 571.97 282.82 571.86 282.93 571.75 283.62 571.02 285.42 569.22 286.58 567.99 287.65 566.89 288.26 566.22 288.79 565.4 288.97 565.07 289.85 564.96 292.09 564.7 294.03 564.54 295.72 564.44 297.59 564.33 299.09 564.24 300.65 564.12 301.57 564.02 303.49 563.94 305.2 563.93 307.01 563.97 308.76 564.04 310.34 564.1 312.09 564.22 313.57 564.35 314.11 564.37 315.78 564.39 317.8 564.36 319.06 564.33 321.6 564.3 322.51 564.32 321.13 565.28 329.21 572.58 330.88 574.04 331.99 574.85 333.52 576.09 334.4 576.79 336.34 578.43 338.78 580.63 342.57 584.06 343.51 584.93 Z"/>
<path d="M 288.97 565.07 288.79 565.4 288.26 566.22 287.65 566.89 286.58 567.99 285.42 569.22 283.62 571.02 282.93 571.75 282.82 571.86 282.71 571.97 282.6 572.09 282.51 572.21 282.41 572.33 282.32 572.46 282.24 572.59 282.16 572.72 282.09 572.85 281.71 573.58 280.62 575.54 279.91 576.92 279.4 577.84 278.82 578.99 277.86 580.67 277.45 581.3 275.68 583.36 274.8 584.38 273.96 585.34 273.08 586.36 272.16 587.44 271.4 588.26 270.69 589.04 269.47 590.27 269.18 590.57 268.49 591.27 267.58 592.12 266.83 592.83 265.41 594.22 264.36 595.25 263.51 596.03 262.86 596.71 262.26 597.19 261.37 597.9 260.21 598.89 259.42 599.59 258.36 600.64 257.47 601.51 256.16 602.77 258.11 603.85 260.03 604.93 261.16 605.62 262.68 606.52 265.04 608 266.09 608.68 267.19 609.38 266.51 610.04 266.04 610.47 265 611.41 264.54 611.82 264.02 612.24 263.22 612.89 261.82 614.03 261.53 614.23 261.17 613.82 259.97 614.47 258.04 615.5 256.9 615.99 254.93 616.83 252.46 617.86 251.22 618.38 251.05 616.91 250.73 614.91 250.53 614.11 250.39 613.47 250.19 612.68 249.88 611.39 249.54 610.11 249.33 609.53 248.66 610.25 247.7 611.35 246.74 612.43 246.4 612.86 245.74 613.67 244.94 614.81 244.15 615.78 243.42 616.66 242.52 617.64 241.97 618.12 240.61 619.19 239.36 620.12 238.07 621.08 237.27 621.71 236.64 621.05 235.65 620.05 235.15 619.43 235.33 618.4 235.49 617.45 235.67 615.95 235.8 614.88 235.94 613.94 236.12 612.67 236.29 611.76 236.35 611.47 236.5 610.77 236.64 610.19 237.1 608.5 237.41 606.96 237.62 605.85 237.88 604.45 237.93 604.02 237.94 603.54 237.95 603.02 238.05 602.2 238.1 601.51 238.09 600.63 238.05 600.03 238.07 599.76 238.15 598.73 238.25 597.94 238.21 597.92 236.48 596.94 236.4 596.9 235.59 596.42 231.2 593.66 231.5 593.42 231.71 593.16 230.88 592.65 229.85 592.02 228.37 591.1 227.79 590.66 226.92 590.09 227.02 590.02 228.5 588.51 229.37 587.57 229.16 587.45 227.92 586.77 228.34 585.91 228.9 584.88 229.26 584.66 228.93 583.95 228.65 583.15 228.32 582.19 228 581.52 227.5 580.56 227.45 579.68 227.46 579.1 227.49 578.57 226.96 578.38 224.64 576.95 223.36 576.13 219.87 574.44 219.82 574.4 220.29 572.5 220.9 570.63 221.45 569.16 221.94 568.19 222.45 567.45 222.97 566.95 224.03 565.96 225.46 564.69 226.88 563.51 228.95 561.85 229.97 561.15 232.09 559.64 234.56 557.93 236.75 556.33 239.31 554.46 241.33 556.29 242.11 556.98 243.14 557.97 243.5 558.27 243.79 558.45 243.93 557.9 244.36 556.65 244.79 555.39 245.67 553.57 245.71 553.52 245.75 553.47 245.79 553.42 245.83 553.38 245.88 553.33 245.93 553.29 245.98 553.24 246.03 553.2 246.08 553.16 246.13 553.13 246.19 553.09 246.25 553.05 246.31 553.02 246.37 552.99 246.43 552.96 246.49 552.93 246.55 552.91 246.62 552.88 246.68 552.86 246.75 552.84 246.81 552.83 248.02 552.52 249.38 552.24 250.16 552.07 251.64 551.71 252.53 551.58 253.92 551.44 254.89 551.42 254.99 551.56 255.2 551.8 255.62 552.22 256.47 552.99 257.52 553.91 259.09 555.29 259.79 555.94 261.85 558.23 262.41 557.79 264.91 560.15 268.6 563.47 269.69 562.66 270.94 561.91 272.02 561.26 272.52 561.07 273.48 560.71 274.78 559.98 275.73 559.46 277.16 558.73 277.81 558.35 277.82 558.4 278.35 560.92 278.9 561.28 279.82 562.73 279.9 563.17 279.94 563.72 280.09 564.06 280.5 564.29 280.69 564.4 281.5 564.56 281.69 564.58 282.45 564.61 282.96 564.66 283.23 564.77 283.32 564.96 283.68 565.9 283.75 566.08 285.08 565.73 286.3 565.47 286.85 565.34 288.35 565.15 288.97 565.07 Z"/>
<path d="M 329.26 504.8 328.91 505.37 328.71 505.86 328.37 506.86 327.92 507.8 327.51 508.48 327.42 508.63 327.2 509.02 326.84 509.76 326.13 511.19 325.23 513.08 324 515.66 323.65 516.38 323.54 516.62 323.29 517.08 322.95 517.63 322.63 518.25 322.16 519.43 321.6 521.21 321.36 522.06 321.03 523.23 320.75 524.65 320.72 524.75 320.7 524.86 320.67 524.96 320.63 525.07 320.59 525.17 320.55 525.27 320.5 525.37 320.45 525.47 320.4 525.57 320.34 525.66 320.27 525.76 320.21 525.85 319.64 526.59 319.02 527.68 318.51 528.92 318.32 529.4 318.16 529.81 317.97 530.23 317.52 531 316.74 532.26 316.48 532.65 316.26 532.92 315.9 533.34 315.38 533.89 314.04 535.15 313.55 535.68 312.18 537.16 311.19 538.26 310.78 538.67 309.25 540.03 307.6 541.54 307.02 542.25 305.94 543.55 304.22 545.25 303.49 545.81 302.94 546.28 302.48 546.67 302.28 546.87 301.79 547.4 301.34 547.77 300.95 548.03 299.71 548.68 298.29 549.29 296.28 550.03 294.8 550.39 293.58 550.53 290.46 550.95 289.24 551.01 288.19 550.99 285.95 550.62 284.29 550.37 282.76 550.17 281.85 550.14 280.05 550.19 277.27 550.15 275.49 550.12 273.66 550.57 272 551.06 269.01 552.07 266.91 552.72 265.89 553.17 263.47 550.94 262.44 550.04 262.03 549.67 260.06 547.92 258.7 547.05 258.2 546.61 256.42 544.88 254.25 543.03 255.08 540.66 255.91 538.31 256.56 536.44 257.1 534.84 257.63 533.37 258.04 532.32 258.57 530.98 259.2 529.5 260 527.61 260.55 526.31 260.96 525.29 261.32 524.36 261.65 522.94 261.66 522.5 261.84 520.36 262.04 517.51 262.12 516.31 262.23 514.71 261.09 514.41 260.27 515.71 259.2 515.72 257.72 513.47 256.87 512.19 255.48 510.09 254.4 511.08 254.33 511.02 251.89 508.69 252.21 508.41 248.44 505.43 245.7 503.26 246.32 502.56 246.32 502.48 246.35 501.2 246.67 500.39 247.07 500.23 247.13 500.2 247.19 500.16 247.25 500.13 247.31 500.09 247.36 500.05 247.42 500.01 247.47 499.97 247.52 499.93 247.57 499.88 247.62 499.84 247.66 499.79 247.71 499.74 247.75 499.69 247.79 499.64 247.83 499.59 247.86 499.53 247.89 499.48 247.93 499.42 247.95 499.37 247.98 499.31 248.01 499.25 248.03 499.19 248.05 499.13 248.07 499.07 248.08 499.01 248.09 498.95 248.1 498.89 248.11 498.83 248.12 498.77 248.12 498.71 248.16 497.17 248.18 497.07 248.21 496.97 248.24 496.87 248.27 496.77 248.31 496.67 248.35 496.58 248.39 496.48 248.44 496.38 248.49 496.29 248.55 496.2 248.61 496.11 248.67 496.02 248.74 495.93 248.81 495.85 248.88 495.77 248.96 495.69 249.04 495.61 249.12 495.54 249.21 495.46 249.3 495.39 249.39 495.33 249.48 495.26 249.58 495.2 249.68 495.14 249.78 495.09 249.88 495.03 249.99 494.98 250.1 494.94 250.21 494.89 250.32 494.85 250.43 494.82 254.27 493.65 255.37 493.3 257.48 492.13 257.73 491.9 258.19 491.49 258.37 491.31 258.72 490.93 258.9 490.63 258.99 490.34 259.01 490.05 258.98 489.76 258.8 489.32 258.47 488.82 258.06 488.2 257.91 487.86 257.87 487.7 257.83 487.51 257.8 486.46 257.81 485.72 257.8 484.03 257.83 483.47 257.85 483.16 257.94 482.74 258.52 481.26 258.66 480.91 258.87 480.52 259.04 480.29 259.23 480.08 259.4 479.92 260.08 479.47 260.41 479.32 261.58 478.93 262.53 478.63 262.93 478.47 263.27 478.3 263.6 478.1 263.72 478.01 263.9 477.82 264.12 477.59 264.28 477.38 264.4 477.18 264.51 476.95 264.62 476.68 264.74 476.09 265 474.01 265.42 470.78 265.77 470.95 266.11 471.13 266.45 471.32 266.78 471.52 267.1 471.73 267.41 471.95 267.72 472.18 268.01 472.42 268.84 473.1 271.78 475.52 275.37 478.46 277.34 479.97 280.72 482.57 282.58 484 282.96 484.33 283.4 484.74 283.71 484.41 285.32 482.72 286.47 481.45 286.89 480.99 288.15 479.35 288.65 478.67 289.25 477.82 290.76 475.56 291.28 474.78 292.18 473.4 292.89 472.36 293.67 471.2 294.15 470.5 298.35 472.57 299.47 473.13 300.78 473.88 301.7 474.49 302.77 475.38 304.28 476.74 305.93 478.8 307.73 480.93 310.19 484.76 312.29 487.87 314.82 491.52 316.65 494.12 317.31 495.08 318.31 496.36 319.62 497.78 321.21 499.17 322.88 500.44 324.87 501.71 327.71 503.81 328.48 504.37 329.26 504.8 Z"/>
<path d="M 265.42 470.78 265 474.01 264.74 476.09 264.62 476.68 264.51 476.95 264.4 477.18 264.28 477.38 264.12 477.59 263.9 477.82 263.72 478.01 263.6 478.1 263.27 478.3 262.93 478.47 262.53 478.63 261.58 478.93 260.41 479.32 260.08 479.47 259.4 479.92 259.23 480.08 259.04 480.29 258.87 480.52 258.66 480.91 258.52 481.26 257.94 482.74 257.85 483.16 257.83 483.47 257.8 484.03 257.81 485.72 257.8 486.46 257.83 487.51 257.87 487.7 257.32 487.27 242.82 471.23 249.82 470.5 254.64 469.96 258.57 469.51 260.04 469.44 260.45 469.47 260.87 469.51 261.28 469.56 261.69 469.62 262.1 469.69 262.5 469.78 262.9 469.87 263.3 469.98 263.66 470.09 264.02 470.21 264.38 470.34 264.73 470.47 265.08 470.62 265.42 470.78 Z"/>
<path d="M 329.26 504.8 328.48 504.37 327.71 503.81 324.87 501.71 322.88 500.44 321.21 499.17 319.62 497.78 318.31 496.36 317.31 495.08 316.65 494.12 314.82 491.52 312.29 487.87 310.19 484.76 307.73 480.93 305.93 478.8 304.28 476.74 302.77 475.38 301.7 474.49 300.78 473.88 299.47 473.13 298.35 472.57 294.15 470.5 294.64 469.8 294.9 469.46 295.86 468.04 296.74 466.82 299.04 463.5 299.84 462.35 302.03 459.06 304.09 455.9 306.22 452.73 306.77 451.92 307.46 450.89 308.1 449.94 308.25 449.68 308.65 448.85 309.06 447.83 309.42 446.88 310.34 447.19 310.61 447.27 312.74 447.96 313.79 448.44 314.54 448.75 316.9 448.95 317.36 448.97 318.93 448.91 318.96 448.82 319.34 448.66 319.53 448.56 319.82 448.39 320.46 448.25 320.86 448.27 321.62 448.41 321.9 448.43 322.06 448.42 322.2 448.41 322.35 448.35 322.47 448.29 322.6 448.19 322.65 448.12 322.71 448.04 322.87 447.94 322.99 447.95 323.26 448.02 324.17 448.27 325.23 448.33 326.61 448.11 326.77 448.05 327.05 447.89 327.13 447.78 327.25 447.59 327.39 447.5 327.69 447.28 328.03 446.66 328.27 446.54 329.1 446.78 329.58 446.94 330.32 447.25 330.61 447.37 332.55 447.82 332.57 447.83 332.59 447.83 332.61 447.84 332.63 447.84 332.66 447.84 332.68 447.84 332.7 447.84 332.72 447.84 332.74 447.84 332.77 447.84 332.79 447.84 332.81 447.84 332.83 447.83 332.85 447.83 332.87 447.83 332.89 447.82 332.91 447.81 332.94 447.81 332.96 447.8 332.98 447.79 333 447.79 333.02 447.78 333.03 447.77 333.05 447.76 333.07 447.75 333.09 447.74 333.11 447.72 333.12 447.71 333.14 447.7 333.16 447.69 333.17 447.67 333.19 447.66 333.2 447.65 333.21 447.63 333.23 447.62 333.24 447.6 333.25 447.59 333.26 447.57 333.27 447.55 333.28 447.54 333.29 447.52 333.3 447.5 333.46 447.17 333.66 447.04 333.9 447.03 335.03 447.1 335.83 446.8 336.34 445.27 336.7 444.74 337.33 444.52 338.33 444.45 339.31 444.67 341.36 445.24 341.93 445.39 342.89 445.72 343.86 446.3 344.29 446.64 344.81 447.01 345.52 447.27 346.47 447.58 346.79 447.69 347.25 447.98 347.77 448.55 349.07 449.69 350.1 450.34 350.69 450.55 350.74 451.37 350.54 452.34 349.82 453.7 348.66 455.48 347.41 457.58 346.66 458.67 346.31 459.15 345.52 460.17 344.55 461.22 347.03 463.38 349.84 465.83 351.22 466.91 354.84 469.07 352.23 472.05 351.81 472.6 345.87 481.55 343.82 484.54 341.32 487.3 339.55 489.07 339.44 489.18 339.34 489.29 339.25 489.4 339.16 489.52 339.07 489.64 338.99 489.76 338.91 489.88 338.84 490 338.78 490.13 338.72 490.26 338.66 490.39 338.61 490.52 338.56 490.66 338.52 490.79 338.49 490.93 338.3 491.73 338.01 492.93 337.59 494.09 337.52 494.26 337.44 494.42 337.36 494.57 337.27 494.73 337.17 494.88 337.07 495.03 336.97 495.17 336.85 495.32 336.74 495.46 335.07 497.36 334.96 497.49 334.84 497.61 334.71 497.73 334.58 497.85 334.45 497.97 334.31 498.08 334.17 498.18 334.03 498.29 331.2 500.24 331.13 500.28 331.07 500.33 331.02 500.38 330.96 500.43 330.9 500.48 330.85 500.53 330.8 500.59 330.75 500.64 330.71 500.7 330.66 500.76 330.62 500.82 330.58 500.88 330.54 500.94 330.51 501 330.48 501.06 330.45 501.13 330.42 501.2 330.4 501.26 330.38 501.33 330.36 501.4 330.34 501.46 329.95 503.23 329.26 504.8 Z"/>
<path d="M 242.82 471.23 257.32 487.27 257.87 487.7 257.91 487.86 258.06 488.2 258.47 488.82 258.8 489.32 258.98 489.76 259.01 490.05 258.99 490.34 258.9 490.63 258.72 490.93 258.37 491.31 258.19 491.49 257.73 491.9 257.48 492.13 255.37 493.3 254.27 493.65 250.43 494.82 250.32 494.85 250.21 494.89 250.1 494.94 249.99 494.98 249.88 495.03 249.78 495.09 249.68 495.14 249.58 495.2 249.48 495.26 249.39 495.33 249.3 495.39 249.21 495.46 249.12 495.54 249.04 495.61 248.96 495.69 248.88 495.77 248.81 495.85 248.74 495.93 248.67 496.02 248.61 496.11 248.55 496.2 248.49 496.29 248.44 496.38 248.39 496.48 248.35 496.58 248.31 496.67 248.27 496.77 248.24 496.87 248.21 496.97 248.18 497.07 248.16 497.17 248.12 498.71 248.12 498.77 248.11 498.83 248.1 498.89 248.09 498.95 248.08 499.01 248.07 499.07 248.05 499.13 248.03 499.19 248.01 499.25 247.98 499.31 247.95 499.37 247.93 499.42 247.89 499.48 247.86 499.53 247.83 499.59 247.79 499.64 247.75 499.69 247.71 499.74 247.66 499.79 247.62 499.84 247.57 499.88 247.52 499.93 247.47 499.97 247.42 500.01 247.36 500.05 247.31 500.09 247.25 500.13 247.19 500.16 247.13 500.2 247.07 500.23 246.67 500.39 246.35 501.2 246.32 502.48 246.32 502.56 245.7 503.26 248.44 505.43 252.21 508.41 251.89 508.69 254.33 511.02 254.4 511.08 255.48 510.09 256.87 512.19 257.72 513.47 259.2 515.72 260.27 515.71 261.09 514.41 262.23 514.71 262.12 516.31 262.04 517.51 261.84 520.36 261.66 522.5 261.65 522.94 261.32 524.36 260.96 525.29 260.55 526.31 260 527.61 259.2 529.5 258.57 530.98 258.04 532.32 257.63 533.37 257.1 534.84 256.56 536.44 255.91 538.31 255.08 540.66 254.25 543.03 256.42 544.88 258.2 546.61 258.7 547.05 260.06 547.92 262.03 549.67 262.44 550.04 262.36 550.08 260.96 550.6 258.71 551.29 257.91 551.53 257.02 551.51 256.06 551.47 255.21 551.42 254.89 551.42 253.92 551.44 252.53 551.58 251.64 551.71 250.16 552.07 249.38 552.24 248.02 552.52 246.81 552.83 246.75 552.84 246.68 552.86 246.62 552.88 246.55 552.91 246.49 552.93 246.43 552.96 246.37 552.99 246.31 553.02 246.25 553.05 246.19 553.09 246.13 553.13 246.08 553.16 246.03 553.2 245.98 553.24 245.93 553.29 245.88 553.33 245.83 553.38 245.79 553.42 245.75 553.47 245.71 553.52 245.67 553.57 244.79 555.39 244.36 556.65 243.93 557.9 243.79 558.45 243.5 558.27 243.14 557.97 242.11 556.98 241.33 556.29 239.31 554.46 236.75 556.33 234.56 557.93 232.09 559.64 229.97 561.15 228.95 561.85 226.88 563.51 225.46 564.69 224.03 565.96 222.97 566.95 222.45 567.45 221.94 568.19 221.45 569.16 220.9 570.63 220.29 572.5 219.82 574.4 219.87 574.44 223.36 576.13 224.64 576.95 226.96 578.38 227.49 578.57 227.46 579.1 227.45 579.68 227.5 580.56 228 581.52 228.32 582.19 228.65 583.15 228.93 583.95 229.26 584.66 228.9 584.88 228.34 585.91 227.92 586.77 229.16 587.45 229.37 587.57 228.5 588.51 227.02 590.02 226.92 590.09 227.79 590.66 228.37 591.1 229.85 592.02 230.88 592.65 231.71 593.16 231.5 593.42 231.2 593.66 235.59 596.42 236.4 596.9 236.48 596.94 238.21 597.92 238.25 597.94 238.15 598.73 238.07 599.76 238.05 600.03 238.09 600.63 238.1 601.51 238.05 602.2 237.95 603.02 237.94 603.54 237.93 604.02 237.88 604.45 237.62 605.85 237.41 606.96 237.1 608.5 236.64 610.19 236.5 610.77 236.35 611.47 236.29 611.76 236.12 612.67 235.94 613.94 235.8 614.88 235.67 615.95 235.49 617.45 235.33 618.4 235.15 619.43 235.65 620.05 236.64 621.05 237.27 621.71 238.18 622.58 240.81 625.19 242.91 627.25 246.08 630.34 249.33 633.42 251.68 635.35 253.58 636.71 255.95 638.7 258.01 640.43 259.57 641.97 261.63 643.92 265.28 646.95 262.35 650.43 259.05 654.09 257.13 656.09 254.68 658.57 255.33 659.66 250.1 663.12 247.92 664.55 246.03 665.83 244.03 667.08 242.05 668.18 239.25 669.75 238.73 670.14 238 669.13 236.58 667.22 235.03 665.32 232.94 662.78 228.37 665.5 225.01 666.97 224.58 670.83 224.05 673.59 223.33 677.57 223.22 678.48 223.06 680.8 222.75 684.86 222.59 685.92 221.22 686.2 213.94 687.72 209.59 688.65 205.87 689.44 202.18 690.16 199.26 690.44 197.81 690.43 195.19 690.38 188.86 690.17 185.98 690.04 182.85 689.94 181.13 689.9 179.03 689.73 177.38 689.4 175.84 688.87 173.34 687.76 167.65 684.21 161.35 680.3 155.63 676.7 155.34 677.71 155.61 680.53 155.45 682.59 155 684.83 153.98 687.41 153.83 687.44 147.41 678.72 143.58 673.01 142.94 672.37 140.88 670.14 139.4 668.42 138.73 668.88 134.81 665.52 135.44 664.64 136.72 662.34 139.28 658.7 141.52 655.54 143.03 654.28 143.1 654.21 146.51 650.76 148.7 646.26 150.7 641.48 151.38 639.26 152.31 635.38 150.74 634.81 148.1 633.75 146.63 633.19 146.47 633.13 146.31 633.06 146.16 632.99 146 632.91 145.85 632.83 145.71 632.74 145.56 632.65 145.42 632.55 145.29 632.46 145.16 632.35 145.03 632.25 144.91 632.14 144.79 632.02 144.68 631.9 144.57 631.78 143.11 630.14 140.62 627.52 139.34 625.85 137.9 624.15 136.13 622.29 135.14 621.45 133.96 620.13 133.59 619.75 132.56 618.54 131.05 617.99 129.29 617.38 124 614.54 121.88 613.43 105.77 604.76 92.27 597.51 86.13 594.22 81.63 591.8 64.92 582.84 63.48 581.55 61.04 578.59 59.51 577.11 58.6 576.22 57.25 574.9 56.92 574.57 58 573.56 59.1 572.65 60.14 571.57 62.69 569.7 63.71 568.8 64.28 568.31 65.8 566.98 66.84 565.96 67 565.85 67.95 565.17 70.78 563.3 73.43 560.91 77.23 557.65 81.86 553.79 86.62 549.04 91.74 544.69 95.68 541.56 98.23 538.97 102.1 535.53 104.79 532.94 105.9 532.15 107.08 531.25 108.18 530.58 109.5 529.8 110.95 528.77 112.85 527.24 114.02 526.04 115.26 525.01 117.54 522.96 118.58 521.94 119.83 521.15 122.38 519.1 124.32 517.53 125.7 516.21 127.08 514.88 129.57 513.07 132.76 510.42 133.93 509.39 135.88 506.7 139.06 503.15 141.33 500.8 143.68 498.45 146.44 495.86 150.99 490.63 152.93 488.76 154.1 487.38 155.41 485.81 156.45 484.97 157.9 484.18 159.63 482.85 161.64 481.46 163.19 480.34 165.13 478.83 165.75 477.93 166.72 476.97 168.38 475.7 170.38 473.83 172.52 471.73 173.7 470.76 174.32 469.98 175.08 469.14 177.01 467.69 178.47 466.42 179.85 465.28 180.68 464.37 181.58 463.71 182.48 462.93 182.76 462.62 183.3 462.02 183.5 461.8 183.92 461.18 184.54 460.4 185.72 459.38 186.9 458.59 188.49 457.56 190.71 456.05 192.58 454.67 194.03 453.64 194.86 453.09 195.97 452.43 197.29 451.52 199.23 450.43 201 449.49 202.46 448.52 203.77 447.38 206.33 445.27 207.78 443.88 209.65 442.25 211.24 440.87 211.66 441.13 217.28 444.66 225.73 450.34 226.19 450.68 229.17 452.41 230.58 453.27 232 454.01 235.7 456.52 238.28 459.41 236.74 464.51 242.82 471.23 Z"/>
<path d="M 421.57 412.04 421.93 413.5 423.32 413.92 422.95 415.38 421.15 414.85 419.76 414.86 419.6 416.97 417.26 417.24 415.1 417.41 415.45 420.34 413.65 424.7 411.12 426.13 409.38 427.63 411.01 428.31 409.31 431.46 407.3 430.35 406.06 429.93 403.9 431.67 403.72 431.59 401.61 430.82 400.08 430.37 397.82 429.93 396.2 429.66 394.1 429.2 392.45 428.84 392.7 430.18 392.8 430.86 392.86 431.97 391.02 432.43 390.86 432.68 390.39 433.26 389.02 435.22 388.43 435.95 385.86 438.61 384.87 439.42 380.55 442.25 380.04 442.63 379.88 442.49 376.41 439.71 373.8 437.73 369.22 434.58 364.37 431.94 361.44 430.54 358.32 428.99 355.98 427.75 351.72 425.49 351.25 425.36 345.43 422.81 341.74 421.17 338.43 419.47 336.97 418.56 336.69 418.4 342.46 413.15 343.07 412.54 343.94 411.66 346.54 409.02 348.49 407.04 349.05 406.47 349.63 405.84 353.18 401.61 356.06 398.18 356.72 397.47 360.91 393.32 363.33 395.03 364.78 394.51 366.93 395.64 368.41 396.46 368.74 396.75 369.49 398.5 369.75 400.11 370.56 400.78 372.03 401.46 372.98 401.86 373.37 402.12 374.44 403.2 375.23 404.32 375.57 404.55 376.8 404.8 378.61 404.91 379.56 405.49 379.9 405.74 380.44 405.34 380.93 405.14 382.42 405.66 383.5 406.03 384.53 406.21 385.33 406.58 386.61 407.42 386.92 407.67 386.39 408.5 386.38 408.51 386.38 408.52 386.37 408.54 386.36 408.55 386.36 408.56 386.35 408.58 386.35 408.59 386.34 408.61 386.34 408.62 386.34 408.64 386.33 408.65 386.33 408.66 386.33 408.68 386.33 408.69 386.33 408.71 386.33 408.72 386.33 408.74 386.33 408.75 386.34 408.77 386.34 408.78 386.34 408.8 386.35 408.81 386.35 408.82 386.36 408.84 386.36 408.85 386.37 408.87 386.38 408.88 386.38 408.89 386.39 408.91 386.4 408.92 386.41 408.93 386.42 408.94 386.43 408.96 386.44 408.97 386.45 408.98 386.46 408.99 386.48 409 386.49 409.01 386.5 409.02 386.51 409.03 386.53 409.04 386.54 409.05 386.56 409.06 386.57 409.06 386.58 409.07 386.6 409.08 386.62 409.08 386.63 409.09 386.65 409.1 386.66 409.1 386.68 409.11 386.7 409.11 386.71 409.11 386.73 409.12 386.75 409.12 386.76 409.12 386.78 409.12 386.8 409.12 386.82 409.12 386.83 409.12 386.85 409.12 386.87 409.12 386.88 409.12 386.9 409.12 386.92 409.12 386.93 409.11 386.95 409.11 387.78 408.93 388.92 408.59 389.58 408.74 390.28 408.83 391.14 408.71 392.05 408.93 392.34 409.41 392.83 409.93 392.65 410.39 392.78 410.92 393.13 411.41 393.57 411.9 394.98 412.66 397.74 409.63 399.15 408.06 400.79 406.07 403.89 407.64 405.67 407.4 407.99 408.14 410.55 409.43 410.75 409.56 416.23 411.91 417.91 412.37 421.57 412.04 Z"/>
<path d="M 341.49 412.45 341.18 412.73 335.69 417.71 336.02 417.91 336.62 418.35 336.69 418.4 336.97 418.56 338.43 419.47 341.74 421.17 345.43 422.81 351.25 425.36 351.72 425.49 355.98 427.75 358.32 428.99 361.44 430.54 364.37 431.94 369.22 434.58 373.8 437.73 376.41 439.71 379.88 442.49 380.04 442.63 379.4 443.19 377.89 444.58 377.6 444.84 377.32 445.08 377.03 445.31 376.73 445.54 376.43 445.75 376.12 445.96 375.79 446.15 372.16 448.34 369.92 449.57 367.64 450.83 367.1 451.11 365.77 451.67 362.14 452.97 361.37 453.28 359.47 454.09 356.61 455.1 356.4 454.73 354.66 451.34 352.89 450.51 351.82 450.28 350.73 450.15 350.14 449.99 349.91 449.86 349.04 449.1 348.11 448.27 347.77 447.8 347.28 447.41 345.84 446.86 345.28 446.81 345.1 446.69 344.17 445.99 343.56 445.52 343.07 445.35 342.07 445 341.51 444.86 340.38 444.54 339.12 444.19 338.36 444.11 337.25 444.06 337.1 444.23 336.47 444.4 336.26 444.71 335.97 445.14 335.82 445.41 335.78 445.52 335.72 445.89 335.61 446.51 335.03 446.75 334.52 446.72 333.93 446.69 333.54 446.77 333.23 446.74 333.03 447.16 332.94 447.36 332.92 447.55 331.89 447.32 330.78 447.06 329.73 446.62 329.24 446.46 328.52 446.22 327.9 446.15 327.7 446.53 327.25 447.28 327.08 447.24 326.98 447.29 326.8 447.57 326.72 447.7 326.68 447.74 326.6 447.76 325.17 447.99 324.28 447.94 322.57 447.47 322.21 448.15 320.92 447.93 320.1 447.89 319.87 447.97 319.66 448.03 319.12 448.37 318.96 448.82 318.93 448.91 317.36 448.97 316.9 448.95 314.54 448.75 313.79 448.44 312.74 447.96 310.61 447.27 310.34 447.19 309.42 446.88 309.06 447.83 308.65 448.85 308.25 449.68 308.1 449.94 307.46 450.89 306.77 451.92 306.22 452.73 304.09 455.9 302.03 459.06 299.84 462.35 299.04 463.5 296.74 466.82 295.86 468.04 294.9 469.46 294.64 469.8 294.15 470.5 293.67 471.2 292.89 472.36 292.18 473.4 291.28 474.78 290.76 475.56 289.25 477.82 288.65 478.67 288.15 479.35 286.89 480.99 286.47 481.45 285.32 482.72 283.71 484.41 283.4 484.74 282.96 484.33 282.58 484 280.72 482.57 277.34 479.97 275.37 478.46 271.78 475.52 268.84 473.1 268.01 472.42 267.72 472.18 267.41 471.95 267.1 471.73 266.78 471.52 266.45 471.32 266.11 471.13 265.77 470.95 265.42 470.78 265.08 470.62 264.73 470.47 264.38 470.34 264.02 470.21 263.66 470.09 263.3 469.98 262.9 469.87 262.5 469.78 262.1 469.69 261.69 469.62 261.28 469.56 260.87 469.51 260.45 469.47 260.04 469.44 258.57 469.51 254.64 469.96 249.82 470.5 242.82 471.23 236.74 464.51 238.28 459.41 235.7 456.52 232 454.01 230.58 453.27 229.17 452.41 226.19 450.68 225.73 450.34 217.28 444.66 211.66 441.13 211.24 440.87 211.65 440.51 213.94 438.4 217.46 435.2 221.05 431.71 224.16 428.76 227.21 426.23 232.48 422.66 235.93 419.65 238.73 417.51 241.77 414.85 244.68 412.2 248.21 409.19 251.04 406.84 252.5 405.51 254.02 404.43 255.61 403.34 257.28 402.07 259.07 400.15 261.08 398.28 263.22 396.23 267.44 392.44 270.03 390.34 272.45 388.05 273.28 387.21 274.03 386.07 274.72 385.41 275.9 384.56 277.35 383.18 280.12 380.59 283.02 377.82 285.57 375.49 286.03 375.8 289.16 377.89 292.36 377.2 295.24 376.22 299.5 376.94 300.66 377.88 301.34 378.95 302.53 380.07 303.94 380.89 304.93 382.11 304.27 382.35 309.61 386.4 311.87 387.96 314.4 389.85 316.01 391.07 318.07 388.39 319.49 386.69 321.38 384.82 321.51 384.92 325.36 388.17 322.22 391.56 327.19 395.41 328.75 394.67 334.01 398.41 328.88 403.32 333.31 406.56 341.49 412.45 Z"/>
<path d="M 431.62 407.9 429.93 409.91 429.32 410 426.96 411.03 424.02 413.43 421.76 412.02 421.57 412.04 417.91 412.37 416.23 411.91 410.75 409.56 410.55 409.43 407.99 408.14 405.67 407.4 403.89 407.64 400.79 406.07 399.15 408.06 397.74 409.63 394.98 412.66 393.57 411.9 393.13 411.41 392.78 410.92 392.65 410.39 392.83 409.93 392.34 409.41 392.05 408.93 391.14 408.71 390.28 408.83 389.58 408.74 388.92 408.59 387.78 408.93 386.95 409.11 386.93 409.11 386.92 409.12 386.9 409.12 386.88 409.12 386.87 409.12 386.85 409.12 386.83 409.12 386.82 409.12 386.8 409.12 386.78 409.12 386.76 409.12 386.75 409.12 386.73 409.12 386.71 409.11 386.7 409.11 386.68 409.11 386.66 409.1 386.65 409.1 386.63 409.09 386.62 409.08 386.6 409.08 386.58 409.07 386.57 409.06 386.56 409.06 386.54 409.05 386.53 409.04 386.51 409.03 386.5 409.02 386.49 409.01 386.48 409 386.46 408.99 386.45 408.98 386.44 408.97 386.43 408.96 386.42 408.94 386.41 408.93 386.4 408.92 386.39 408.91 386.38 408.89 386.38 408.88 386.37 408.87 386.36 408.85 386.36 408.84 386.35 408.82 386.35 408.81 386.34 408.8 386.34 408.78 386.34 408.77 386.33 408.75 386.33 408.74 386.33 408.72 386.33 408.71 386.33 408.69 386.33 408.68 386.33 408.66 386.33 408.65 386.34 408.64 386.34 408.62 386.34 408.61 386.35 408.59 386.35 408.58 386.36 408.56 386.36 408.55 386.37 408.54 386.38 408.52 386.38 408.51 386.39 408.5 386.92 407.67 386.61 407.42 385.33 406.58 384.53 406.21 383.5 406.03 382.42 405.66 380.93 405.14 380.44 405.34 379.9 405.74 379.56 405.49 378.61 404.91 376.8 404.8 375.57 404.55 375.23 404.32 374.44 403.2 373.37 402.12 372.98 401.86 372.03 401.46 370.56 400.78 369.75 400.11 369.49 398.5 368.74 396.75 368.41 396.46 366.93 395.64 364.78 394.51 363.33 395.03 360.91 393.32 362.05 392.2 366.1 388.24 366.8 387.55 370.18 384.22 377.68 376.83 378.37 376.15 384.13 370.46 384.74 369.9 388.35 372.57 394.5 376.82 397.86 379.61 398.86 380.45 399.43 380.9 399.95 381.39 400.14 381.58 400.38 381.7 400.67 381.82 400.81 382 400.82 382.13 401.24 382.29 402.1 382.56 403.06 382.78 403.79 382.94 404.86 383.26 405.45 383.34 406.24 383.46 407 383.82 407.88 384.26 407.97 384.61 408.62 385.07 409.9 386 411.57 387.26 414.64 389.41 413.85 390.38 413.45 390.81 412.79 391.65 412.36 392.42 411.96 393.12 411.7 393.57 411.41 394.01 410.8 394.84 414.31 397.02 415.74 397.77 415.94 397.88 416.14 397.99 416.34 398.12 416.53 398.24 416.72 398.38 416.9 398.52 417.22 398.81 417.42 398.98 417.63 399.15 417.84 399.31 418.05 399.46 418.28 399.61 418.51 399.75 420.64 400.9 421.53 401.56 423.58 403.01 431.62 407.9 Z"/>
<path d="M 383.65 369.26 383.3 369.62 377.36 375.48 371.26 381.49 370.5 382.24 364.26 388.39 359.81 392.74 359.12 393.42 355.72 396.79 355.06 397.51 354.42 398.26 352.75 400.26 351.2 402.1 350.02 403.5 348.62 405.17 348.05 405.8 344.42 409.48 343.68 410.23 341.76 412.17 341.49 412.45 333.31 406.56 328.88 403.32 334.01 398.41 328.75 394.67 327.19 395.41 322.22 391.56 325.36 388.17 321.51 384.92 321.38 384.82 319.49 386.69 318.07 388.39 316.01 391.07 314.4 389.85 311.87 387.96 309.61 386.4 304.27 382.35 304.93 382.11 303.94 380.89 302.53 380.07 301.34 378.95 300.66 377.88 299.5 376.94 295.24 376.22 292.36 377.2 289.16 377.89 286.03 375.8 285.57 375.49 285.86 375.23 287.8 373.3 289.52 371.44 291.67 369.21 293.74 367.29 295.95 365.06 297.06 363.62 298.99 361.69 301.34 359.28 303.97 357 305.49 355.55 306.11 354.35 309.46 350.69 311.4 348.83 313.61 346.6 316.86 343.41 322.04 337.82 324.6 335.24 325.14 335.58 334.15 341.41 341.39 343.44 341.78 343.05 345.07 344.53 347.85 345.99 349.73 347.31 349.03 348.17 348.9 348.27 352.1 351.31 353.94 352.41 357.42 354.51 360.84 356.57 364.69 358.7 365.36 358.33 366.36 358.05 368.25 358.02 371.93 356.7 376.35 360.37 374.13 362.74 383.65 369.26 Z"/>
<path d="M 431.62 407.9 423.58 403.01 421.53 401.56 420.64 400.9 418.51 399.75 418.28 399.61 418.05 399.46 417.84 399.31 417.63 399.15 417.42 398.98 417.22 398.81 416.9 398.52 416.72 398.38 416.53 398.24 416.34 398.12 416.14 397.99 415.94 397.88 415.74 397.77 414.31 397.02 410.8 394.84 411.41 394.01 411.7 393.57 411.96 393.12 412.36 392.42 412.79 391.65 413.45 390.81 413.85 390.38 414.64 389.41 411.57 387.26 409.9 386 408.62 385.07 407.97 384.61 407.88 384.26 407 383.82 406.24 383.46 405.45 383.34 404.86 383.26 403.79 382.94 403.06 382.78 402.1 382.56 401.24 382.29 400.82 382.13 400.81 382 400.67 381.82 400.38 381.7 400.14 381.58 399.95 381.39 399.43 380.9 398.86 380.45 397.86 379.61 394.5 376.82 388.35 372.57 384.74 369.9 385.19 369.54 389.36 366.33 390.4 365.54 394.26 362.57 397.08 360.33 400.47 357.7 401.71 356.75 402.59 356.07 403.62 355.17 407 351.85 409.06 349.99 411.99 347.53 412.76 346.89 415.56 344.55 416.34 343.96 417.27 343.36 422.83 339.84 427.03 336.97 427.66 336.5 429.67 334.92 430.96 333.92 431.35 333.61 432.15 332.98 438.38 337.99 440.54 339.74 440.89 340.07 442.8 341.86 444.66 343.68 445.67 344.8 449.27 349.38 450.16 350.72 451.05 352.34 449.66 356.94 451.42 358.69 449.19 364.87 447.76 370.13 447.71 370.29 447.66 370.45 447.6 370.61 447.54 370.77 447.47 370.92 447.39 371.07 447.31 371.22 447.22 371.37 447.13 371.51 447.03 371.65 446.92 371.79 443.55 376.1 443.38 376.38 443.23 376.66 443.08 376.95 442.95 377.24 442.83 377.53 442.71 377.82 442.61 378.12 442.54 378.49 442.5 378.66 442.46 378.83 442.41 379 442.35 379.17 442.29 379.34 442.22 379.5 442.14 379.66 442.06 379.82 441.97 379.98 441.88 380.13 441.78 380.28 441.67 380.43 441.56 380.57 441.44 380.71 438.43 384.77 436.56 387.34 436.13 388.06 435.33 389.65 434.87 390.31 434.37 390.93 433.81 391.63 432.3 394.08 432.01 394.51 431.9 394.64 431.42 395.16 430.95 395.6 435.18 398.44 436.89 399.57 438.36 400.62 431.62 407.9 Z"/>
<path d="M 383.65 369.26 374.13 362.74 376.35 360.37 371.93 356.7 368.25 358.02 366.36 358.05 365.36 358.33 364.69 358.7 360.84 356.57 357.42 354.51 353.94 352.41 352.1 351.31 348.9 348.27 349.03 348.17 349.73 347.31 347.85 345.99 345.07 344.53 341.78 343.05 341.39 343.44 334.15 341.41 325.14 335.58 324.6 335.24 325.98 333.85 328.54 331.5 330.48 329.81 331.03 328.79 331.93 327.89 333.38 326.5 334.35 325.24 335.8 323.86 337.11 322.53 339.69 319.66 341.42 317.44 344.04 314.43 346.12 312.32 347.64 310.7 348.68 309.68 349.99 308.65 351.17 307.87 352.27 306.96 352.7 307.13 353.59 307.48 355.83 307.15 358.09 306.8 358.53 306.61 360.44 305.77 362.26 305.71 363.44 305.66 365.28 304.9 365.74 304.84 366.17 304.78 367.42 304.11 368.74 303.42 376.19 299.37 377.79 298.5 384.04 297 384.26 296.94 389.61 297.37 391.24 297.55 393.01 297.47 394.81 297.38 395.48 297.35 396.73 297.62 397.75 297.83 400.71 297.17 404.43 296.93 407.98 298.03 408.88 297.74 410.03 298.31 410.64 298.78 411.03 299.39 412.08 303.25 412.53 304.6 412.37 304.84 411.62 305.12 411.67 305.3 412.1 305.23 412.17 305.5 411.94 306.84 415.78 311.37 420.36 314.14 423.15 313.99 426.32 313.83 428.76 314.24 430.91 314.56 432.03 314.6 432.83 314.62 433.62 314.61 434.79 314.62 435.79 314.98 440.32 316.07 441.48 316.63 441.72 316.69 445.21 318.62 446.61 319.96 444.3 322.59 441.59 324.34 439.82 325.35 437.21 327.5 434.44 329.69 433.6 330.35 428.23 334.56 425.84 336.39 423.24 338.16 422.06 338.97 420.24 340.12 416.52 342.47 415.97 342.82 414.73 343.72 412.24 345.79 409.86 347.77 408.86 348.6 406.06 351.12 403.18 353.95 402.71 354.4 401.68 355.3 400.16 356.47 397.87 358.23 397.04 358.88 393.78 361.47 389.74 364.58 383.65 369.26 Z"/>
<path d="M 457 349.91 456.13 349.32 455.12 348.12 454.98 346.85 453.99 345.53 452.22 344.77 451.39 343.46 451.68 342.37 451.81 341.58 451.75 340.37 449.59 339.03 450.47 335.48 451.51 333.67 453.04 329.8 454.37 326.47 455.72 327.34 455.98 326.66 455.69 326.43 456.48 323.03 454.91 323.19 453.27 322.27 451.14 321.9 448.87 320.6 448.51 319.65 451.52 316.65 452.24 315.91 455.69 312.41 460.01 308.59 463.31 306 468.05 302.63 469.99 301.28 472.49 299.43 473.47 298.52 473.65 298.35 473.67 298.33 473.69 298.31 473.72 298.29 473.74 298.27 473.77 298.25 473.79 298.24 473.82 298.22 473.85 298.21 473.88 298.19 473.91 298.18 473.94 298.16 473.96 298.15 474 298.14 474.03 298.13 474.06 298.12 474.09 298.11 474.12 298.11 474.15 298.1 474.19 298.09 474.22 298.09 474.25 298.09 474.28 298.08 474.32 298.08 474.35 298.08 474.38 298.08 474.41 298.08 474.45 298.09 474.48 298.09 474.51 298.09 474.55 298.1 474.58 298.1 474.61 298.11 474.64 298.12 474.67 298.13 474.7 298.14 474.73 298.15 474.76 298.16 474.79 298.17 474.82 298.19 474.85 298.2 474.88 298.21 474.91 298.23 474.93 298.25 474.96 298.26 474.98 298.28 475.01 298.3 475.25 298.5 475.33 298.56 475.42 298.62 475.5 298.68 475.59 298.73 475.68 298.78 475.77 298.83 475.87 298.88 475.96 298.92 476.06 298.96 476.16 299 476.26 299.04 476.36 299.07 476.47 299.1 476.57 299.13 476.68 299.15 476.78 299.17 476.89 299.19 477 299.2 477.1 299.21 477.21 299.22 477.32 299.23 477.43 299.23 477.54 299.23 477.65 299.22 477.76 299.21 477.86 299.2 477.97 299.19 478.08 299.17 478.18 299.15 478.29 299.13 478.39 299.1 478.5 299.07 486.53 296.63 496.02 293.78 504.78 291.03 506.42 290.51 505.77 292.05 505.44 294.22 505.48 294.62 505.49 295.18 505.4 295.88 505.01 297.57 504.35 300.4 504.3 300.6 504.3 300.61 504.29 300.61 504.29 300.62 504.29 300.63 504.29 300.64 504.29 300.65 504.3 300.66 504.3 300.67 504.3 300.68 504.3 300.69 504.31 300.69 504.31 300.7 504.32 300.71 504.32 300.72 504.33 300.73 504.34 300.74 504.35 300.75 504.36 300.76 506.58 302.47 520.04 312.4 521.73 312.95 523.11 313.73 523.63 314.08 518.38 319.9 512.53 326.4 509.35 329.92 503.55 336.1 489.4 351.44 482.66 358.45 482.66 358.46 482.65 358.46 482.65 358.47 482.64 358.47 482.63 358.48 482.62 358.48 482.62 358.49 482.61 358.49 482.6 358.5 482.59 358.5 482.58 358.5 482.57 358.51 482.56 358.51 482.55 358.51 482.54 358.51 482.53 358.51 482.52 358.51 482.51 358.51 482.5 358.51 482.49 358.51 482.48 358.51 482.47 358.51 482.46 358.51 482.45 358.51 482.45 358.5 482.44 358.5 482.43 358.5 482.42 358.49 482.41 358.49 482.4 358.49 482.4 358.48 482.39 358.48 482.38 358.47 474.5 352.39 463.92 359.37 457 349.91 Z"/>
<path d="M 442.81 274.22 445.76 272.07 446.42 272.5 447.5 273.32 450.59 276.11 453.26 278.46 454.8 279.99 458.27 283.09 459.96 284.6 461.09 285.62 461.49 285.98 465.2 289.18 468.55 292.08 470.42 293.73 471.02 294.27 473.13 296.17 473.15 296.19 473.17 296.21 473.19 296.24 473.21 296.26 473.22 296.28 473.24 296.31 473.26 296.34 473.27 296.36 473.28 296.39 473.29 296.41 473.3 296.44 473.31 296.47 473.32 296.5 473.33 296.53 473.34 296.55 473.34 296.58 473.34 296.61 473.35 296.64 473.35 296.67 473.35 296.7 473.35 296.73 473.35 296.75 473.34 296.78 473.34 296.81 473.33 296.84 473.33 296.87 473.32 296.9 473.31 296.92 473.3 296.95 473.29 296.98 473.28 297 473.26 297.03 473.25 297.06 473.23 297.08 473.22 297.11 473.2 297.13 473.18 297.16 473.16 297.18 473.14 297.2 473.12 297.22 473.1 297.25 471.6 298.65 469.17 300.44 467.24 301.78 461.99 305.52 459.12 307.81 454.7 311.71 451.97 314.49 447.63 318.85 446.77 318.39 445.72 316.86 443.91 315.6 442.15 314.82 441.34 314.63 440.5 314.41 439.74 314.31 439.44 314.37 434.22 313.04 431.07 312.76 428.84 312.3 422.24 311.93 419.04 311.1 417.63 308.62 417 307.56 415.73 305.66 413.91 303.88 414.64 300.02 414.57 298.7 414.38 297.66 413.62 296.13 412.66 294.75 411.01 293.68 411.05 290.22 413.14 289.3 416.71 287.71 417.1 287.45 419.27 289.41 420.62 288.69 425.67 285.63 430.37 282.72 435.09 279.52 439.08 276.82 442.81 274.22 Z"/>
<path d="M 426.42 276.79 417.12 286.2 415.14 288.41 411.92 287.65 410.84 288.31 410.37 288.65 407.16 287.37 404.43 285.51 413.21 277.34 419.12 271.51 426.42 276.79 Z"/>
<path d="M 564.18 306.86 562.68 307.97 559.38 310.73 554.9 314.33 550.65 318.02 544.74 323.17 542.15 325.46 537.84 328.28 536.82 329.27 536.17 330.4 535.55 331.67 534.7 332.86 532.73 334.72 529.43 338.16 525.91 341.86 522.61 345.02 521.31 346.25 520.64 346.67 519.82 346.93 518.8 347.22 517.9 347.42 516.49 347.82 514.57 348.27 511.88 348.81 510.56 349.2 509.24 349.82 506.99 351.22 504.96 352.39 501.56 354.14 500.53 354.99 499.82 355.8 498.84 357.08 498.34 358.28 497.76 359.24 496.97 359.98 495.41 361.76 493.52 363.99 492.35 365.44 491.48 366.73 490.93 367.83 490.05 369.99 489.72 371.06 489.38 371.86 488.91 372.58 488.1 373.23 486.76 374.25 485.15 375.79 483.31 377.68 481.89 379.12 481.06 380.14 479.83 381.4 478.88 382.66 477.81 383.69 477.02 384.48 476.41 385.01 475.48 385.18 475.19 385.21 473.97 385.33 472.6 385.67 471.23 386.19 470.44 386.7 469.25 387.97 468.7 388.92 468.25 389.66 467.79 390.26 466.96 391.09 466.36 391.3 465.68 391.64 464.83 391.89 463.8 392.32 462.76 393.03 461.89 393.69 460.6 395.16 459.11 396.06 457.09 397.23 454.85 398.64 452.77 399.77 451.17 400.83 448.99 402.53 447.24 403.86 446.75 404.83 446.7 405.81 446.59 407.07 445.98 407.43 445.3 407.72 444.61 408.1 443.96 408.7 443.36 409.37 442.6 410.34 441.76 410.62 440.48 410.63 439.22 410.73 437.75 411.11 436.62 411.63 435.94 412.18 435.58 412.62 435.37 413.23 435.02 413.99 434.53 414.48 433.97 414.8 433.27 415.04 432.54 415.72 432.07 416.35 431.91 417.09 431.2 417.81 430.17 418.03 429.49 418.14 428.4 417.89 427.26 417.49 426.41 417.93 425.12 418.61 423.61 419.49 421.24 420.62 420.22 421.14 419.79 421.64 419.69 422.42 419.46 423.32 418.94 424.28 418.19 425.08 417.02 426.25 415.57 427.8 413.73 429.64 412.46 431.19 411.84 432.03 411 432.76 410.05 433.02 409.01 433.35 407.75 434.07 406.25 435.09 405.22 435.79 404.53 436.77 404.08 437.75 403.81 438.75 403.31 440.18 402.41 441.89 401.41 443.64 400.46 445.15 399.49 446.39 398.31 447.52 397.19 448.54 396.17 449.42 395.16 450.21 393.92 451.09 392.96 451.73 391.98 452.39 391.23 453.23 390.63 454.19 389.94 455.18 389.4 455.71 388.47 456.17 387.22 456.76 386.07 457.15 385.49 457.6 384.78 458.32 383.78 459.28 382.83 460.4 381.99 461.28 380.91 462.27 379.17 463.64 376.58 465.47 374.53 467.31 371.86 469.68 371.18 470.54 371.14 471.16 371.39 471.63 372.25 472.74 372.58 473.51 372.19 474.31 371.76 474.63 371.21 475.02 370.45 475.77 370.1 476.21 369.94 476.89 369.78 478.01 369.37 479.22 368.65 479.56 367.83 479.85 367.04 480.4 366.5 481 365.73 482.01 364.73 483.51 363.28 485.55 361.78 487.5 359.89 490.11 358.4 492.33 357.16 494.59 356.79 495.1 356.73 495.92 356.81 497.09 357.21 498.16 357.02 498.9 355.88 499.68 355.39 500.23 355.26 501.04 355.27 502.07 355.67 503.4 356.01 504.98 355.24 505.87 354.46 506.83 353.28 507.79 352.58 508.47 351.23 509.59 351.12 509.68 351.31 510.16 352.2 511.99 352.38 513.14 352.05 514.21 351.73 514.92 351.21 515.52 350.14 516.09 348.87 516.58 347.82 517 346.88 517.08 346.09 516.94 344.94 516.32 343.96 515.81 343.03 515.69 342.17 515.88 341.39 516.32 340.56 517.43 339.88 518.49 339.51 519.68 339.13 521.02 338.91 522.33 338.76 523.28 338.44 524.46 337.67 525.81 337.07 528.55 336.63 531.31 336.48 533 336.34 534.13 336.59 536.26 337.33 539.83 337.84 543.55 338.58 547.46 339.17 551.65 339.53 556.36 339.8 560.06 341.22 569.78 341.75 575.91 342.41 579.34 343.51 584.93 342.57 584.06 338.78 580.63 336.34 578.43 334.4 576.79 333.52 576.09 331.99 574.85 330.88 574.04 329.21 572.58 321.13 565.28 322.51 564.32 321.6 564.3 319.06 564.33 317.8 564.36 315.78 564.39 314.11 564.37 313.57 564.35 312.09 564.22 310.34 564.1 308.76 564.04 307.01 563.97 305.2 563.93 303.49 563.94 301.57 564.02 300.65 564.12 299.09 564.24 297.59 564.33 295.72 564.44 294.03 564.54 292.09 564.7 289.85 564.96 288.97 565.07 288.35 565.15 286.85 565.34 286.3 565.47 285.08 565.73 283.75 566.08 283.68 565.9 283.32 564.96 283.23 564.77 282.96 564.66 282.45 564.61 281.69 564.58 281.5 564.56 280.69 564.4 280.5 564.29 280.09 564.06 279.94 563.72 279.9 563.17 279.82 562.73 278.9 561.28 278.35 560.92 277.82 558.4 277.81 558.35 277.16 558.73 275.73 559.46 274.78 559.98 273.48 560.71 272.52 561.07 272.02 561.26 270.94 561.91 269.69 562.66 268.6 563.47 264.91 560.15 262.41 557.79 261.85 558.23 259.79 555.94 259.09 555.29 257.52 553.91 256.47 552.99 255.62 552.22 255.2 551.8 254.99 551.56 254.89 551.42 255.21 551.42 256.06 551.47 257.02 551.51 257.91 551.53 258.71 551.29 260.96 550.6 262.36 550.08 262.44 550.04 263.47 550.94 265.89 553.17 266.91 552.72 269.01 552.07 272 551.06 273.66 550.57 275.49 550.12 277.27 550.15 280.05 550.19 281.85 550.14 282.76 550.17 284.29 550.37 285.95 550.62 288.19 550.99 289.24 551.01 290.46 550.95 293.58 550.53 294.8 550.39 296.28 550.03 298.29 549.29 299.71 548.68 300.95 548.03 301.34 547.77 301.79 547.4 302.28 546.87 302.48 546.67 302.94 546.28 303.49 545.81 304.22 545.25 305.94 543.55 307.02 542.25 307.6 541.54 309.25 540.03 310.78 538.67 311.19 538.26 312.18 537.16 313.55 535.68 314.04 535.15 315.38 533.89 315.9 533.34 316.26 532.92 316.48 532.65 316.74 532.26 317.52 531 317.97 530.23 318.16 529.81 318.32 529.4 318.51 528.92 319.02 527.68 319.64 526.59 320.21 525.85 320.27 525.76 320.34 525.66 320.4 525.57 320.45 525.47 320.5 525.37 320.55 525.27 320.59 525.17 320.63 525.07 320.67 524.96 320.7 524.86 320.72 524.75 320.75 524.65 321.03 523.23 321.36 522.06 321.6 521.21 322.16 519.43 322.63 518.25 322.95 517.63 323.29 517.08 323.54 516.62 323.65 516.38 324 515.66 325.23 513.08 326.13 511.19 326.84 509.76 327.2 509.02 327.42 508.63 327.51 508.48 327.92 507.8 328.37 506.86 328.71 505.86 328.91 505.37 329.26 504.8 329.95 503.23 330.34 501.46 330.36 501.4 330.38 501.33 330.4 501.26 330.42 501.2 330.45 501.13 330.48 501.06 330.51 501 330.54 500.94 330.58 500.88 330.62 500.82 330.66 500.76 330.71 500.7 330.75 500.64 330.8 500.59 330.85 500.53 330.9 500.48 330.96 500.43 331.02 500.38 331.07 500.33 331.13 500.28 331.2 500.24 334.03 498.29 334.17 498.18 334.31 498.08 334.45 497.97 334.58 497.85 334.71 497.73 334.84 497.61 334.96 497.49 335.07 497.36 336.74 495.46 336.85 495.32 336.97 495.17 337.07 495.03 337.17 494.88 337.27 494.73 337.36 494.57 337.44 494.42 337.52 494.26 337.59 494.09 338.01 492.93 338.3 491.73 338.49 490.93 338.52 490.79 338.56 490.66 338.61 490.52 338.66 490.39 338.72 490.26 338.78 490.13 338.84 490 338.91 489.88 338.99 489.76 339.07 489.64 339.16 489.52 339.25 489.4 339.34 489.29 339.44 489.18 339.55 489.07 341.32 487.3 343.82 484.54 345.87 481.55 351.81 472.6 352.23 472.05 354.84 469.07 351.22 466.91 349.84 465.83 347.03 463.38 344.55 461.22 345.52 460.17 346.31 459.15 346.66 458.67 347.41 457.58 348.66 455.48 349.82 453.7 350.54 452.34 350.74 451.37 350.69 450.55 350.1 450.34 349.07 449.69 347.77 448.55 347.25 447.98 346.79 447.69 346.47 447.58 345.52 447.27 344.81 447.01 344.29 446.64 343.86 446.3 342.89 445.72 341.93 445.39 341.36 445.24 339.31 444.67 338.33 444.45 337.33 444.52 336.7 444.74 336.34 445.27 335.83 446.8 335.03 447.1 333.9 447.03 333.66 447.04 333.46 447.17 333.3 447.5 333.29 447.52 333.28 447.54 333.27 447.55 333.26 447.57 333.25 447.59 333.24 447.6 333.23 447.62 333.21 447.63 333.2 447.65 333.19 447.66 333.17 447.67 333.16 447.69 333.14 447.7 333.12 447.71 333.11 447.72 333.09 447.74 333.07 447.75 333.05 447.76 333.03 447.77 333.02 447.78 333 447.79 332.98 447.79 332.96 447.8 332.94 447.81 332.91 447.81 332.89 447.82 332.87 447.83 332.85 447.83 332.83 447.83 332.81 447.84 332.79 447.84 332.77 447.84 332.74 447.84 332.72 447.84 332.7 447.84 332.68 447.84 332.66 447.84 332.63 447.84 332.61 447.84 332.59 447.83 332.57 447.83 332.55 447.82 330.61 447.37 330.32 447.25 329.58 446.94 329.1 446.78 328.27 446.54 328.03 446.66 327.69 447.28 327.39 447.5 327.25 447.59 327.13 447.78 327.05 447.89 326.77 448.05 326.61 448.11 325.23 448.33 324.17 448.27 323.26 448.02 322.99 447.95 322.87 447.94 322.71 448.04 322.65 448.12 322.6 448.19 322.47 448.29 322.35 448.35 322.2 448.41 322.06 448.42 321.9 448.43 321.62 448.41 320.86 448.27 320.46 448.25 319.82 448.39 319.53 448.56 319.34 448.66 318.96 448.82 319.12 448.37 319.66 448.03 319.87 447.97 320.1 447.89 320.92 447.93 322.21 448.15 322.57 447.47 324.28 447.94 325.17 447.99 326.6 447.76 326.68 447.74 326.72 447.7 326.8 447.57 326.98 447.29 327.08 447.24 327.25 447.28 327.7 446.53 327.9 446.15 328.52 446.22 329.24 446.46 329.73 446.62 330.78 447.06 331.89 447.32 332.92 447.55 332.94 447.36 333.03 447.16 333.23 446.74 333.54 446.77 333.93 446.69 334.52 446.72 335.03 446.75 335.61 446.51 335.72 445.89 335.78 445.52 335.82 445.41 335.97 445.14 336.26 444.71 336.47 444.4 337.1 444.23 337.25 444.06 338.36 444.11 339.12 444.19 340.38 444.54 341.51 444.86 342.07 445 343.07 445.35 343.56 445.52 344.17 445.99 345.1 446.69 345.28 446.81 345.84 446.86 347.28 447.41 347.77 447.8 348.11 448.27 349.04 449.1 349.91 449.86 350.14 449.99 350.73 450.15 351.82 450.28 352.89 450.51 354.66 451.34 356.4 454.73 356.61 455.1 359.47 454.09 361.37 453.28 362.14 452.97 365.77 451.67 367.1 451.11 367.64 450.83 369.92 449.57 372.16 448.34 375.79 446.15 376.12 445.96 376.43 445.75 376.73 445.54 377.03 445.31 377.32 445.08 377.6 444.84 377.89 444.58 379.4 443.19 380.04 442.63 380.55 442.25 384.87 439.42 385.86 438.61 388.43 435.95 389.02 435.22 390.39 433.26 390.86 432.68 391.02 432.43 392.86 431.97 392.8 430.86 392.7 430.18 392.45 428.84 394.1 429.2 396.2 429.66 397.82 429.93 400.08 430.37 401.61 430.82 403.72 431.59 403.9 431.67 406.06 429.93 407.3 430.35 409.31 431.46 411.01 428.31 409.38 427.63 411.12 426.13 413.65 424.7 415.45 420.34 415.1 417.41 417.26 417.24 419.6 416.97 419.76 414.86 421.15 414.85 422.95 415.38 423.32 413.92 421.93 413.5 421.57 412.04 421.76 412.02 424.02 413.43 426.96 411.03 429.32 410 429.93 409.91 431.62 407.9 438.36 400.62 436.89 399.57 435.18 398.44 430.95 395.6 431.42 395.16 431.9 394.64 432.01 394.51 432.3 394.08 433.81 391.63 434.37 390.93 434.87 390.31 435.33 389.65 436.13 388.06 436.56 387.34 438.43 384.77 441.44 380.71 441.56 380.57 441.67 380.43 441.78 380.28 441.88 380.13 441.97 379.98 442.06 379.82 442.14 379.66 442.22 379.5 442.29 379.34 442.35 379.17 442.41 379 442.46 378.83 442.5 378.66 442.54 378.49 442.61 378.12 442.71 377.82 442.83 377.53 442.95 377.24 443.08 376.95 443.23 376.66 443.38 376.38 443.55 376.1 446.92 371.79 447.03 371.65 447.13 371.51 447.22 371.37 447.31 371.22 447.39 371.07 447.47 370.92 447.54 370.77 447.6 370.61 447.66 370.45 447.71 370.29 447.76 370.13 449.19 364.87 451.42 358.69 449.66 356.94 451.05 352.34 450.16 350.72 449.27 349.38 445.67 344.8 444.66 343.68 442.8 341.86 440.89 340.07 440.54 339.74 438.38 337.99 432.15 332.98 431.35 333.61 430.96 333.92 429.67 334.92 427.66 336.5 427.03 336.97 422.83 339.84 417.27 343.36 416.34 343.96 415.56 344.55 412.76 346.89 411.99 347.53 409.06 349.99 407 351.85 403.62 355.17 402.59 356.07 401.71 356.75 400.47 357.7 397.08 360.33 394.26 362.57 390.4 365.54 389.36 366.33 385.19 369.54 384.74 369.9 384.13 370.46 378.37 376.15 377.68 376.83 370.18 384.22 366.8 387.55 366.1 388.24 362.05 392.2 360.91 393.32 356.72 397.47 356.06 398.18 353.18 401.61 349.63 405.84 349.05 406.47 348.49 407.04 346.54 409.02 343.94 411.66 343.07 412.54 342.46 413.15 336.69 418.4 336.62 418.35 336.02 417.91 335.69 417.71 341.18 412.73 341.49 412.45 341.76 412.17 343.68 410.23 344.42 409.48 348.05 405.8 348.62 405.17 350.02 403.5 351.2 402.1 352.75 400.26 354.42 398.26 355.06 397.51 355.72 396.79 359.12 393.42 359.81 392.74 364.26 388.39 370.5 382.24 371.26 381.49 377.36 375.48 383.3 369.62 383.65 369.26 389.74 364.58 393.78 361.47 397.04 358.88 397.87 358.23 400.16 356.47 401.68 355.3 402.71 354.4 403.18 353.95 406.06 351.12 408.86 348.6 409.86 347.77 412.24 345.79 414.73 343.72 415.97 342.82 416.52 342.47 420.24 340.12 422.06 338.97 423.24 338.16 425.84 336.39 428.23 334.56 433.6 330.35 434.44 329.69 437.21 327.5 439.82 325.35 441.59 324.34 444.3 322.59 446.61 319.96 445.21 318.62 441.72 316.69 441.48 316.63 440.32 316.07 435.79 314.98 434.79 314.62 433.62 314.61 432.83 314.62 432.03 314.6 430.91 314.56 428.76 314.24 426.32 313.83 423.15 313.99 420.36 314.14 415.78 311.37 411.94 306.84 412.17 305.5 412.1 305.23 411.67 305.3 411.62 305.12 412.37 304.84 412.53 304.6 412.08 303.25 411.03 299.39 410.64 298.78 410.03 298.31 408.88 297.74 407.98 298.03 404.43 296.93 400.71 297.17 397.75 297.83 396.73 297.62 395.48 297.35 394.81 297.38 393.01 297.47 391.24 297.55 389.61 297.37 384.26 296.94 384.04 297 377.79 298.5 376.19 299.37 368.74 303.42 367.42 304.11 366.17 304.78 365.74 304.84 365.28 304.9 363.44 305.66 362.26 305.71 360.44 305.77 358.53 306.61 358.09 306.8 355.83 307.15 353.59 307.48 352.7 307.13 352.27 306.96 352.7 306.6 354.36 304.98 356.78 302.51 359.47 299.74 361.76 297.81 362.82 296.52 363.23 296.03 363.97 295.11 365.69 293.07 367.77 291.02 370.61 288.13 373.72 284.82 376.42 282.3 380.93 277.61 383.29 275.33 384.39 273.88 385.77 272.08 388.95 269.07 391.51 266.19 393.59 264.02 395.32 262.46 398.91 258.85 401.47 255.84 404.65 252.77 407.28 249.95 410.19 247.06 414.48 242.61 417.68 239.07 420.1 236.6 423.36 233.41 426.2 230.76 427.37 229.62 429.73 227.69 432.64 225.34 435.41 222.52 437.07 220.77 438.87 219.09 440.81 216.68 442.4 215 443.74 213.76 444.17 214.11 449.31 218.26 451.88 220.12 452.85 220.75 455.67 222.52 464 235.53 464.83 236.34 465.63 237.49 468.24 240.47 468.94 241.04 462.55 251.92 467.25 255.32 462.24 261.67 461.67 262.24 462.01 262.59 463.77 263.65 468.69 266.61 474.15 268.54 476.75 267.49 480.2 270.27 484.34 274.13 492.12 275.77 496.09 273.03 496.51 272.78 497.87 271.62 498.24 272.15 498.61 271.87 499.11 271.88 500.36 272.37 501.58 273.23 502.27 273.53 504.48 274.18 506.61 271.85 506.29 271.54 507.27 270.7 507.44 270.54 510.26 268.35 510.97 267.71 512.31 268.71 512.18 269.39 512.52 269.09 512.62 269.69 512.67 269.95 512.32 270.4 512.04 270.52 511.51 271.03 515.01 273.17 519.94 276.19 521.29 274.69 523.28 275.76 519.8 280.37 525.46 284.86 531.11 289.25 539.06 295.69 542.35 298.52 547.36 302.87 547.71 303.17 548.03 302.98 548.1 302.95 548.16 302.91 548.22 302.86 548.28 302.82 548.34 302.78 548.39 302.73 548.45 302.68 548.5 302.63 548.55 302.58 548.59 302.52 548.64 302.47 548.68 302.41 548.72 302.36 548.76 302.3 548.8 302.24 548.83 302.18 548.86 302.12 548.89 302.05 548.91 301.99 548.94 301.93 548.96 301.86 548.98 301.8 548.99 301.73 549 301.66 549.01 301.6 549.02 301.53 549.03 301.46 549.5 298.33 549.87 297.05 549.96 296.82 564.18 306.86 Z M 457 349.91 463.92 359.37 474.5 352.39 482.38 358.47 482.39 358.48 482.4 358.48 482.4 358.49 482.41 358.49 482.42 358.49 482.43 358.5 482.44 358.5 482.45 358.5 482.45 358.51 482.46 358.51 482.47 358.51 482.48 358.51 482.49 358.51 482.5 358.51 482.51 358.51 482.52 358.51 482.53 358.51 482.54 358.51 482.55 358.51 482.56 358.51 482.57 358.51 482.58 358.5 482.59 358.5 482.6 358.5 482.61 358.49 482.62 358.49 482.62 358.48 482.63 358.48 482.64 358.47 482.65 358.47 482.65 358.46 482.66 358.46 482.66 358.45 489.4 351.44 503.55 336.1 509.35 329.92 512.53 326.4 518.38 319.9 523.63 314.08 523.11 313.73 521.73 312.95 520.04 312.4 506.58 302.47 504.36 300.76 504.35 300.75 504.34 300.74 504.33 300.73 504.32 300.72 504.32 300.71 504.31 300.7 504.31 300.69 504.3 300.69 504.3 300.68 504.3 300.67 504.3 300.66 504.29 300.65 504.29 300.64 504.29 300.63 504.29 300.62 504.29 300.61 504.3 300.61 504.3 300.6 504.35 300.4 505.01 297.57 505.4 295.88 505.49 295.18 505.48 294.62 505.44 294.22 505.77 292.05 506.42 290.51 504.78 291.03 496.02 293.78 486.53 296.63 478.5 299.07 478.39 299.1 478.29 299.13 478.18 299.15 478.08 299.17 477.97 299.19 477.86 299.2 477.76 299.21 477.65 299.22 477.54 299.23 477.43 299.23 477.32 299.23 477.21 299.22 477.1 299.21 477 299.2 476.89 299.19 476.78 299.17 476.68 299.15 476.57 299.13 476.47 299.1 476.36 299.07 476.26 299.04 476.16 299 476.06 298.96 475.96 298.92 475.87 298.88 475.77 298.83 475.68 298.78 475.59 298.73 475.5 298.68 475.42 298.62 475.33 298.56 475.25 298.5 475.01 298.3 474.98 298.28 474.96 298.26 474.93 298.25 474.91 298.23 474.88 298.21 474.85 298.2 474.82 298.19 474.79 298.17 474.76 298.16 474.73 298.15 474.7 298.14 474.67 298.13 474.64 298.12 474.61 298.11 474.58 298.1 474.55 298.1 474.51 298.09 474.48 298.09 474.45 298.09 474.41 298.08 474.38 298.08 474.35 298.08 474.32 298.08 474.28 298.08 474.25 298.09 474.22 298.09 474.19 298.09 474.15 298.1 474.12 298.11 474.09 298.11 474.06 298.12 474.03 298.13 474 298.14 473.96 298.15 473.94 298.16 473.91 298.18 473.88 298.19 473.85 298.21 473.82 298.22 473.79 298.24 473.77 298.25 473.74 298.27 473.72 298.29 473.69 298.31 473.67 298.33 473.65 298.35 473.47 298.52 472.49 299.43 469.99 301.28 468.05 302.63 463.31 306 460.01 308.59 455.69 312.41 452.24 315.91 451.52 316.65 448.51 319.65 448.87 320.6 451.14 321.9 453.27 322.27 454.91 323.19 456.48 323.03 455.69 326.43 455.98 326.66 455.72 327.34 454.37 326.47 453.04 329.8 451.51 333.67 450.47 335.48 449.59 339.03 451.75 340.37 451.81 341.58 451.68 342.37 451.39 343.46 452.22 344.77 453.99 345.53 454.98 346.85 455.12 348.12 456.13 349.32 457 349.91 Z M 442.81 274.22 439.08 276.82 435.09 279.52 430.37 282.72 425.67 285.63 420.62 288.69 419.27 289.41 417.1 287.45 416.71 287.71 413.14 289.3 411.05 290.22 411.01 293.68 412.66 294.75 413.62 296.13 414.38 297.66 414.57 298.7 414.64 300.02 413.91 303.88 415.73 305.66 417 307.56 417.63 308.62 419.04 311.1 422.24 311.93 428.84 312.3 431.07 312.76 434.22 313.04 439.44 314.37 439.74 314.31 440.5 314.41 441.34 314.63 442.15 314.82 443.91 315.6 445.72 316.86 446.77 318.39 447.63 318.85 451.97 314.49 454.7 311.71 459.12 307.81 461.99 305.52 467.24 301.78 469.17 300.44 471.6 298.65 473.1 297.25 473.12 297.22 473.14 297.2 473.16 297.18 473.18 297.16 473.2 297.13 473.22 297.11 473.23 297.08 473.25 297.06 473.26 297.03 473.28 297 473.29 296.98 473.3 296.95 473.31 296.92 473.32 296.9 473.33 296.87 473.33 296.84 473.34 296.81 473.34 296.78 473.35 296.75 473.35 296.73 473.35 296.7 473.35 296.67 473.35 296.64 473.34 296.61 473.34 296.58 473.34 296.55 473.33 296.53 473.32 296.5 473.31 296.47 473.3 296.44 473.29 296.41 473.28 296.39 473.27 296.36 473.26 296.34 473.24 296.31 473.22 296.28 473.21 296.26 473.19 296.24 473.17 296.21 473.15 296.19 473.13 296.17 471.02 294.27 470.42 293.73 468.55 292.08 465.2 289.18 461.49 285.98 461.09 285.62 459.96 284.6 458.27 283.09 454.8 279.99 453.26 278.46 450.59 276.11 447.5 273.32 446.42 272.5 445.76 272.07 442.81 274.22 Z M 426.42 276.79 419.12 271.51 413.21 277.34 404.43 285.51 407.16 287.37 410.37 288.65 410.84 288.31 411.92 287.65 415.14 288.41 417.12 286.2 426.42 276.79 Z" fill-rule="evenodd"/>
<path d="M 685.45 214.49 682.79 214.87 678.75 215.67 675.97 216.11 673.98 216.59 672.13 217.36 669.58 218.68 669.11 219.01 668.84 219.19 667.78 219.93 665.91 221.26 663.75 222.71 661.63 224.18 656.48 228.36 652.66 231.23 647.45 235.03 640.67 239.85 636.52 243.15 629.35 248.45 625.95 251.4 623.57 253.76 621.16 256.49 618.56 258.31 613.01 262.64 610.91 264.07 609.14 264.72 605.67 266.25 605.16 266.96 604.78 267.72 604.22 269.14 602.03 271.93 599.18 275.66 594.23 281.23 593.3 281.77 592.03 281.78 590.52 281.69 588.93 281.84 587.2 282.32 585.62 283.36 583.12 285.53 576.83 292.13 574.35 294.19 571.74 296.22 570.19 298.09 568.97 299.59 567.25 302.04 566.48 303.57 565.7 305.39 564.54 306.6 564.18 306.86 549.96 296.82 549.87 297.05 549.5 298.33 549.03 301.46 549.02 301.53 549.01 301.6 549 301.66 548.99 301.73 548.98 301.8 548.96 301.86 548.94 301.93 548.91 301.99 548.89 302.05 548.86 302.12 548.83 302.18 548.8 302.24 548.76 302.3 548.72 302.36 548.68 302.41 548.64 302.47 548.59 302.52 548.55 302.58 548.5 302.63 548.45 302.68 548.39 302.73 548.34 302.78 548.28 302.82 548.22 302.86 548.16 302.91 548.1 302.95 548.03 302.98 547.71 303.17 547.36 302.87 542.35 298.52 539.06 295.69 531.11 289.25 525.46 284.86 519.8 280.37 523.28 275.76 521.29 274.69 519.94 276.19 515.01 273.17 511.51 271.03 512.04 270.52 512.32 270.4 512.67 269.95 512.62 269.69 512.52 269.09 512.18 269.39 512.31 268.71 510.97 267.71 510.26 268.35 507.44 270.54 507.27 270.7 506.29 271.54 506.61 271.85 504.48 274.18 502.27 273.53 501.58 273.23 500.36 272.37 499.11 271.88 498.61 271.87 498.24 272.15 497.87 271.62 496.51 272.78 496.09 273.03 492.12 275.77 484.34 274.13 480.2 270.27 476.75 267.49 474.15 268.54 468.69 266.61 463.77 263.65 462.01 262.59 461.67 262.24 462.24 261.67 467.25 255.32 462.55 251.92 468.94 241.04 468.24 240.47 465.63 237.49 464.83 236.34 464 235.53 455.67 222.52 452.85 220.75 451.88 220.12 449.31 218.26 444.17 214.11 443.74 213.76 444.99 212.62 449.48 207.63 453.01 203.9 456.68 200.41 458.82 197.59 461.87 194.11 463.94 191.4 466.78 189.17 467.75 188.09 468.65 187.31 469.21 186.71 469.48 185.57 471.41 183.59 473.99 180.31 477.04 176.82 478.83 174.66 479.87 172.92 481.52 170.76 482.69 168.84 483.52 167.82 484.21 166.62 484.2 165.54 483.57 164.77 482.44 163.88 481.67 162.93 482.15 162.62 483.48 162.08 484.74 162.79 486.21 163.5 487.82 163.67 488.72 163.36 488.86 162.46 488.85 161.81 489.76 161.56 490.8 161.08 492.05 160.35 493.44 159.69 494.84 157.79 495.67 157.18 497.33 155.8 499.54 152.62 503.83 147.81 505.91 145.16 507.64 143.72 510.41 140.77 513.31 137.05 517.12 133.14 521.97 128.15 526.56 122.87 528.64 121.13 529.75 120.16 531.21 118.78 533.63 115.78 534.73 114.52 535.42 114.88 541.54 118.14 542.24 118.52 557.06 126.76 557.62 127.12 564.72 132.46 565.07 132.7 565.19 132.97 567.28 134.45 569.92 136.33 572.4 138.09 572.69 138.3 575.48 140.28 577.48 141.71 581.81 144.81 583.17 145.78 583.17 146.12 585.42 147.84 586.14 148.39 586.45 148.61 587.52 149.57 587.74 149.89 588.27 150.33 589.08 150.67 590.29 150.87 591.89 151.14 592.06 151.2 592.24 150.73 592.95 151.34 593.49 151.29 593.85 151.61 594.32 152.05 594.6 152.31 594.72 152.51 594.01 153.64 594.43 153.99 594.35 154.92 594.55 155.24 594.3 155.72 593.13 155.31 591.59 156.29 592.4 156.6 593.05 157.28 592.77 157.47 591.63 158.36 590.14 159.53 590.02 159.66 590.24 159.84 589.85 160.39 588.7 160 588.13 159.74 587.08 159.96 586.61 160.03 585.67 159.99 583.32 160.85 579.99 161.63 577.85 162.9 574.85 164.91 574.62 165.26 577.22 166.59 577.9 166.9 578.53 166.15 578.75 166.1 580.02 166.9 580.17 167.01 581.38 167.78 581.8 168.09 582.05 168.31 582.72 168.71 582.96 168.79 583.69 169.27 585.01 170.25 585.17 170.41 585.94 170.9 586.67 171.56 586.93 171.31 587.71 171.89 588.01 172.12 590.17 173.94 590.55 173.63 590.7 173.74 590.91 173.94 590.58 174.2 590.71 174.32 591.25 174.75 592.39 175.65 592.52 175.58 592.72 175.61 593.32 175.91 593.82 176.22 594.32 175.53 596.04 176.2 596.88 176.52 597.21 176.57 597.21 176.63 597.65 176.72 598.25 176.97 599.4 177.32 600.57 177.79 601.49 178.14 602.07 178.31 603.16 178.69 601.71 181.3 600.87 182.89 600.33 183.7 602.17 185.34 602.61 185.74 604.97 184.68 605.57 184.41 606.39 184.05 607.59 183.53 608.54 183.3 609.27 183.27 611 182.89 611.66 182.63 613.3 183.83 614.05 184.36 616.47 183.12 616.89 182.91 619.1 181.79 621.17 180.62 622.74 182.2 623.46 182.78 624.58 183.58 626.64 185 628 185.66 629.51 186.44 630.97 187.88 632.52 190.12 636.29 192.55 640.89 196.77 641.75 197.5 645.47 200.74 646.79 199.16 648.55 196.75 651 193.4 653.34 190.32 655.9 192.19 660.51 195.43 663.59 197.55 668.79 201.27 673.3 204.27 672.26 204.49 673.61 205.42 676.95 206.94 683.96 210.18 682.75 211.57 684.93 213.93 685.45 214.49 Z"/>
<path d="M 686.26 149.91 687.48 150.66 686.52 151.42 685.55 152.16 684.98 152.6 683.56 153.68 682.62 154.58 682.07 155.1 681.11 156.01 680.41 156.66 687.3 161.24 687.89 161.57 689.24 162.22 689.91 162.61 690.94 163.32 691.17 163.47 692.32 164.17 692.47 164.27 693.78 165.03 694.01 165.16 695.61 165.99 697.32 167.02 698.04 167.44 698.72 167.86 700.18 168.73 700.4 168.84 704.79 170.91 705.59 171.31 705.89 171.47 706.17 171.64 707.22 172.35 707.53 172.58 707.73 172.75 708.87 173.77 709.37 174.29 710.3 175.47 710.81 176.24 711.07 176.7 711.72 178.07 712.38 179.04 713.7 180.5 715.23 182.25 718.08 185.64 719.03 186.76 719.47 187.37 719.76 187.88 720.41 189.02 719.78 189.47 719.26 189.84 719.14 189.93 718.67 190.27 717.6 191.05 717.22 191.33 716.99 191.52 717.19 191.64 723.82 194.81 731.08 195.72 731.54 195.77 729.29 196.61 725.75 198.54 723.58 199.63 718.76 201.4 716.06 202.36 715.03 202.9 713.03 203.92 711.37 205 708.95 206.62 706.94 208.18 704.92 209.75 703.3 210.85 701.53 211.65 699.82 212.21 696.53 212.77 692.48 213.51 688.36 214.07 685.45 214.49 684.93 213.93 682.75 211.57 683.96 210.18 676.95 206.94 673.61 205.42 672.26 204.49 673.3 204.27 668.79 201.27 663.59 197.55 660.51 195.43 655.9 192.19 653.34 190.32 651 193.4 648.55 196.75 646.79 199.16 645.47 200.74 641.75 197.5 640.89 196.77 636.29 192.55 632.52 190.12 630.97 187.88 629.51 186.44 628 185.66 626.64 185 624.58 183.58 623.46 182.78 622.74 182.2 621.17 180.62 619.1 181.79 616.89 182.91 616.47 183.12 614.05 184.36 613.3 183.83 611.66 182.63 611 182.89 609.27 183.27 608.54 183.3 607.59 183.53 606.39 184.05 605.57 184.41 604.97 184.68 602.61 185.74 602.17 185.34 600.33 183.7 600.87 182.89 601.71 181.3 603.16 178.69 602.07 178.31 601.49 178.14 600.57 177.79 599.4 177.32 598.25 176.97 597.65 176.72 597.21 176.63 597.21 176.57 596.88 176.52 596.04 176.2 594.32 175.53 593.82 176.22 593.32 175.91 592.72 175.61 592.52 175.58 592.39 175.65 591.25 174.75 590.71 174.32 590.58 174.2 590.91 173.94 590.7 173.74 590.55 173.63 590.17 173.94 588.01 172.12 587.71 171.89 586.93 171.31 586.67 171.56 585.94 170.9 585.17 170.41 585.01 170.25 583.69 169.27 582.96 168.79 582.72 168.71 582.05 168.31 581.8 168.09 581.38 167.78 580.17 167.01 580.02 166.9 578.75 166.1 578.53 166.15 577.9 166.9 577.22 166.59 574.62 165.26 574.85 164.91 577.85 162.9 579.99 161.63 583.32 160.85 585.67 159.99 586.61 160.03 587.08 159.96 588.13 159.74 588.7 160 589.85 160.39 590.24 159.84 590.02 159.66 590.14 159.53 591.63 158.36 592.77 157.47 593.05 157.28 592.4 156.6 591.59 156.29 593.13 155.31 594.3 155.72 594.55 155.24 594.35 154.92 594.43 153.99 594.01 153.64 594.72 152.51 594.6 152.31 594.32 152.05 593.85 151.61 593.49 151.29 592.95 151.34 592.24 150.73 592.06 151.2 591.89 151.14 590.29 150.87 589.08 150.67 588.27 150.33 587.74 149.89 587.52 149.57 586.45 148.61 586.14 148.39 585.42 147.84 583.17 146.12 583.17 145.78 581.81 144.81 577.48 141.71 575.48 140.28 572.69 138.3 572.4 138.09 569.92 136.33 567.28 134.45 565.19 132.97 565.07 132.7 564.72 132.46 557.62 127.12 557.06 126.76 542.24 118.52 541.54 118.14 535.42 114.88 534.73 114.52 536.05 113.01 536.08 112.96 536.87 111.78 537.43 110.97 538.88 109.41 540.48 107.67 542.07 106.04 543.87 104.36 545.25 102.32 546.29 100.82 547.39 99.49 549.2 97.75 550.92 95.53 554.16 91.5 554.84 92 563.05 98.03 567.58 101.33 572.33 104.83 578.27 109.25 580.24 110.67 584.68 114.09 586.71 115.79 590.6 119.9 593.72 117.17 596.3 115.86 596.98 115.52 598.64 114.26 602.84 117.69 603.55 116.64 603.77 117.01 606.41 116.74 609.4 116.44 612.3 115.19 615.69 118.49 617.44 117.64 618.87 118.99 619.66 119.24 620.21 118.63 621.11 119.07 621.62 118.99 622.36 118.51 623.5 118.42 624.24 117.77 624.88 117.62 625.45 117.31 627.27 117.29 629.49 118.99 629.66 118.72 632.52 120.22 633.4 120.91 634.62 121.91 633.31 124.28 632.26 126.19 630.66 129.31 633.27 130.91 634.13 131.73 634.57 132.41 634.95 133.41 635.49 133.96 639.53 136.94 641.89 138.57 642.14 138.76 642.74 139.71 645.82 136.94 649.06 134.02 654.32 139.1 658.16 136.05 658.93 135.43 662.12 134.51 666.74 138.94 667.53 139.89 669.29 142.63 669.83 143.79 670.02 144.78 670.09 145.11 670.17 145.44 670.27 145.76 670.37 146.08 670.49 146.4 670.62 146.71 672.59 150.16 672.69 150.32 672.79 150.47 672.9 150.63 673.02 150.78 673.14 150.93 673.26 151.07 673.4 151.21 673.54 151.35 673.68 151.48 674.73 152.41 676.94 154.15 677.89 154.84 686.26 149.91 Z"/>
<path d="M 734.13 194.81 734.54 194.43 735.99 193.09 738.12 191.02 741.22 187.89 742.45 186.68 743.2 185.9 740.73 184.74 738.38 183.76 742.85 176.22 742.91 176.12 746.46 170.03 765.07 158.16 774.31 145.11 775.38 145.54 777.04 146.19 777.15 145.95 779.08 142.16 779.95 138.61 780.66 136.22 780.68 136.04 780.79 134.47 782.39 128.76 782.47 128.55 782.33 125.71 782.39 125.26 783.43 120.58 782.03 120.03 782.07 119.96 775.31 117.33 772.91 116.67 771.18 115.7 770.68 115.31 769.87 114.88 768.15 113.88 767.77 114.06 765.42 113.74 765.09 114.76 763.71 115.08 762.25 113.8 757.77 112.02 748.78 108.44 739.87 104.89 739.48 107.07 737.16 105.55 734.52 103.92 733.09 102.98 732.16 102.41 738.17 95.69 738.53 95.28 741.13 92.31 747.37 86.06 748.44 86.74 750.7 88.76 754.41 91.66 760.79 95.81 762.36 97.02 763.52 98.3 764.51 99.97 765.18 100.76 766.49 101.58 769.16 103.54 771.19 104.84 772.34 105.58 773.13 106.66 774.15 107.47 775.69 108.59 779.16 110.76 783.36 113.19 787.3 115.33 789.91 117.36 791.45 118.42 796.44 121.75 798.08 123.02 798.77 124.72 799 126.5 798.65 127.92 797.83 130.26 797.01 133.13 796.4 135.51 796.21 137.1 796.15 138.74 795.52 140.57 794.26 142.89 792.57 144.65 790.41 146.82 789.45 147.62 786.8 149.19 784.24 151.04 781.26 153.39 779.78 154.61 779.39 155.57 778.99 157.69 779 158.72 778.5 160.22 777.49 161.35 775.59 162.75 773.36 164.26 770.68 166.05 769.47 167.5 768.59 169.5 768.27 171.17 768.82 172.85 769.47 174.48 769.48 175.73 768.52 176.63 767.62 177.54 766.55 178.52 765.31 179.21 763.88 179.53 761.93 179.88 761.16 179.88 759.79 180.11 759.02 180.78 756.05 184.07 753.35 186.95 751.8 188.85 750.75 189.37 749.53 189.56 747.82 189.98 744.28 191.31 740.17 192.77 734.74 194.59 734.13 194.81 Z"/>
<path d="M 747.37 86.06 741.13 92.31 738.53 95.28 738.17 95.69 732.16 102.41 733.09 102.98 734.52 103.92 737.16 105.55 739.48 107.07 739.87 104.89 748.78 108.44 757.77 112.02 762.25 113.8 763.71 115.08 765.09 114.76 765.42 113.74 767.77 114.06 768.15 113.88 769.87 114.88 770.68 115.31 771.18 115.7 772.91 116.67 775.31 117.33 782.07 119.96 782.03 120.03 783.43 120.58 782.39 125.26 782.33 125.71 782.47 128.55 782.39 128.76 780.79 134.47 780.68 136.04 780.66 136.22 779.95 138.61 779.08 142.16 777.15 145.95 777.04 146.19 775.38 145.54 774.31 145.11 765.07 158.16 746.46 170.03 742.91 176.12 742.85 176.22 738.38 183.76 740.73 184.74 743.2 185.9 742.45 186.68 741.22 187.89 738.12 191.02 735.99 193.09 734.54 194.43 734.13 194.81 731.54 195.77 731.08 195.72 723.82 194.81 717.19 191.64 716.99 191.52 717.22 191.33 717.6 191.05 718.67 190.27 719.14 189.93 719.26 189.84 719.78 189.47 720.41 189.02 719.76 187.88 719.47 187.37 719.03 186.76 718.08 185.64 715.23 182.25 713.7 180.5 712.38 179.04 711.72 178.07 711.07 176.7 710.81 176.24 710.3 175.47 709.37 174.29 708.87 173.77 707.73 172.75 707.53 172.58 707.22 172.35 706.17 171.64 705.89 171.47 705.59 171.31 704.79 170.91 700.4 168.84 700.18 168.73 698.72 167.86 698.04 167.44 697.32 167.02 695.61 165.99 694.01 165.16 693.78 165.03 692.47 164.27 692.32 164.17 691.17 163.47 690.94 163.32 689.91 162.61 689.24 162.22 687.89 161.57 687.3 161.24 680.41 156.66 681.11 156.01 682.07 155.1 682.62 154.58 683.56 153.68 684.98 152.6 685.55 152.16 686.52 151.42 687.48 150.66 686.26 149.91 686.43 149.81 687.77 148.98 688.02 148.8 688.26 148.62 688.5 148.44 688.73 148.24 688.95 148.04 689.16 147.84 689.37 147.63 689.57 147.41 689.76 147.18 689.94 146.96 690.11 146.72 690.54 146.11 690.72 145.84 691.05 145.29 691.26 144.91 691.37 144.65 692.87 140.88 693.57 138.98 694.08 137.48 695.08 134.81 695.14 134.64 695.75 132.98 696.38 131.36 696.58 130.79 696.92 130 697.48 128.97 695.5 128.03 693.87 127.25 686.04 123.37 686.61 122.17 687.51 120.88 688.35 117.11 683 116.25 681.91 116.15 682 116.05 682.29 115.72 682.82 115.01 684.02 113.19 684.37 112.67 684.53 112.43 684.71 112.2 684.89 111.97 685.08 111.75 685.28 111.53 685.49 111.32 685.71 111.11 685.93 110.91 686.16 110.72 686.4 110.54 686.65 110.36 686.9 110.19 687.16 110.02 687.43 109.87 687.7 109.72 687.98 109.58 688.26 109.44 688.55 109.32 688.84 109.2 689.14 109.1 689.44 109 691.07 108.62 692.52 108.41 693.84 108.21 699.02 107.45 701.38 107.13 703.04 106.91 703.94 106.83 705.18 106.89 706.61 107.11 708.89 107.72 709 107.53 710.18 107.95 712.82 103.36 713.13 102.83 713.58 102.04 713.84 101.61 714.12 101.19 714.41 100.77 714.72 100.36 715.05 99.97 715.39 99.58 715.75 99.2 716.13 98.84 716.52 98.49 716.92 98.14 717.34 97.81 717.77 97.5 718.21 97.19 728.38 91.7 729.69 90.99 732.61 89.39 735.21 88.34 744.54 84.42 744.68 84.49 746.81 85.71 747.37 86.06 Z"/>
<path d="M 674.48 93.42 675.69 90.87 676.8 88.49 674.18 87.5 677.24 82.54 676.24 82.08 678.78 78.03 675.81 76.62 673.13 75.31 677.31 69.11 681.05 70.74 684.75 72.35 688.5 73.88 692.15 75.37 689.69 78.94 687.44 82.15 687.69 82.25 694.44 85.5 691.89 89.28 695.06 90.79 693.31 94.73 692.63 94.48 690.93 99.54 688.19 98.52 685.42 97.5 679.36 95.25 679.12 95.17 674.48 93.42 Z"/>
<path d="M 682 116.05 681.91 116.15 683 116.25 688.35 117.11 687.51 120.88 686.61 122.17 686.04 123.37 693.87 127.25 695.5 128.03 697.48 128.97 696.92 130 696.58 130.79 696.38 131.36 695.75 132.98 695.14 134.64 695.08 134.81 694.08 137.48 693.57 138.98 692.87 140.88 691.37 144.65 691.26 144.91 691.05 145.29 690.72 145.84 690.54 146.11 690.11 146.72 689.94 146.96 689.76 147.18 689.57 147.41 689.37 147.63 689.16 147.84 688.95 148.04 688.73 148.24 688.5 148.44 688.26 148.62 688.02 148.8 687.77 148.98 686.43 149.81 686.26 149.91 677.89 154.84 676.94 154.15 674.73 152.41 673.68 151.48 673.54 151.35 673.4 151.21 673.26 151.07 673.14 150.93 673.02 150.78 672.9 150.63 672.79 150.47 672.69 150.32 672.59 150.16 670.62 146.71 670.49 146.4 670.37 146.08 670.27 145.76 670.17 145.44 670.09 145.11 670.02 144.78 669.83 143.79 669.29 142.63 667.53 139.89 666.74 138.94 662.12 134.51 658.93 135.43 658.16 136.05 654.32 139.1 649.06 134.02 645.82 136.94 642.74 139.71 642.14 138.76 641.89 138.57 639.53 136.94 635.49 133.96 634.95 133.41 634.57 132.41 634.13 131.73 633.27 130.91 630.66 129.31 632.26 126.19 633.31 124.28 634.62 121.91 633.4 120.91 632.52 120.22 629.66 118.72 629.49 118.99 627.27 117.29 625.45 117.31 624.88 117.62 624.24 117.77 623.5 118.42 622.36 118.51 621.62 118.99 621.11 119.07 620.21 118.63 619.66 119.24 618.87 118.99 617.44 117.64 615.69 118.49 612.3 115.19 609.4 116.44 606.41 116.74 603.77 117.01 603.55 116.64 602.84 117.69 598.64 114.26 596.98 115.52 596.3 115.86 593.72 117.17 590.6 119.9 586.71 115.79 584.68 114.09 580.24 110.67 578.27 109.25 572.33 104.83 567.58 101.33 563.05 98.03 554.84 92 554.16 91.5 554.94 90.54 558.41 85.99 560 84.07 561.94 81.85 564.23 79.02 568.58 73.8 571.63 69.71 578.06 61.43 582.9 55.24 587.34 49.19 588.1 48.17 589.28 46.61 592.18 42.65 594.81 39.35 596.04 37.91 596.83 38.18 598.01 38.59 604.77 36.23 607.63 38.83 607.99 39.18 608.47 39.79 609.77 41.71 610.39 42.63 610.65 42.98 610.9 43.29 611.11 43.55 612.12 44.79 613.31 46.23 614.56 47.75 615.18 48.43 615.44 48.71 615.59 48.88 616.19 49.54 616.89 50.19 618.96 51.79 621.58 53.83 622.23 54.32 624.09 55.71 625.63 56.72 626.56 57.31 628.96 58.71 630.54 59.53 632.99 60.7 633.59 61.01 636.52 62.55 637.56 63.03 637.17 68.35 636.74 71.64 638.26 73.06 641.1 73.3 641.06 73.4 640.95 73.59 639.81 75.19 644.22 76.96 647.6 78.32 648.99 78.9 648.22 80.04 650.01 81.31 652.38 82.99 654.42 84.45 656.49 81.64 664.85 83.58 665.99 83.56 666.27 83.28 668.32 84.45 671.69 86.37 668.79 90.4 668.12 91.33 668.02 91.48 667.92 91.63 667.83 91.78 667.75 91.93 667.67 92.08 667.6 92.24 667.53 92.4 667.47 92.56 667.42 92.72 667.37 92.88 667.33 93.05 666.98 94.58 666.85 95.41 666.83 95.59 666.81 95.77 666.8 95.95 666.8 96.13 666.8 96.31 666.82 96.49 666.84 96.67 666.87 96.85 666.9 97.03 666.94 97.21 666.99 97.38 667.11 97.75 667.13 97.82 667.16 97.89 667.18 97.96 667.21 98.02 667.25 98.09 667.28 98.15 667.32 98.22 667.36 98.28 667.41 98.34 667.45 98.4 667.5 98.46 667.55 98.52 667.61 98.57 667.66 98.63 667.72 98.68 667.78 98.73 667.84 98.78 667.91 98.82 667.97 98.87 668.04 98.91 668.11 98.95 668.18 98.99 668.25 99.02 668.32 99.06 668.4 99.09 668.47 99.12 668.55 99.15 668.63 99.17 668.71 99.2 668.79 99.22 674.65 100.61 673.02 105.33 670.63 112.23 669.51 115.79 675.59 115.92 676.65 115.94 682 116.05 Z"/>
<path d="M 744.54 84.42 735.21 88.34 732.61 89.39 729.69 90.99 728.38 91.7 718.21 97.19 717.77 97.5 717.34 97.81 716.92 98.14 716.52 98.49 716.13 98.84 715.75 99.2 715.39 99.58 715.05 99.97 714.72 100.36 714.41 100.77 714.12 101.19 713.84 101.61 713.58 102.04 713.13 102.83 712.82 103.36 710.18 107.95 709 107.53 708.89 107.72 706.61 107.11 705.18 106.89 703.94 106.83 703.04 106.91 701.38 107.13 699.02 107.45 693.84 108.21 692.52 108.41 691.07 108.62 689.44 109 689.14 109.1 688.84 109.2 688.55 109.32 688.26 109.44 687.98 109.58 687.7 109.72 687.43 109.87 687.16 110.02 686.9 110.19 686.65 110.36 686.4 110.54 686.16 110.72 685.93 110.91 685.71 111.11 685.49 111.32 685.28 111.53 685.08 111.75 684.89 111.97 684.71 112.2 684.53 112.43 684.37 112.67 684.02 113.19 682.82 115.01 682.29 115.72 682 116.05 676.65 115.94 675.59 115.92 669.51 115.79 670.63 112.23 673.02 105.33 674.65 100.61 668.79 99.22 668.71 99.2 668.63 99.17 668.55 99.15 668.47 99.12 668.4 99.09 668.32 99.06 668.25 99.02 668.18 98.99 668.11 98.95 668.04 98.91 667.97 98.87 667.91 98.82 667.84 98.78 667.78 98.73 667.72 98.68 667.66 98.63 667.61 98.57 667.55 98.52 667.5 98.46 667.45 98.4 667.41 98.34 667.36 98.28 667.32 98.22 667.28 98.15 667.25 98.09 667.21 98.02 667.18 97.96 667.16 97.89 667.13 97.82 667.11 97.75 666.99 97.38 666.94 97.21 666.9 97.03 666.87 96.85 666.84 96.67 666.82 96.49 666.8 96.31 666.8 96.13 666.8 95.95 666.81 95.77 666.83 95.59 666.85 95.41 666.98 94.58 667.33 93.05 667.37 92.88 667.42 92.72 667.47 92.56 667.53 92.4 667.6 92.24 667.67 92.08 667.75 91.93 667.83 91.78 667.92 91.63 668.02 91.48 668.12 91.33 668.79 90.4 671.69 86.37 668.32 84.45 666.27 83.28 665.99 83.56 664.85 83.58 656.49 81.64 654.42 84.45 652.38 82.99 650.01 81.31 648.22 80.04 648.99 78.9 647.6 78.32 644.22 76.96 639.81 75.19 640.95 73.59 641.06 73.4 641.1 73.3 638.26 73.06 636.74 71.64 637.17 68.35 637.56 63.03 636.52 62.55 633.59 61.01 632.99 60.7 630.54 59.53 628.96 58.71 626.56 57.31 625.63 56.72 624.09 55.71 622.23 54.32 621.58 53.83 618.96 51.79 616.89 50.19 616.19 49.54 615.59 48.88 615.44 48.71 615.18 48.43 614.56 47.75 613.31 46.23 612.12 44.79 611.11 43.55 610.9 43.29 610.65 42.98 610.39 42.63 609.77 41.71 608.47 39.79 607.99 39.18 607.63 38.83 604.77 36.23 598.01 38.59 596.83 38.18 596.04 37.91 597.65 36.04 599.65 33.46 601.8 30.76 603.32 28.6 604.63 26.86 606.92 24.27 612.33 17.03 613.64 15.05 615.17 13.61 617.66 9.89 621.39 4.61 624.06 1 628.99 3.13 633.29 6.17 638.71 9.85 643.63 13.59 652.16 19.57 656.87 22.65 661.44 26.27 665.01 28.64 669.16 31.49 674.78 35.46 681.45 39.97 688.9 45.31 695.54 49.85 700.18 52.94 706.43 57.39 712.75 62.08 718.86 66.17 723.57 69.56 729.33 73.77 734.74 77.87 740.9 82.43 744.54 84.42 Z M 674.48 93.42 679.12 95.17 679.36 95.25 685.42 97.5 688.19 98.52 690.93 99.54 692.63 94.48 693.31 94.73 695.06 90.79 691.89 89.28 694.44 85.5 687.69 82.25 687.44 82.15 689.69 78.94 692.15 75.37 688.5 73.88 684.75 72.35 681.05 70.74 677.31 69.11 673.13 75.31 675.81 76.62 678.78 78.03 676.24 82.08 677.24 82.54 674.18 87.5 676.8 88.49 675.69 90.87 674.48 93.42 Z" fill-rule="evenodd"/>
</g>
</svg>