<?xml version="1.0" encoding="UTF-8" standalone="no"?>
<svg
   viewBox="0 0 10000.001 10000"
   version="1.1"
   id="svg2"
   width="10000.001"
   height="10000"
   xmlns:xlink="http://www.w3.org/1999/xlink"
   xmlns="http://www.w3.org/2000/svg"
   xmlns:svg="http://www.w3.org/2000/svg">
  <defs
     id="defs2">
    <linearGradient
       id="linearGradient9">
      <stop
         style="stop-color:#0038b8;stop-opacity:1;"
         offset="0"
         id="stop9" />
      <stop
         style="stop-color:#007a3d;stop-opacity:1;"
         offset="0.7164557"
         id="stop10" />
    </linearGradient>
    <linearGradient
       xlink:href="#linearGradient9"
       id="linearGradient10"
       x1="1.125"
       y1="48.4375"
       x2="99.125"
       y2="48.4375"
       gradientUnits="userSpaceOnUse"
       gradientTransform="translate(25.119968,-4.8507524)" />
  </defs>
  <g
     id="g5"
     transform="translate(-5.5593762e-5)">
    <g
       id="path3"
       style="opacity:1"
       transform="matrix(1.0204082,0,0,1.0204082,-26.78058,5.5237271)">
      <path
         id="path8"
         style="baseline-shift:baseline;display:inline;overflow:visible;vector-effect:none;fill:url(#linearGradient10);fill-rule:evenodd;enable-background:accumulate;stop-color:#000000;stop-opacity:1"
         d="m 75.244968,-5.4132524 a 49,49 0 0 0 -49,48.9999994 49,49 0 0 0 49,49 49,49 0 0 0 49.000002,-49 49,49 0 0 0 -49.000002,-48.9999994 z m -37.75,31.2499994 h 9.201172 l 5.253906,23.519531 6.28711,-23.519531 h 8.789062 l 5.988281,23.519531 5.507813,-23.519531 h 8.972656 l -0.931641,3.458984 c 2.966469,-2.039332 6.751683,-3.058593 11.355469,-3.058593 2.161624,0 4.220024,0.196717 6.175784,0.59375 1.95575,0.382329 4.13239,1.154715 6.52929,2.316406 v 7.697265 h -0.94921 c -0.41174,-0.308802 -1.01453,-0.741993 -1.8086,-1.300781 -0.79407,-0.573493 -1.55772,-1.058046 -2.29297,-1.455078 -0.85288,-0.470558 -1.85496,-0.87663 -3.00195,-1.214844 -1.13228,-0.338214 -2.33786,-0.505859 -3.617188,-0.505859 -1.499904,0 -2.859569,0.219007 -4.080078,0.660156 -1.220511,0.441148 -2.314629,1.117591 -3.285156,2.029297 -0.926411,0.882297 -1.662948,2.00744 -2.207031,3.375 -0.529378,1.352854 -0.792969,2.919921 -0.792969,4.699219 0,3.632122 0.962325,6.411544 2.888672,8.33789 1.926348,1.92635 4.772643,2.890626 8.53711,2.890626 0.32351,-1e-6 0.67626,-0.0087 1.05859,-0.02344 0.39704,-0.01471 0.75657,-0.037 1.08008,-0.06641 v -6.441406 h -6.55078 v -6.197266 h 15.1543 v 16.21289 c -1.4705,0.573492 -3.41939,1.14721 -5.84571,1.720704 -2.42631,0.558788 -4.8462,0.83789 -7.257809,0.83789 -5.58788,0 -9.961484,-1.51375 -13.123047,-4.542968 -1.619883,-1.55961 -2.825102,-3.424024 -3.615234,-5.589844 L 78.293796,60.00471 H 68.53989 L 62.412937,37.74495 56.448093,60.004716 H 46.69614 Z" />
    </g>
  </g>
</svg>
